<svg xmlns="http://www.w3.org/2000/svg" width="240" height="80" viewBox="0 0 240 80">
    <defs>
        <style>
            .cls-1,.cls-3{fill:#fff}.cls-1{opacity:0}.cls-2{opacity:.7}
        </style>
    </defs>
    <g id="img_porcelanosa_logo" transform="translate(-1340 -2479)">
        <path id="area" d="M0 0h240v80H0z" class="cls-1" transform="translate(1340 2479)"/>
        <g id="logo" class="cls-2" transform="translate(1378 2511)">
            <path id="패스_241" d="M8.945 23.932c.985-.343 1.076-.8 1.076-1.924V9.292c0-1.123-.091-1.581-1.076-1.924v-.115H15.7a4.529 4.529 0 0 1 4.7 4.284c0 3.048-2.062 5.087-5.27 5.087a7.169 7.169 0 0 1-2.909-.482v5.866c0 1.122.091 1.581 1.535 1.924v.114H8.945zm9.117-12.349a3.244 3.244 0 0 0-3.6-3.414h-2.241v6.965a4.305 4.305 0 0 0 2.085.5 3.753 3.753 0 0 0 3.756-4.051z" class="cls-3" data-name="패스 241" transform="translate(-8.945 -6.909)"/>
            <path id="패스_242" d="M29.163 15.328c0-4.627 4.01-8.523 9.256-8.523a8.7 8.7 0 0 1 8.89 8.821c0 4.628-4.01 8.524-9.257 8.524a8.7 8.7 0 0 1-8.889-8.822zm15.671.275c0-3.85-2.544-7.95-6.828-7.95-3.94 0-6.369 2.864-6.369 7.629 0 3.872 2.542 8 6.873 8 3.919-.004 6.324-2.913 6.324-7.682z" class="cls-3" data-name="패스 242" transform="translate(-16.726 -6.736)"/>
            <path id="패스_243" d="M74.913 23.863v.114a6.165 6.165 0 0 1-1.214.069 3.25 3.25 0 0 1-3.093-1.746l-2.818-4.651c-.549-.916-.963-1.352-1.833-1.352h-1.672v5.705c0 1.122.092 1.581 1.077 1.924v.114h-4.353v-.114c.985-.343 1.077-.8 1.077-1.924V9.292c0-1.123-.092-1.581-1.077-1.924v-.115h5.957c2.52 0 4.948 1.558 4.948 3.848a4.88 4.88 0 0 1-3.573 4.583c2.748 1.306 4.054 7.171 6.574 8.179zM69.506 11.4c0-2.314-1.375-3.23-3.826-3.23h-1.4v7.149a4.975 4.975 0 0 0 1.214.091 3.784 3.784 0 0 0 4.012-4.01z" class="cls-3" data-name="패스 243" transform="translate(-28.981 -6.909)"/>
            <path id="패스_244" d="M82.35 15.374c0-5.109 4.88-8.569 9.21-8.569a11.733 11.733 0 0 1 6.14 1.81v3.505h-.115a5.9 5.9 0 0 0-6.117-4.4c-3.23 0-6.644 2.108-6.644 7.653 0 5.225 3.757 7.837 6.965 7.837a6.031 6.031 0 0 0 5.957-4.171h.115v3.414a11.4 11.4 0 0 1-6.3 1.7c-4.766-.004-9.211-3.418-9.211-8.779z" class="cls-3" data-name="패스 244" transform="translate(-37.194 -6.736)"/>
            <path id="패스_245" d="M117.818 8.077H113.6v6.392h3.07c1.169 0 1.65-.046 2.017-.664h.114v2.245h-.114c-.367-.619-.848-.666-2.017-.666h-3.07v7.309a7.149 7.149 0 0 0 2.864.412c2.819 0 3.918-.367 4.651-1.444h.093l-.458 2.383h-10.424v-.114c.985-.343 1.077-.8 1.077-1.924V9.292c0-1.123-.092-1.581-1.077-1.924v-.115h9.9v1.489h-.138c-.415-.619-.942-.665-2.27-.665z" class="cls-3" data-name="패스 245" transform="translate(-47.96 -6.909)"/>
            <path id="패스_246" d="M135.673 23.107c2.588 0 3.688-.367 4.421-1.444h.092l-.459 2.383h-9.966v-.114c.985-.343 1.077-.8 1.077-1.924V9.292c0-1.123-.092-1.581-1.077-1.924v-.115h4.352v.114c-.985.343-1.077.8-1.077 1.924v13.4a6.625 6.625 0 0 0 2.637.416z" class="cls-3" data-name="패스 246" transform="translate(-55.44 -6.909)"/>
            <path id="패스_247" d="M163.213 23.716v.114h-4.078v-.114c.664-.229.733-.573.412-1.328l-1.512-3.712h-6.69l-1.512 3.712c-.32.755-.252 1.1.413 1.328v.114h-2.91v-.114a2.155 2.155 0 0 0 1.4-1.443l6.6-15.58h.137l6.347 15.58a2.2 2.2 0 0 0 1.393 1.443zm-5.567-5.957l-2.956-7.217-2.956 7.217z" class="cls-3" data-name="패스 247" transform="translate(-62.203 -6.693)"/>
            <path id="패스_248" d="M188.355 19.968V9.292c0-1.123-.091-1.581-1.077-1.924v-.115h3.185v.114c-.985.343-1.077.8-1.077 1.924v15.1h-.092L177.152 9.979v12.029c0 1.122.092 1.581 1.077 1.924v.114h-3.184v-.114c.985-.343 1.076-.8 1.076-1.924V9.292c0-1.123-.091-1.581-1.076-1.924v-.115h2.542z" class="cls-3" data-name="패스 248" transform="translate(-72.867 -6.909)"/>
            <path id="패스_249" d="M202.249 15.328c0-4.627 4.01-8.523 9.256-8.523a8.7 8.7 0 0 1 8.89 8.821c0 4.628-4.01 8.524-9.257 8.524a8.7 8.7 0 0 1-8.889-8.822zm15.671.275c0-3.85-2.544-7.95-6.828-7.95-3.94 0-6.369 2.864-6.369 7.629 0 3.872 2.543 8 6.874 8 3.917-.004 6.323-2.913 6.323-7.682z" class="cls-3" data-name="패스 249" transform="translate(-83.336 -6.736)"/>
            <path id="패스_250" d="M233.572 22.316v-3.46h.115c.664 2.291 2.039 4.147 4.513 4.193a2.85 2.85 0 0 0 3.161-3 3.222 3.222 0 0 0-2.13-3.207l-2.269-1.145c-2.016-1.031-3.093-2.085-3.139-4.376-.046-2.932 2.314-4.514 5.224-4.514a5.012 5.012 0 0 1 3.643 1.283v2.59h-.115a3.813 3.813 0 0 0-3.756-2.98 2.733 2.733 0 0 0-3 2.864c0 1.535.664 2.269 2.177 3.024l2.36 1.192c2.2 1.1 3.024 2.36 3.024 4.215a5.356 5.356 0 0 1-5.476 5.156 6.646 6.646 0 0 1-4.332-1.835z" class="cls-3" data-name="패스 250" transform="translate(-95.39 -6.736)"/>
            <path id="패스_251" d="M264.582 23.716v.114H260.5v-.114c.664-.229.733-.573.412-1.328l-1.512-3.712h-6.689l-1.511 3.712c-.321.755-.252 1.1.412 1.328v.114H248.7v-.114a2.155 2.155 0 0 0 1.4-1.443l6.6-15.58h.137l6.347 15.58a2.2 2.2 0 0 0 1.398 1.443zm-5.567-5.957l-2.956-7.217-2.959 7.218z" class="cls-3" data-name="패스 251" transform="translate(-101.214 -6.693)"/>
        </g>
    </g>
</svg>
