<svg xmlns="http://www.w3.org/2000/svg" width="536" height="160" viewBox="0 0 536 160">
    <defs>
        <style>
            .cls-1{fill:red;opacity:0}.cls-2{fill:#fff}
        </style>
    </defs>
    <g id="img_molteni_logo_2" transform="translate(-8585 6584)">
        <path id="area" d="M0 0h536v160H0z" class="cls-1" transform="translate(8585 -6584)"/>
        <path id="패스_374" d="M537.4 113.816h11.4v-3.177h-29.14l-16.721 58.513-16.134-58.513h-29.719v3.177h11.389v79.143h-11.389v3.2h26.287v-3.2H472.2v-76.947h.207l22.909 80.151h3.957l23.027-80.151h.387v76.946h-11.4v3.2H548.8v-3.2h-11.4zm45.97 57.891c0 16.652-.214 23.821-10.47 23.821s-10.512-7.169-10.512-23.821c0-14.462-.787-24.456 10.512-24.456s10.47 9.994 10.47 24.456m13.689 0c0-14.345-11.14-27.012-24.159-27.012-13.067 0-24.2 12.667-24.2 27.012s11.133 26.376 24.2 26.376c13.019 0 24.159-12.038 24.159-26.376m29.622 21.252h-8.378v-84.24a87.936 87.936 0 0 1-20.775 1.92v3.177h8.336v79.143h-8.647v3.2h29.463zM660 187.6l-2.293-1.271c-1.133 3.55-3.308 6.768-7.017 6.768-4.365 0-4.524-2.935-4.524-7.052v-35.216h10.968v-3.854h-10.973v-15.589c-4.116.242-8.295.76-12.453.76v14.828h-7.342v3.854h7.342v36.246c0 7.045 1.74 11.009 12.231 11.009 6.665 0 11.672-3.329 14.055-10.484m14.476-22.916c0-8.095-.995-17.432 8.551-17.432 10.236 0 8.3 8.847 8.3 17.432zm0 13.454v-10.263h27.03c1.816 0 2.859.373 2.859-2.307a20.466 20.466 0 0 0-20.6-20.872c-12.6 0-22.971 12.8-22.971 26.894 0 13.06 9.1 26.494 21.652 26.494 11.2 0 19.159-5.5 22.108-17.916h-2.859c-2.279 8.716-8.626 15.36-16.887 15.36-9.856 0-10.326-8.454-10.326-17.391m64.453 18.026h26.687v-3.2h-7.236V169.29c0-12.7 1.25-24.594-14.055-24.594-8.329 0-13.489 4.358-17.177 12.294h-.193v-12.046c-7.19.262-14.2.774-20.119.518v3.191h7.874v44.306h-7.874v3.2h27.35v-3.2h-7.231v-16.894c0-6.023 0-11.914 1.43-16.134 1.8-4.724 6.278-10.643 11.223-10.643 7.694 0 6.548 8.716 6.548 20.63v23.04h-7.231zm50.715-74.778a7.16 7.16 0 0 0-6.831-6.914c-3.143 0-6.2 3.467-6.2 6.914 0 3.716 2.659 7.68 6.2 7.68 3.9 0 6.831-3.336 6.831-7.68m-20.526 74.778h29.346v-3.2h-8.5v-48.018c-7.058.262-14.069.774-20.844.518v3.191h8.378v44.306h-8.378zm93.182-10.483c-4.689 4.2-10.111 7.542-16.258 7.542-5.864 0-9.2-3.709-12.425-8.7-2.977-4.759-6.465-12.425-6.465-18.316 0-9.863 5.518-12.819 12.8-16.389zM851.467 141.1l-5.719-9.082a19.709 19.709 0 0 1-3.488-10.118c0-6.147 4.041-9.607 9.365-9.607 7.432 0 9.876 5.491 9.876 13.205 0 7.908-2.852 13.426-10.035 15.6m17.434 55.065h26.708v-3.2H884.2l-9.883-16.127c6.306-7.3 10.353-20.485 10.353-30.355h10.933v-3.2h-25.647v3.2h11.286a45.116 45.116 0 0 1-8.91 27.274l-18.986-29.83c7.328-3.073 18.786-8.951 18.786-19.325 0-11.658-11.458-15.264-19.946-15.264-10.505 0-20.284 6.3-20.284 19.1 0 6.147 3.584 13.565 6.437 18.814-11.189 5.263-24.567 11.769-24.567 27.923 0 15.6 11.769 23.545 24.677 23.545a38.677 38.677 0 0 0 25.72-10.111zm58.036-41.1c0-10.367-1.243-25.23 4.745-34.423 4.461-6.941 8.744-8.737 16.921-8.737 12.549 0 22.274 8.847 24.208 22.8h3.7v-24.72h-2.818l-5.111 5.38a31.112 31.112 0 0 0-19.9-6.644 35.519 35.519 0 0 0-17.363 4.22 47.869 47.869 0 0 0-23.158 40.97c0 21.265 17.032 44.175 39.555 44.175 7.542 0 16.147-2.286 21.866-7.307l5.249 6.175h2.825v-26.267h-3.612c-3.688 13.841-10.947 24.981-26.749 24.228-9.724-.532-15.726-6.029-18.171-14.221-2.418-8.336-2.19-18.323-2.19-25.63" class="cls-2" data-name="패스 374" transform="translate(8127.914 -6657.719)"/>
    </g>
</svg>
