<svg xmlns="http://www.w3.org/2000/svg" width="536" height="160" viewBox="0 0 536 160">
    <defs>
        <style>
            .cls-1{fill:red;opacity:0}.cls-2{fill:#fff}
        </style>
    </defs>
    <g id="img_gessi_logo_2" transform="translate(-7410 5869)">
        <path id="area" d="M0 0h536v160H0z" class="cls-1" transform="translate(7410 -5869)"/>
        <g id="그룹_707" data-name="그룹 707" transform="translate(7051.735 -6138.434)">
            <path id="패스_347" d="M445.56 294.611l-17.876.013c-28.729 0-53.454 23.776-53.454 54.2 0 26.57 22.286 54.2 49.991 54.2.722 0 5.191-.06 5.2-.073v-45.1h-27.595v-16.215h43.757v77.571H427.6c-38.466 0-69.333-31.834-69.333-70.386 0-38.625 30.92-70.386 69.257-70.386h18.036z" class="cls-2" data-name="패스 347" transform="translate(0 .001)"/>
            <path id="패스_348" d="M442.357 294.681c-17.028 0-13.684 15.392-8.46 24.328 4.225 7.208 8.4 14.078 13.264 22.094 10.264 17.647 16.088 34.152 8.386 50.822-9.35 20.226-24.521 25.395-42.3 27.282l-.007-16.174c11.426-1.235 21.521-4.778 27.573-17.995 10.651-23.266-24.7-51.991-27.49-73.8-3.169-24.739 18.547-32.808 28.778-32.808h8.089l-.007 16.247z" class="cls-2" data-name="패스 348" transform="translate(126.52 .001)"/>
            <path id="패스_349" d="M386.675 278.434h40.956l.087 16.173h-24.731v10.482h13.677v16.244h-13.677v81.7h24.644v16.173h-40.956z" class="cls-2" data-name="패스 349" transform="translate(65.653)"/>
            <path id="사각형_563" d="M0 0h16.086v140.774H0z" class="cls-2" data-name="사각형 563" transform="translate(590.172 278.434)"/>
            <path id="패스_350" d="M430.066 294.681c-17.034 0-13.684 15.392-8.459 24.328 4.218 7.208 8.4 14.078 13.257 22.094 10.27 17.647 16.094 34.152 8.393 50.822-9.35 20.226-24.52 25.395-42.3 27.282v-16.174c11.419-1.235 21.521-4.778 27.573-17.995 10.651-23.266-24.7-51.991-27.49-73.8-3.172-24.739 18.548-32.808 28.778-32.808h8.082v16.247z" class="cls-2" data-name="패스 350" transform="translate(98.117 .001)"/>
            <path id="패스_351" d="M443.25 278.434a8.676 8.676 0 1 0 8.678 8.678 8.558 8.558 0 0 0-8.678-8.678zm0 1.235a7.442 7.442 0 1 1-7.327 7.443 7.263 7.263 0 0 1 7.327-7.443zm-1.914 8h2.076l2.821 4.453h1.447l-2.98-4.453a2.7 2.7 0 0 0 2.516-2.8c0-1.8-1-2.778-3.268-2.778H440.1v10.032h1.235zm0-1.053v-3.477h2.264c1.208 0 2.381.328 2.381 1.728 0 1.705-1.5 1.748-3.01 1.748z" class="cls-2" data-name="패스 351" transform="translate(176.337 .001)"/>
        </g>
    </g>
</svg>
