<svg xmlns="http://www.w3.org/2000/svg" width="240" height="80" viewBox="0 0 240 80">
    <defs>
        <style>
            .cls-1,.cls-3{fill:#fff}.cls-1{opacity:0}.cls-2{opacity:.7}
        </style>
    </defs>
    <g id="img_dada_logo" transform="translate(-1204 -2479)">
        <path id="area" d="M0 0h240v80H0z" class="cls-1" transform="translate(1204 2479)"/>
        <g id="logo" class="cls-2" transform="translate(1290 2507.978)">
            <path id="패스_89" d="M463.93 93.917h2.589c4.159-.091 5.807-1.709 5.807-5.924 0-3.827-2.058-5.68-5.807-5.68h-2.589zm-5.478-16.323h9.041c6.454 0 10.308 3.921 10.308 10.431 0 6.886-3.911 10.6-10.308 10.6h-9.041z" class="cls-3" data-name="패스 89" transform="translate(-458.452 -77.594)"/>
            <path id="패스_90" d="M478.051 94.06c2.392 0 3.186-1.352 3.067-4.506a14.271 14.271 0 0 1-3.1.83c-1.12.258-2.061.733-2.061 1.939 0 1.237.976 1.737 2.093 1.737m-6.477-7.924a4.688 4.688 0 0 1 2.384-4.093 10.087 10.087 0 0 1 4.862-1.065c3.62 0 7.129.8 7.129 5.13V92.8a8.915 8.915 0 0 0 .584 3.908H481.5a6.158 6.158 0 0 1-.293-1.438 6.894 6.894 0 0 1-5.036 1.881c-2.917 0-5.213-1.468-5.213-4.622 0-4.973 5.416-4.6 8.894-5.3.857-.18 1.331-.479 1.331-1.419 0-1.151-1.391-1.59-2.42-1.59a2.245 2.245 0 0 0-2.506 1.913z" class="cls-3" data-name="패스 90" transform="translate(-451.371 -75.677)"/>
            <path id="패스_91" d="M486.06 90.817c0 2.1.763 4.42 3.061 4.42 2.447 0 2.976-2.321 2.976-4.265 0-2.212-.8-4.243-2.976-4.243-2.3 0-3.061 2.149-3.061 4.088m10.867 7.807h-4.773V96.86h-.054a4.882 4.882 0 0 1-4.214 2.209c-4.8 0-6.831-4.121-6.831-8.422 0-3.982 2.119-7.752 6.446-7.752a5.124 5.124 0 0 1 4.364 2.1h.055V77.6h5.011z" class="cls-3" data-name="패스 91" transform="translate(-445.652 -77.593)"/>
            <path id="패스_92" d="M498.827 94.06c2.389 0 3.183-1.352 3.062-4.506a14.181 14.181 0 0 1-3.092.83c-1.117.258-2.061.733-2.061 1.939 0 1.237.971 1.737 2.091 1.737m-6.48-7.924a4.715 4.715 0 0 1 2.382-4.093 10.107 10.107 0 0 1 4.867-1.065c3.618 0 7.125.8 7.125 5.13V92.8a8.869 8.869 0 0 0 .587 3.908h-5.036a5.376 5.376 0 0 1-.288-1.438 6.914 6.914 0 0 1-5.044 1.881c-2.917 0-5.211-1.468-5.211-4.622 0-4.973 5.418-4.6 8.888-5.3.862-.18 1.333-.479 1.333-1.419 0-1.151-1.386-1.59-2.418-1.59a2.243 2.243 0 0 0-2.5 1.913z" class="cls-3" data-name="패스 92" transform="translate(-439.604 -75.677)"/>
        </g>
    </g>
</svg>
