<svg xmlns="http://www.w3.org/2000/svg" width="536" height="160" viewBox="0 0 536 160">
    <defs>
        <style>
            .cls-1{fill:red;opacity:0}.cls-2{fill:#fff}
        </style>
    </defs>
    <g id="img_fontana_logo_2" transform="translate(-7410 6401)">
        <path id="area" d="M0 0h536v160H0z" class="cls-1" transform="translate(7410 -6401)"/>
        <g id="그룹_710" data-name="그룹 710" transform="translate(7245.542 -6711.398)">
            <g id="그룹_708" data-name="그룹 708" transform="translate(164.459 321.387)">
                <path id="패스_352" d="M164.479 396.475l-.02-2.574h9.031V324.7h-9.031l.02-2.564h54.335l.894 19.691h-2.024c-3.454-13.469-5.338-17.127-19.261-17.127H184.28v32.38c9.911-.1 14.373-.455 15.488-11.57h2.574v27.378h-2.474c-.77-11.36-5.218-13.029-15.588-13.039V393.9h9.59l-.015 2.574z" class="cls-2" data-name="패스 352" transform="translate(-164.459 -322.134)"/>
                <path id="패스_353" d="M258.848 396.557c0 9.356.125 21.151 11.37 21.12 11.245 0 11.365-11.764 11.365-21.12-.021-9.231-.12-21.035-11.365-21.035s-11.37 11.8-11.37 21.035m32.855 0c0 13.464-9.791 23.344-21.485 23.344-11.7.015-21.485-9.88-21.485-23.344s9.781-23.254 21.485-23.254 21.485 9.79 21.485 23.254" class="cls-2" data-name="패스 353" transform="translate(-200.705 -344.142)"/>
                <path id="패스_354" d="M336.539 376.966l-6.122-.01V374.4h2.339a58.41 58.41 0 0 0 6.252-.219 37.571 37.571 0 0 0 6.222-.875V385.1h.23c3.118-7.027 7.457-11.789 15.573-11.789 4.018 0 13.269.875 13.269 11.11v31.511l6-.015v2.563l-20.491.01v-2.574l5.792.015v-30.054c0-8.121-2.559-9.351-7.027-9.351-7.561 0-13.349 10.356-13.349 18.691v20.7h6.017l-.02 2.574h-20.81v-2.574h6.122z" class="cls-2" data-name="패스 354" transform="translate(-235.838 -344.144)"/>
                <path id="패스_355" d="M420.1 364.564h6.567l.01-13.679a52.506 52.506 0 0 0 8.461-.45v14.129h9.785v2.563h-9.785v34.064c0 2.009 0 5 4.228 5 2.888 0 4.443-1.974 6.232-4.113l1.774 1.224c-2.109 4.228-7.556 6.772-12.009 6.772-8.016.015-8.916-4.328-8.916-9.661v-33.28H420.1z" class="cls-2" data-name="패스 355" transform="translate(-274.413 -334.306)"/>
                <path id="패스_356" d="M503.151 395.216c-7.231.11-19.581 1.339-19.581 11.569 0 5.448 3.448 8.786 8.576 8.786a11.668 11.668 0 0 0 8.566-3.228c.885-.87 2.439-2.1 2.439-6.792zm16.822 15.573a9.471 9.471 0 0 1-9.48 9.131c-4.083 0-6.437-2.659-7.217-6.787a19.005 19.005 0 0 1-15.028 6.787c-7.027 0-13.019-2.674-13.019-10.9.325-10.35 10.89-16.147 27.922-16.147V382.3c0-5.213-4.1-6.792-8.006-6.792-2.444.015-10.35.79-10.35 4.018 0 .875 3.324 1.44 3.324 5.127a4.35 4.35 0 0 1-4.548 4.678c-3.014 0-4.673-2.234-4.673-5.338 0-4.028 4.543-10.69 17.792-10.69 15.148 0 15.148 6.432 15.148 10.9v26.478c0 3.369 0 5.118 2.349 5.118 2.219 0 3.339-3.1 3.888-5.008z" class="cls-2" data-name="패스 356" transform="translate(-298.122 -344.141)"/>
                <path id="패스_357" d="M566.1 376.966l-6.112-.01V374.4h2.339a58.307 58.307 0 0 0 6.242-.219 37.261 37.261 0 0 0 6.227-.875V385.1h.219c3.124-7.027 7.467-11.789 15.6-11.789 4.008 0 13.244.875 13.244 11.11v31.5h6.022v2.574l-20.48-.01v-2.563h5.767v-30.045c0-8.121-2.549-9.351-7.012-9.351-7.571 0-13.358 10.356-13.358 18.691v20.7h6.022v2.574h-20.83v-2.574l6.112.015z" class="cls-2" data-name="패스 357" transform="translate(-334.576 -344.144)"/>
                <path id="패스_358" d="M682.5 395.216c-7.232.11-19.591 1.339-19.591 11.569 0 5.448 3.459 8.786 8.571 8.786a11.686 11.686 0 0 0 8.566-3.209c.9-.89 2.454-2.119 2.454-6.812zm16.817 15.573a9.467 9.467 0 0 1-9.476 9.131c-4.118 0-6.452-2.674-7.231-6.787a19.028 19.028 0 0 1-15.018 6.787c-7.031 0-13.044-2.659-13.044-10.9.335-10.35 10.925-16.147 27.952-16.147V382.3c0-5.213-4.123-6.777-8-6.777-2.484 0-10.376.774-10.376 4 0 .875 3.359 1.44 3.359 5.127a4.38 4.38 0 0 1-4.573 4.678c-3.028 0-4.667-2.234-4.667-5.358 0-4.008 4.553-10.67 17.806-10.67 15.148 0 15.129 6.432 15.148 10.9l-.02 26.483c.02 3.364.02 5.113 2.354 5.113 2.214 0 3.333-3.1 3.893-5.008z" class="cls-2" data-name="패스 358" transform="translate(-375.246 -344.141)"/>
            </g>
            <path id="패스_359" d="M779.343 365.552L770.2 335.4h-.2l-9.815 30.156zm-40.2 30.177v-2.574l8.791.02L772.1 320.4h4.353l22.939 72.776 7.781-.02v2.564h-28.054v-2.564h9.011l-7.681-24.5h-21.261l-7.9 24.5 9.561.02v2.544z" class="cls-2" data-name="패스 359" transform="translate(-247.173)"/>
            <g id="그룹_709" data-name="그룹 709" transform="translate(164.458 337.516)">
                <path id="패스_360" d="M879.718 383.761h.225c1.974-5.012 6.442-10.46 12.579-10.46 3.778 0 6.787 1.994 6.787 6.217 0 2.779-2.9 4.128-5.243 4.128a4.875 4.875 0 0 1-4.343-4.453 20.909 20.909 0 0 1 .46-2.329c0-.68-.675-.68-1-.68-.12 0-3.908 1.569-6.357 6.577a28.463 28.463 0 0 0-2.789 12.009v21.135h8.581v2.574H863.79l-.01-2.574h7.571v-38.941l-7.561-.01V374.4h3.448a52.537 52.537 0 0 0 12.48-1.1z" class="cls-2" data-name="패스 360" transform="translate(-465.238 -360.27)"/>
                <path id="패스_361" d="M932 364.564h6.557v-13.679a52.626 52.626 0 0 0 8.461-.45v14.129h9.806v2.563l-9.806.021v34.039c0 2 0 5 4.233 5 2.894 0 4.448-1.974 6.232-4.113l1.784 1.224c-2.1 4.228-7.572 6.787-12.015 6.787-8.031 0-8.915-4.343-8.915-9.676v-33.261l-6.337-.025z" class="cls-2" data-name="패스 361" transform="translate(-494.581 -350.435)"/>
                <path id="패스_362" d="M1017.539 389.885l-.01-3.778c.01-8.041-4.673-10.585-10.24-10.6-6.662.015-9.681 6.252-9.9 7.017a27.3 27.3 0 0 0-1.114 7.372zm10.021 14.793c-2.219 10.345-9.79 15.238-19.6 15.238-11.355 0-22.28-9.111-22.28-21.49 0-13.109 8.7-25.123 21.95-25.123 11.36 0 19.926 7.661 20.036 19.8l-31.511.015.01 4.543c0 11.02 1.439 19.921 13.579 19.921 6.347 0 13.8-5.553 15.352-12.9z" class="cls-2" data-name="패스 362" transform="translate(-517.669 -360.271)"/>
                <path id="패스_363" d="M381.563 526.311h-.65l-.574 4.138H366.61c6.367-7.592 14.148-9.341 14.148-16.018 0-4.972-3.833-7.741-8.321-7.741-4.253 0-8.011 2.083-8.011 6.946-.115 1.519.919 3.264 2.3 3.264a1.84 1.84 0 0 0 2.034-1.939c0-1.214-.885-1.7-1.919-1.7-.845 0-1.264-.155-1.264-1.065 0-3.034 3.218-4.9 5.867-4.9 3.833 0 5.637 3.073 5.637 6.722 0 9.945-10.66 12.484-13.194 19.621h16.758zm-36.808-7.287h4.368c5.218 0 6.137 4.213 6.137 7.1 0 4.668-1.689 7.367-6.9 7.367-2.109 0-5.6-1.329-5.6-3.113a.357.357 0 0 1 .38-.38c.31 0 .54.115.885.115a1.881 1.881 0 0 0 1.919-1.864 1.812 1.812 0 0 0-2.034-2.009 2.411 2.411 0 0 0-2.3 2.389c0 4.143 4.063 5.468 7.321 5.468 4.218 0 10.006-2.694 10.006-7.932 0-5.7-5.133-7.211-7.822-7.441v-.075c2.224-.455 6.672-1.479 6.672-6.227 0-3.868-3.874-5.727-7.747-5.727-2.989 0-6.672 1.439-6.672 4.857a2.012 2.012 0 0 0 2 2.089 1.71 1.71 0 1 0-.115-3.418 5.151 5.151 0 0 0-.615.075c-.115 0-.115-.15-.115-.264 0-.87 2.145-2.734 5.058-2.734 3.414 0 4.758 1.974 4.758 5.122 0 5.583-2.494 6-6.747 6h-2.839zm-22.815 15.448c8.551-1.4 15.643-7.931 15.643-17.082 0-5.733-2.494-10.7-8.706-10.7a8.62 8.62 0 0 0-8.7 8.915c0 5.318 3.528 8.391 7.746 8.391a6.933 6.933 0 0 0 5.9-3.453h.075c-.88 8.121-4.178 11.994-12.115 13.318zm1.914-18.751c0-3.338.46-8.426 5.022-8.426 4.758 0 5.023 5.122 5.023 10.175 0 .57-.075 1.1-.115 1.595a5.918 5.918 0 0 1-5.287 4.323c-3.988 0-4.6-3.983-4.643-7.666M309.4 533.028h-3.6v.61h10.81v-.61h-3.53v-25.883h-1.57a37.887 37.887 0 0 1-8.631 6.227v.645c2.264-1.22 5.527-2.849 6.1-2.849.385 0 .425.38.425.91zm-23.509 8.086c2.114-1.784 3.648-3.948 3.648-6.792 0-2.164-1.04-4.1-3.529-4.1a1.994 1.994 0 0 0-2.229 1.969 1.645 1.645 0 0 0 1.729 1.709c.92 0 1.724-.415 1.724-1.439a1.836 1.836 0 0 0-.765-1.559l.075-.075c1.879.265 2.379 1.939 2.379 3.378 0 2.959-1.344 4.668-3.454 6.492zm-10.465-13.964c0 3.3-.155 6.337-4.448 6.337s-4.448-3.038-4.448-6.337v-2.964c0-3.3.155-6.337 4.448-6.337s4.448 3.034 4.448 6.337zm-12.579-1.485a8.136 8.136 0 1 0 8.131-8.426 8.17 8.17 0 0 0-8.131 8.426m-20.016 7.362H239.8v.61h9.166v-.61h-2.914v-10.7c.69-1.289 2.339-4.478 5.563-4.478 1.224 0 2.259.679 2.259 2.769v12.409h-3.029v.61h9.281v-.61H257.1v-11.5c0-2.239-1.155-4.288-5.253-4.288-2.8 0-4.723 2.049-5.717 3.868h-.075v-3.867c-.69.834-1.379.834-3.223.834H239.8v.61h3.028zm-11.465-7.7v4.973c0 .755-1.265 2.884-4.143 2.884-2.449 0-2.8-1.595-2.8-3.719 0-4.063 3.493-4.138 6.292-4.138zm3.223-3.683c0-2.924-3.454-4.4-6.367-4.4-3.833 0-5.9 2.124-5.9 4.063 0 1.29.61 2.125 1.684 2.125a1.652 1.652 0 0 0 1.764-1.595c0-1.709-1.265-1.289-1.265-2.2 0-1.369 2.609-1.784 3.719-1.784 1.46 0 3.144.415 3.144 2.2v4.668h-.725c-3.953 0-9.665 1.065-9.665 5.313 0 2.584 1.8 4.063 4.793 4.063 2.529 0 4.258-.645 5.562-2.354h.075a3.22 3.22 0 0 0 3.373 2.354 3.636 3.636 0 0 0 3.374-2.049l-.42-.3c-.574.8-1.114 1.519-1.994 1.519-1.034 0-1.149-.949-1.149-1.669zm-22.929 11.385h-3.069v.61h9.356v-.61h-3.067V505.74c-.764.875-1.994.95-3.218.95h-3.069v.6h3.069zm-11.775-22.62a1.957 1.957 0 1 0 1.954-1.939 1.957 1.957 0 0 0-1.954 1.939m.345 22.62h-3.069v.61h9.361v-.61h-3.069V517.24a4.49 4.49 0 0 1-3.223.834h-3.069v.61h3.069zm-32.4-3.149c0 2.5-.345 3.149-2.379 3.149h-.994v.61h7.9v-.61h-1.537c-2.029 0-2.374-.645-2.374-3.149v-20.457h.075l9.511 23.6h.345l9.355-24.064h.075v24.064h-3.6v.61h10.89v-.61h-3.377v-25.5h3.374v-.61h-7.287l-7.9 20.191-8.051-20.191h-7.4v.61h3.373z" class="cls-2" data-name="패스 363" transform="translate(-164.458 -417.232)"/>
            </g>
        </g>
    </g>
</svg>
