<svg xmlns="http://www.w3.org/2000/svg" width="240" height="80" viewBox="0 0 240 80">
    <defs>
        <style>
            .cls-1{fill:red;opacity:0}.cls-2{opacity:.7}.cls-3{fill:#fff}
        </style>
    </defs>
    <g id="img_fontana_logo" transform="translate(14524 8742)">
        <path id="area" d="M0 0h240v80H0z" class="cls-1" transform="translate(-14524 -8742)"/>
        <g id="logo" class="cls-2" transform="translate(-14464 -8718.557)">
            <g id="그룹_394" data-name="그룹 394" transform="translate(0 .233)">
                <path id="패스_77" d="M164.464 339.616v-.605h2.124v-16.274h-2.124v-.6h12.777l.21 4.631h-.476c-.812-3.167-1.255-4.028-4.53-4.028h-3.325v7.615c2.331-.025 3.38-.107 3.642-2.721h.605v6.438h-.582C172.6 331.4 171.559 331 169.12 331v8.008h2.255v.605z" class="cls-3" data-name="패스 77" transform="translate(-164.459 -322.134)"/>
                <path id="패스_78" d="M251.112 378.771c0 2.2.029 4.974 2.674 4.967s2.673-2.767 2.673-4.967c0-2.171-.028-4.947-2.673-4.947s-2.674 2.776-2.674 4.947m7.726 0a5.068 5.068 0 1 1-5.052-5.468 5.227 5.227 0 0 1 5.052 5.468" class="cls-3" data-name="패스 78" transform="translate(-237.439 -366.445)"/>
                <path id="패스_79" d="M331.857 374.168h-1.44v-.6h.55a13.758 13.758 0 0 0 1.47-.052 8.849 8.849 0 0 0 1.463-.206v2.772h.054c.733-1.652 1.753-2.772 3.662-2.772.945 0 3.12.206 3.12 2.612v7.41h1.411v.6h-4.819v-.605h1.362v-7.067c0-1.91-.6-2.2-1.652-2.2-1.778 0-3.139 2.435-3.139 4.4v4.867h1.415v.605h-4.894v-.605h1.44z" class="cls-3" data-name="패스 79" transform="translate(-308.176 -366.45)"/>
                <path id="패스_80" d="M420.1 353.758h1.544v-3.217a12.353 12.353 0 0 0 1.99-.106v3.323h2.3v.6h-2.3v8.01c0 .473 0 1.175.994 1.175.679 0 1.045-.464 1.465-.967l.417.288a3.3 3.3 0 0 1-2.824 1.592c-1.885 0-2.1-1.018-2.1-2.272v-7.824H420.1z" class="cls-3" data-name="패스 80" transform="translate(-385.843 -346.642)"/>
                <path id="패스_81" d="M481.8 378.454c-1.7.026-4.6.315-4.6 2.721a1.91 1.91 0 0 0 2.017 2.066 2.744 2.744 0 0 0 2.014-.759 1.813 1.813 0 0 0 .573-1.6zm3.956 3.662a2.227 2.227 0 0 1-2.229 2.147 1.691 1.691 0 0 1-1.7-1.6 4.469 4.469 0 0 1-3.534 1.6c-1.652 0-3.062-.629-3.062-2.563.076-2.434 2.561-3.8 6.566-3.8v-2.487c0-1.226-.965-1.6-1.883-1.6-.575 0-2.434.186-2.434.945 0 .206.782.339.782 1.206a1.023 1.023 0 0 1-1.069 1.1 1.1 1.1 0 0 1-1.1-1.255c0-.947 1.068-2.514 4.184-2.514 3.562 0 3.562 1.512 3.562 2.563v6.227c0 .792 0 1.2.552 1.2.522 0 .785-.729.914-1.178z" class="cls-3" data-name="패스 81" transform="translate(-433.58 -366.444)"/>
                <path id="패스_82" d="M561.422 374.168h-1.437v-.6h.55a13.734 13.734 0 0 0 1.468-.052 8.777 8.777 0 0 0 1.465-.206v2.772h.051c.735-1.652 1.756-2.772 3.668-2.772.943 0 3.115.206 3.115 2.612v7.407h1.416v.605h-4.816v-.6h1.356v-7.063c0-1.91-.6-2.2-1.649-2.2-1.781 0-3.141 2.435-3.141 4.4v4.867h1.416v.605h-4.9v-.605h1.437z" class="cls-3" data-name="패스 82" transform="translate(-506.978 -366.45)"/>
                <path id="패스_83" d="M661.117 378.454c-1.7.026-4.607.315-4.607 2.721a1.911 1.911 0 0 0 2.016 2.066 2.748 2.748 0 0 0 2.015-.755 1.817 1.817 0 0 0 .577-1.6zm3.955 3.662a2.226 2.226 0 0 1-2.228 2.147 1.691 1.691 0 0 1-1.7-1.6 4.474 4.474 0 0 1-3.532 1.6c-1.653 0-3.067-.625-3.067-2.563.079-2.434 2.569-3.8 6.573-3.8v-2.487c0-1.226-.97-1.594-1.882-1.594-.584 0-2.44.182-2.44.941 0 .206.79.339.79 1.206a1.03 1.03 0 0 1-1.076 1.1c-.712 0-1.1-.525-1.1-1.26 0-.943 1.071-2.509 4.187-2.509 3.563 0 3.558 1.512 3.563 2.563v6.228c0 .791 0 1.2.554 1.2.521 0 .784-.729.916-1.178z" class="cls-3" data-name="패스 83" transform="translate(-588.864 -366.444)"/>
            </g>
            <path id="패스_84" d="M748.6 331.016l-2.149-7.092h-.051l-2.308 7.092zm-9.454 7.1v-.605h2.067l5.682-17.114h1.024l5.394 17.114h1.83v.6h-6.6v-.6h2.119l-1.806-5.762h-5L742 337.507h2.248v.6z" class="cls-3" data-name="패스 84" transform="translate(-662.124 -320.398)"/>
            <g id="그룹_395" data-name="그룹 395" transform="translate(0 4.025)">
                <path id="패스_85" d="M867.528 375.761h.053a3.507 3.507 0 0 1 2.958-2.46 1.422 1.422 0 0 1 1.6 1.462c0 .653-.682.971-1.233.971a1.146 1.146 0 0 1-1.021-1.047 4.927 4.927 0 0 1 .108-.548c0-.16-.159-.16-.236-.16a3.082 3.082 0 0 0-1.5 1.547 6.694 6.694 0 0 0-.656 2.824v4.97h2.018v.605h-5.838v-.605h1.78v-9.158h-1.778v-.6h.811a12.356 12.356 0 0 0 2.935-.259z" class="cls-3" data-name="패스 85" transform="translate(-770.059 -370.236)"/>
                <path id="패스_86" d="M932 353.758h1.542v-3.217a12.377 12.377 0 0 0 1.99-.106v3.323h2.306v.6h-2.306v8c0 .47 0 1.175 1 1.175.681 0 1.046-.464 1.466-.967l.419.288a3.3 3.3 0 0 1-2.825 1.6c-1.889 0-2.1-1.021-2.1-2.275v-7.821l-1.49-.006z" class="cls-3" data-name="패스 86" transform="translate(-829.138 -350.435)"/>
                <path id="패스_87" d="M993.174 377.2v-.889a2.189 2.189 0 0 0-2.408-2.493 2.647 2.647 0 0 0-2.327 1.65 6.424 6.424 0 0 0-.262 1.733zm2.356 3.479a4.331 4.331 0 0 1-4.608 3.583 5.213 5.213 0 0 1-5.24-5.054c0-3.083 2.046-5.908 5.162-5.908a4.489 4.489 0 0 1 4.712 4.656h-7.41v1.068c0 2.592.339 4.685 3.193 4.685a4 4 0 0 0 3.61-3.035z" class="cls-3" data-name="패스 87" transform="translate(-875.625 -370.238)"/>
                <path id="패스_88" d="M215.512 510.578h-.153l-.135.973H212c1.5-1.785 3.327-2.2 3.327-3.767a1.807 1.807 0 0 0-1.957-1.82c-1 0-1.884.49-1.884 1.633-.027.357.216.768.541.768a.433.433 0 0 0 .478-.456c0-.286-.208-.4-.451-.4-.2 0-.3-.036-.3-.25a1.315 1.315 0 0 1 1.38-1.152c.9 0 1.326.723 1.326 1.581 0 2.339-2.507 2.936-3.1 4.614h3.94zm-8.656-1.714h1.027c1.227 0 1.443.991 1.443 1.669 0 1.1-.4 1.732-1.623 1.732-.5 0-1.316-.312-1.316-.732a.084.084 0 0 1 .089-.089c.073 0 .127.027.208.027a.442.442 0 0 0 .451-.438.426.426 0 0 0-.478-.472.567.567 0 0 0-.541.562c0 .974.956 1.286 1.722 1.286.992 0 2.353-.633 2.353-1.865a1.81 1.81 0 0 0-1.839-1.75v-.018c.523-.107 1.569-.348 1.569-1.464 0-.91-.911-1.347-1.822-1.347-.7 0-1.569.338-1.569 1.142a.473.473 0 0 0 .47.491.4.4 0 1 0-.027-.8 1.21 1.21 0 0 0-.145.018c-.027 0-.027-.035-.027-.062 0-.2.5-.643 1.189-.643.8 0 1.119.464 1.119 1.2 0 1.313-.586 1.41-1.587 1.41h-.668zm-5.365 3.633a4.154 4.154 0 0 0 3.679-4.017c0-1.348-.586-2.516-2.047-2.516a2.027 2.027 0 0 0-2.046 2.1 1.815 1.815 0 0 0 1.822 1.973 1.63 1.63 0 0 0 1.388-.812h.018c-.207 1.91-.983 2.82-2.849 3.132zm.45-4.41c0-.785.108-1.982 1.181-1.982 1.119 0 1.181 1.2 1.181 2.393 0 .134-.018.259-.027.375a1.392 1.392 0 0 1-1.243 1.016c-.938 0-1.082-.937-1.092-1.8m-3.4 4.07h-.841v.143h2.542v-.143h-.83v-6.089h-.369a8.906 8.906 0 0 1-2.03 1.464v.152a8.7 8.7 0 0 1 1.434-.67c.09 0 .1.089.1.214zm-5.528 1.9a2.076 2.076 0 0 0 .858-1.6c0-.509-.244-.964-.83-.964a.469.469 0 0 0-.524.463.387.387 0 0 0 .407.4c.216 0 .406-.1.406-.338a.432.432 0 0 0-.18-.367l.018-.018c.442.062.559.456.559.794a1.875 1.875 0 0 1-.812 1.527zm-2.461-3.284c0 .776-.036 1.49-1.046 1.49s-1.046-.714-1.046-1.49v-.7c0-.777.036-1.49 1.046-1.49s1.046.713 1.046 1.49zm-2.958-.349a1.913 1.913 0 1 0 1.912-1.981 1.921 1.921 0 0 0-1.912 1.981m-4.707 1.731h-.712v.143h2.155v-.143h-.685v-2.516c.162-.3.55-1.053 1.308-1.053.288 0 .531.16.531.651v2.918h-.712v.143h2.182v-.143h-.712v-2.7c0-.526-.272-1.008-1.235-1.008a1.59 1.59 0 0 0-1.344.91h-.018v-.91c-.162.2-.324.2-.758.2h-.712v.143h.712zm-2.7-1.811v1.169a.925.925 0 0 1-.974.678c-.576 0-.658-.375-.658-.875 0-.956.822-.973 1.48-.973zm.758-.866c0-.688-.812-1.035-1.5-1.035-.9 0-1.388.5-1.388.955 0 .3.143.5.4.5a.388.388 0 0 0 .415-.375c0-.4-.3-.3-.3-.517 0-.322.613-.419.874-.419.343 0 .739.1.739.517v1.1h-.17c-.93 0-2.273.25-2.273 1.249 0 .608.424.956 1.127.956a1.481 1.481 0 0 0 1.308-.554h.018a.757.757 0 0 0 .793.554.855.855 0 0 0 .793-.482l-.1-.072c-.135.188-.262.357-.469.357-.243 0-.27-.223-.27-.393zm-5.392 2.677h-.722v.143h2.2v-.143h-.722v-6.417a.952.952 0 0 1-.757.223h-.722v.142h.722zm-2.769-5.319a.46.46 0 1 0 .46-.456.46.46 0 0 0-.46.456m.081 5.319h-.722v.143h2.2v-.143h-.722v-3.713a1.056 1.056 0 0 1-.758.2h-.722v.143h.722zm-7.619-.741c0 .589-.081.741-.559.741h-.234v.143h1.857v-.143h-.361c-.477 0-.558-.152-.558-.741v-4.81h.018l2.237 5.551h.081l2.2-5.659h.018v5.659h-.845v.143h2.561v-.143h-.793v-6h.793v-.143h-1.714l-1.857 4.748-1.893-4.748h-1.741v.143h.793z" class="cls-3" data-name="패스 88" transform="translate(-164.458 -484.926)"/>
            </g>
        </g>
    </g>
</svg>
