<svg xmlns="http://www.w3.org/2000/svg" width="240" height="80" viewBox="0 0 240 80">
    <defs>
        <style>
            .cls-1{fill:#fff;opacity:0}.cls-2{opacity:.5}
        </style>
    </defs>
    <g id="img_molteni_logo" transform="translate(-1166 -2479)">
        <path id="area" d="M0 0h240v80H0z" class="cls-1" transform="translate(1166 2479)"/>
        <g id="logo" class="cls-2" transform="translate(99.961 171.269)">
            <path id="패스_342" d="M475.368 109.879h2.594v-.723h-6.633l-3.806 13.319-3.672-13.319h-6.765v.723h2.592v18.014h-2.592v.729h5.983v-.729h-2.544v-17.514h.047l5.215 18.244h.9l5.241-18.244h.088v17.515h-2.6v.729h8.54v-.729h-2.594zm10.464 13.177c0 3.79-.049 5.422-2.383 5.422s-2.393-1.632-2.393-5.422c0-3.292-.179-5.567 2.393-5.567s2.383 2.275 2.383 5.567m3.116 0c0-3.265-2.536-6.148-5.5-6.148s-5.509 2.883-5.509 6.148a5.525 5.525 0 1 0 11.008 0m6.743 4.837h-1.907v-19.174a20.015 20.015 0 0 1-4.729.437v.723h1.9v18.014h-1.968v.729h6.706zm7.582-1.22l-.522-.289c-.258.808-.753 1.541-1.6 1.541-.994 0-1.03-.668-1.03-1.605v-8.02h2.5v-.877h-2.5v-3.548c-.937.055-1.888.173-2.834.173v3.375h-1.671v.877h1.671v8.25c0 1.6.4 2.506 2.784 2.506a3.163 3.163 0 0 0 3.2-2.386m3.3-5.216c0-1.842-.226-3.968 1.946-3.968 2.33 0 1.89 2.014 1.89 3.968zm0 3.062v-2.336h6.152c.414 0 .651.085.651-.525a4.658 4.658 0 0 0-4.69-4.751c-2.869 0-5.229 2.913-5.229 6.122 0 2.973 2.072 6.03 4.928 6.03a4.768 4.768 0 0 0 5.032-4.078h-.651c-.519 1.984-1.964 3.5-3.844 3.5-2.243 0-2.35-1.924-2.35-3.959m14.671 4.1h6.074v-.729h-1.646v-5.388c0-2.891.285-5.6-3.2-5.6-1.9 0-3.07.992-3.91 2.8h-.044v-2.742c-1.637.06-3.232.176-4.579.118v.726h1.792v10.085h-1.792v.729h6.225v-.729h-1.646v-3.845a12.568 12.568 0 0 1 .325-3.672c.409-1.075 1.429-2.423 2.555-2.423 1.751 0 1.49 1.984 1.49 4.7v5.244h-1.646zm11.541-17.019a1.63 1.63 0 0 0-1.555-1.574 1.606 1.606 0 0 0-1.41 1.574 1.667 1.667 0 0 0 1.41 1.748 1.627 1.627 0 0 0 1.555-1.748m-4.672 17.021h6.68v-.729h-1.935v-10.927c-1.607.06-3.2.176-4.744.118v.726h1.907v10.085h-1.907zm21.21-2.386a5.7 5.7 0 0 1-3.7 1.717c-1.335 0-2.094-.844-2.828-1.979a9.126 9.126 0 0 1-1.471-4.169c0-2.245 1.256-2.918 2.913-3.731zm-2.465-10.148l-1.3-2.067a4.487 4.487 0 0 1-.794-2.3 2.03 2.03 0 0 1 2.132-2.187c1.692 0 2.248 1.25 2.248 3.006 0 1.8-.649 3.056-2.284 3.55m3.968 12.534h6.076v-.729h-2.6l-2.25-3.671a11.769 11.769 0 0 0 2.357-6.909h2.493v-.728h-5.839v.728h2.569a10.269 10.269 0 0 1-2.028 6.208l-4.322-6.79c1.668-.7 4.276-2.037 4.276-4.4 0-2.654-2.608-3.474-4.54-3.474-2.391 0-4.617 1.434-4.617 4.348a10.162 10.162 0 0 0 1.465 4.282c-2.547 1.2-5.592 2.679-5.592 6.356 0 3.551 2.679 5.359 5.617 5.359a8.8 8.8 0 0 0 5.854-2.3zm13.21-9.355c0-2.36-.283-5.743 1.08-7.835a3.831 3.831 0 0 1 3.852-1.989c2.856 0 5.07 2.014 5.51 5.189h.843v-5.627h-.642l-1.163 1.225a7.082 7.082 0 0 0-4.529-1.512 8.085 8.085 0 0 0-3.952.961 10.9 10.9 0 0 0-5.271 9.326c0 4.84 3.877 10.055 9 10.055a7.779 7.779 0 0 0 4.977-1.663l1.195 1.405h.643v-5.979h-.822c-.84 3.15-2.492 5.686-6.089 5.515a4.286 4.286 0 0 1-4.136-3.237 21.705 21.705 0 0 1-.5-5.834" data-name="패스 342" transform="translate(669.953 2229.013)"/>
        </g>
    </g>
</svg>
