<svg xmlns="http://www.w3.org/2000/svg" width="240" height="80" viewBox="0 0 240 80">
    <defs>
        <style>
            .cls-1,.cls-3{fill:#fff}.cls-1{opacity:0}.cls-2{opacity:.7}
        </style>
    </defs>
    <g id="img_gessi_logo" transform="translate(-1204 -2479)">
        <path id="area" d="M0 0h240v80H0z" class="cls-1" transform="translate(1204 2479)"/>
        <g id="logo" class="cls-2" transform="translate(1297 2504)">
            <path id="패스_20" d="M376.036 281.838h-3.639a11.191 11.191 0 0 0-10.882 11.4c0 5.591 4.537 11.406 10.177 11.406.147 0 1.057-.013 1.058-.015v-9.49h-5.617v-3.412h8.908v16.323h-3.661c-7.83 0-14.114-6.7-14.114-14.811 0-8.128 6.294-14.811 14.1-14.811h3.672z" class="cls-3" data-name="패스 20" transform="translate(-358.265 -278.434)"/>
            <path id="패스_21" d="M418.988 281.853c-3.466 0-2.786 3.239-1.722 5.119.86 1.517 1.71 2.962 2.7 4.649 2.089 3.713 3.275 7.186 1.707 10.694-1.9 4.256-4.992 5.344-8.61 5.741v-3.4c2.326-.26 4.381-1.005 5.613-3.787 2.168-4.9-5.027-10.94-5.6-15.529a5.928 5.928 0 0 1 5.858-6.9h1.647v3.419z" class="cls-3" data-name="패스 21" transform="translate(-376.113 -278.434)"/>
            <path id="패스_22" d="M386.675 278.434h8.337l.018 3.4H390v2.206h2.784v3.418H390v17.192h5.017v3.4h-8.337z" class="cls-3" data-name="패스 22" transform="translate(-367.527 -278.434)"/>
            <path id="사각형_329" d="M0 0h3.275v29.622H0z" class="cls-3" data-name="사각형 329" transform="translate(47.209)"/>
            <path id="패스_23" d="M406.7 281.853c-3.468 0-2.786 3.239-1.722 5.119.859 1.517 1.71 2.962 2.7 4.649 2.091 3.713 3.276 7.186 1.708 10.694-1.9 4.256-4.992 5.344-8.612 5.741v-3.4c2.325-.26 4.381-1.005 5.613-3.787 2.168-4.9-5.027-10.94-5.6-15.529a5.928 5.928 0 0 1 5.858-6.9h1.645v3.419z" class="cls-3" data-name="패스 23" transform="translate(-372.106 -278.434)"/>
            <path id="패스_24" d="M436.339 278.434a1.827 1.827 0 1 0 1.767 1.826 1.772 1.772 0 0 0-1.767-1.826zm0 .26a1.568 1.568 0 1 1-1.492 1.566 1.5 1.5 0 0 1 1.492-1.566zm-.39 1.684h.423l.574.937h.295l-.607-.937a.562.562 0 0 0 .512-.589c0-.378-.2-.585-.665-.585h-.781v2.111h.251zm0-.222v-.732h.461c.246 0 .485.069.485.364 0 .359-.3.368-.613.368z" class="cls-3" data-name="패스 24" transform="translate(-383.141 -278.434)"/>
        </g>
    </g>
</svg>
