<svg xmlns="http://www.w3.org/2000/svg" width="536" height="160" viewBox="0 0 536 160">
    <defs>
        <style>
            .cls-1{fill:red;opacity:0}.cls-2{fill:#fff}
        </style>
    </defs>
    <g id="img_dada_logo_2" transform="translate(-6651 6763)">
        <path id="area" d="M0 0h536v160H0z" class="cls-1" transform="translate(6651 -6763)"/>
        <g id="그룹_712" data-name="그룹 712" transform="translate(6192.548 -6815.594)">
            <path id="패스_370" d="M486.51 161.205h13.262c21.3-.465 29.742-8.753 29.742-30.344 0-19.6-10.543-29.093-29.742-29.093H486.51zm-28.058-83.611h46.311c33.056 0 52.8 20.082 52.8 53.427 0 35.271-20.034 54.286-52.8 54.286h-46.311z" class="cls-2" data-name="패스 370"/>
            <path id="패스_371" d="M507.3 147.989c12.252 0 16.32-6.924 15.71-23.083-3.642 2.255-10.27 2.744-15.87 4.252-5.737 1.324-10.559 3.755-10.559 9.933 0 6.338 5 8.9 10.719 8.9M474.124 107.4c.417-10.262 5.263-16.857 12.211-20.965 6.932-3.923 16-5.456 24.9-5.456 18.542 0 36.514 4.084 36.514 26.276v34.275c0 6.619 0 13.864 2.993 20.018h-25.8a31.537 31.537 0 0 1-1.5-7.365c-6.651 6.948-16.448 9.636-25.8 9.636-14.94 0-26.7-7.518-26.7-23.677 0-25.474 27.745-23.549 45.557-27.127 4.389-.923 6.82-2.455 6.82-7.269 0-5.9-7.125-8.144-12.4-8.144-7.092 0-11.609 3.177-12.837 9.8z" class="cls-2" data-name="패스 371" transform="translate(87.813 23.767)"/>
            <path id="패스_372" d="M506.7 145.32c0 10.751 3.907 22.642 15.678 22.642 12.532 0 15.244-11.891 15.244-21.848 0-11.329-4.092-21.735-15.244-21.735-11.771 0-15.678 11.008-15.678 20.941m55.666 39.988h-24.445v-9.034h-.3a25 25 0 0 1-21.583 11.313c-24.608 0-34.99-21.109-34.99-43.141 0-20.4 10.856-39.708 33.016-39.708 9.66 0 17.066 3.643 22.353 10.751h.281V77.595h25.667z" class="cls-2" data-name="패스 372" transform="translate(158.728 .007)"/>
            <path id="패스_373" d="M528.083 147.989c12.236 0 16.3-6.924 15.686-23.083-3.619 2.255-10.254 2.744-15.838 4.252-5.721 1.324-10.559 3.755-10.559 9.933 0 6.338 4.974 8.9 10.711 8.9M494.891 107.4c.465-10.262 5.279-16.857 12.2-20.965 6.956-3.923 16-5.456 24.929-5.456 18.534 0 36.5 4.084 36.5 26.276v34.275c0 6.619 0 13.864 3.009 20.018h-25.8a27.537 27.537 0 0 1-1.476-7.365c-6.675 6.948-16.472 9.636-25.835 9.636-14.94 0-26.694-7.518-26.694-23.677 0-25.474 27.753-23.549 45.524-27.127 4.413-.923 6.828-2.455 6.828-7.269 0-5.9-7.1-8.144-12.388-8.144-7.084 0-11.618 3.177-12.829 9.8z" class="cls-2" data-name="패스 373" transform="translate(233.723 23.767)"/>
        </g>
    </g>
</svg>
