<svg xmlns="http://www.w3.org/2000/svg" width="536" height="160" viewBox="0 0 536 160">
    <defs>
        <style>
            .cls-1,.cls-2{fill:#fff}.cls-1{opacity:0}
        </style>
    </defs>
    <g id="img_nexus_logo" transform="translate(-201.394 -264.662)">
        <path id="area" d="M0 0h536v160H0z" class="cls-1" transform="translate(201.394 264.662)"/>
        <path id="패스_15" d="M298.886 301.926h64.188v-18.175h-64.188V299.863zm0 52.106h64.188v-18.177h-64.188v16.113zm64.188 52.1V387.96h-64.188v18.174z" class="cls-2" data-name="패스 15" transform="translate(25.836 .554)"/>
        <path id="패스_16" d="M269.035 284.056V357.8l-67.642-75.767V406.79h17.8v-74.678l67.646 75.965V284.056z" class="cls-2" data-name="패스 16" transform="translate(0 .098)"/>
        <path id="패스_17" d="M543.278 283.756v79.358c0 13.787-10.162 25.006-22.655 25.006h-6.851c-12.492 0-22.653-11.218-22.653-25.006v-79.358h-19.606v79.358c0 24.6 18.957 44.612 42.259 44.612h6.851c23.3 0 42.261-20.015 42.261-44.612v-79.358z" class="cls-2" data-name="패스 17" transform="translate(71.582 .555)"/>
        <path id="패스_18" d="M637.819 361.7c-3.627-9.3-11.3-15.655-18.328-20.647-2.129-1.516-4.81-3.046-7.928-4.825-8-4.572-20.094-11.476-22.606-19.024a10.226 10.226 0 0 1 4.936-12.791c4.686-2.58 11.178-3.565 19.806-2.993l2.054.135 1.32-19.555-2.06-.139c-12.472-.83-22.493.923-30.59 5.39a29.961 29.961 0 0 0-14.072 36.149c4.882 14.658 20.888 23.8 31.49 29.858 2.426 1.385 4.933 2.816 6.3 3.785 5.16 3.666 8.174 7.4 9.484 11.743a13.929 13.929 0 0 1-3.09 13.371c-8.09 9.263-23.041 6.846-37.492 4.513l-3.934-.632-3.115 19.356 2.495.4c6.9 1.109 15.482 2.489 24.149 2.489 15.414 0 26.712-4.366 34.547-13.346 8.232-9.428 10.835-22.473 6.64-33.232" class="cls-2" data-name="패스 18" transform="translate(97.346)"/>
        <path id="패스_19" d="M421.517 350.662l-48.489 55.521h24.095l24.474-27.8 25.08 27.8H470.5zm0-11.568l48.983-55.521h-23.82l-25.08 27.8-24.474-27.8h-24.098z" class="cls-2" data-name="패스 19" transform="translate(45.366 .089)"/>
    </g>
</svg>
