<svg xmlns="http://www.w3.org/2000/svg" width="360" height="180" viewBox="0 0 360 180">
  <g id="img_main_logo_duravit" transform="translate(-3757 -1517)">
    <g id="area" transform="translate(3757 1517)" fill="rgba(255,255,255,0)" stroke="#fff" stroke-width="1" opacity="0.1">
      <rect width="360" height="180" stroke="none"/>
      <rect x="0.5" y="0.5" width="359" height="179" fill="none"/>
    </g>
    <g id="logo" transform="translate(3872 1592)" opacity="0.5">
      <path id="패스_143" data-name="패스 143" d="M334.254,304.779h4.3l-2.058-5.232-2.245,5.232m-12.887-3.511h2.807c1.753,0,2.11-1.4,2.11-2.657,0-1.348-.553-2.386-2.079-2.386h-2.838Zm15.269-10.327,8.133,20.738h-3.511l-1.372-3.49H332.8l-1.5,3.49h-5.367l-4.559-6.9v6.9h-3.431V292.8l6.313.006a5.524,5.524,0,0,1,5.469,5.808,5.723,5.723,0,0,1-4.65,5.958c1.138,1.616,2.325,3.338,3.48,4.972l7.973-18.6Z" transform="translate(-247.188 -286.001)" fill="#fff"/>
      <path id="패스_144" data-name="패스 144" d="M26.778,311.931l1.629-2.1-3.12-3.457,1.491,5.558m3.758.333-4.873,5.165-4.125-15.211-9.361-10.37,13.517,1.412,10.087,6.859,4.277,6.658L24.564,296.206l-5-.646,14.325,15.575,1.25-3.833A6.482,6.482,0,0,0,41.753,309a6.732,6.732,0,0,0,4.277-4.842,6.51,6.51,0,0,0-2.26-6.376,5.749,5.749,0,0,0-5.245-1.371,7.446,7.446,0,0,0-3.592,2.1l-2.985-1.977A10.118,10.118,0,0,1,42.681,293.1a10.394,10.394,0,0,1,6.98,8.352c.4,4.6-1.614,8.554-5.85,10.451a9.172,9.172,0,0,1-6.859.524l-1.687,5Z" transform="translate(-12.177 -286.7)" fill="#fff"/>
      <path id="패스_145" data-name="패스 145" d="M59.76,315.317a.949.949,0,1,1,.949.956.952.952,0,0,1-.949-.956" transform="translate(-48.75 -304.004)" fill="#fff"/>
      <path id="패스_146" data-name="패스 146" d="M414.087,297.616l-11.3-28.018,3.586,0,7.734,19.177,5.065-12.386H422.8l-8.715,21.223" transform="translate(-312.405 -269.599)" fill="#fff"/>
      <rect id="사각형_414" data-name="사각형 414" width="3.39" height="18.884" transform="translate(112.066 6.794)" fill="#fff"/>
      <path id="패스_147" data-name="패스 147" d="M531.658,302.392h-4.721v15.454h-3.368V302.392h-4.661v-3.43h12.751v3.43" transform="translate(-401.658 -292.168)" fill="#fff"/>
      <path id="패스_148" data-name="패스 148" d="M253.884,307.963c0,2.976-.4,6.406,3.281,6.406,3.594,0,3.243-3.388,3.243-6.412v-9h3.38v12c0,2.521-1.771,6.887-6.623,6.887-4.837,0-6.665-4.366-6.663-6.887v-12h3.382v9" transform="translate(-195.357 -292.165)" fill="#fff"/>
      <path id="패스_149" data-name="패스 149" d="M186.233,298.963h-3.381l0,18.884h3.128c5.413,0,10.669-2.883,10.669-9.455,0-5.6-3.46-9.429-10.419-9.429m2.2,15.446a11.671,11.671,0,0,1-2.055.123V302.325a11.785,11.785,0,0,1,2.056.128,6,6,0,0,1,4.95,6.122A5.747,5.747,0,0,1,188.433,314.409Z" transform="translate(-143.361 -292.169)" fill="#fff"/>
    </g>
  </g>
</svg>
