<svg xmlns="http://www.w3.org/2000/svg" width="360" height="180" viewBox="0 0 360 180">
  <g id="img_main_logo_gessi" transform="translate(-3560 -1517)">
    <g id="area" transform="translate(3560 1517)" fill="rgba(255,255,255,0)" stroke="#fff" stroke-width="1" opacity="0.1">
      <rect width="360" height="180" stroke="none"/>
      <rect x="0.5" y="0.5" width="359" height="179" fill="none"/>
    </g>
    <g id="logo" transform="translate(3713 1593)" opacity="0.5">
      <path id="패스_20" data-name="패스 20" d="M375.724,281.67l-3.575,0a10.8,10.8,0,0,0-10.691,10.839c0,5.314,4.457,10.841,10,10.841.144,0,1.038-.012,1.04-.015v-9.02h-5.519v-3.243h8.751v15.514h-3.6a14.079,14.079,0,0,1-.015-28.155h3.608Z" transform="translate(-358.265 -278.434)" fill="#fff"/>
      <path id="패스_21" data-name="패스 21" d="M418.883,281.683c-3.406,0-2.737,3.078-1.692,4.866.845,1.442,1.68,2.816,2.653,4.419,2.053,3.529,3.217,6.83,1.677,10.164-1.87,4.045-4.9,5.079-8.459,5.456v-3.235c2.285-.247,4.3-.956,5.515-3.6,2.13-4.653-4.939-10.4-5.5-14.759-.634-4.948,3.71-6.562,5.756-6.562h1.618v3.249Z" transform="translate(-376.76 -278.434)" fill="#fff"/>
      <path id="패스_22" data-name="패스 22" d="M386.675,278.434h8.191l.017,3.235h-4.946v2.1h2.735v3.249h-2.735v16.34h4.929v3.235h-8.191Z" transform="translate(-367.863 -278.434)" fill="#fff"/>
      <rect id="사각형_329" data-name="사각형 329" width="3.217" height="28.155" transform="translate(46.381 0)" fill="#fff"/>
      <path id="패스_23" data-name="패스 23" d="M406.592,281.683c-3.407,0-2.737,3.078-1.692,4.866.844,1.442,1.68,2.816,2.651,4.419,2.054,3.529,3.219,6.83,1.679,10.164-1.87,4.045-4.9,5.079-8.461,5.456v-3.235c2.284-.247,4.3-.956,5.515-3.6,2.13-4.653-4.939-10.4-5.5-14.759-.634-4.948,3.71-6.562,5.756-6.562h1.616v3.249Z" transform="translate(-372.608 -278.434)" fill="#fff"/>
      <path id="패스_24" data-name="패스 24" d="M436.308,278.434a1.735,1.735,0,1,0,1.735,1.736A1.712,1.712,0,0,0,436.308,278.434Zm0,.247a1.488,1.488,0,1,1-1.465,1.489A1.453,1.453,0,0,1,436.308,278.681Zm-.383,1.6h.415l.564.891h.289l-.6-.891a.541.541,0,0,0,.5-.56c0-.36-.2-.556-.654-.556h-.769v2.006h.247Zm0-.211v-.7h.453c.242,0,.476.066.476.346,0,.341-.3.35-.6.35Z" transform="translate(-384.043 -278.434)" fill="#fff"/>
    </g>
  </g>
</svg>
