<svg xmlns="http://www.w3.org/2000/svg" width="360" height="180" viewBox="0 0 360 180">
  <g id="img_main_logo_schramm" transform="translate(-3786 -1419)">
    <g id="area" transform="translate(3786 1419)" fill="rgba(255,255,255,0)" stroke="#fff" stroke-width="1" opacity="0.1">
      <rect width="360" height="180" stroke="none"/>
      <rect x="0.5" y="0.5" width="359" height="179" fill="none"/>
    </g>
    <g id="logo" transform="translate(3901 1492)" opacity="0.5">
      <g id="그룹_566" data-name="그룹 566" transform="translate(0 6.866)">
        <path id="패스_252" data-name="패스 252" d="M345.711,313.439v1.653l1.631-.462v-.243c0-1.962-.771-2.491-2.667-2.491h-6.061c-2.028,0-2.645.573-2.645,2.689v.992c0,2.115.617,2.687,2.645,2.687h7.141v3.417h-8.464v-1.829l-1.763.419v.308c0,2.094.617,2.688,2.667,2.688h6.634c2.049,0,2.645-.594,2.645-2.688V319.3c0-2.05-.573-2.689-2.645-2.689h-7.164v-3.174Z" transform="translate(-335.529 -311.896)" fill="#fff"/>
        <path id="패스_253" data-name="패스 253" d="M412.808,313.439v2.579l1.9-.352v-1.08c0-2.116-.595-2.689-2.645-2.689H405.69c-2.05,0-2.667.6-2.667,2.689v5.994c0,2.094.617,2.688,2.667,2.688h6.369c2.05,0,2.645-.572,2.645-2.688v-1.344l-1.9-.4v2.844h-7.89v-8.243Z" transform="translate(-386.133 -311.896)" fill="#fff"/>
      </g>
      <path id="패스_254" data-name="패스 254" d="M467.059,323.268h1.9v-5.157h8.97v5.157h1.895V311.9h-1.895v4.651h-8.97V311.9h-1.9Z" transform="translate(-434.144 -305.03)" fill="#fff"/>
      <g id="그룹_567" data-name="그룹 567" transform="translate(50.927 6.866)">
        <path id="패스_255" data-name="패스 255" d="M547.458,313.372c.838,0,1.234.221,1.234,1.169v1.653c0,.969-.4,1.168-1.234,1.168h-6.524v-3.99Zm-8.42,9.9h1.9v-4.43h3.35l4.629,4.43h2.821l-5.2-4.43h1.676c1.653,0,2.4-.617,2.4-2.2V314.1c0-1.587-.749-2.2-2.4-2.2h-9.169Z" transform="translate(-539.038 -311.896)" fill="#fff"/>
      </g>
      <path id="패스_256" data-name="패스 256" d="M600.27,319.015l3.063-5.818,3.063,5.818Zm-4.122,4.254h1.873l1.454-2.8h7.693l1.455,2.8h2.094L604.391,311.9h-2.027Z" transform="translate(-530.93 -305.03)" fill="#fff"/>
      <g id="그룹_568" data-name="그룹 568" transform="translate(82.802 0)">
        <path id="패스_257" data-name="패스 257" d="M667.935,313.924a4.91,4.91,0,0,0,.771,1.41l4.518,6.15h.486l4.341-6.325a8.8,8.8,0,0,0,.683-1.234c-.044.837-.088,1.41-.088,1.674v7.67h1.742V311.9h-1.742l-5.157,7.406-5.532-7.406h-1.542v11.372h1.609V315.6a12.3,12.3,0,0,0-.087-1.674" transform="translate(-666.414 -305.03)" fill="#fff"/>
        <path id="패스_258" data-name="패스 258" d="M744.788,313.924a4.919,4.919,0,0,0,.771,1.41l4.516,6.15h.486l4.342-6.325a8.713,8.713,0,0,0,.682-1.234c-.044.837-.087,1.41-.087,1.674v7.67h1.741V311.9H755.5l-5.157,7.406-5.532-7.406h-1.543v11.372h1.609V315.6a12.339,12.339,0,0,0-.087-1.674" transform="translate(-724.034 -305.03)" fill="#fff"/>
        <path id="패스_259" data-name="패스 259" d="M830.486,294.5c.045,0,.057.031.079.031s.035-.031.054-.031.026.021.038.029a.517.517,0,0,0,.1.021.2.2,0,0,1,.026.043.358.358,0,0,1,.083,0c.023.007.042.029.065.032a.1.1,0,0,0,.114.061c.008.038.046.054.063.063,0,.026-.014.016-.016.035v.135l-.025,0c-.006.012-.019.031-.025.041a.532.532,0,0,1-.11.1h-.105a.863.863,0,0,0-.127-.083c0-.006,0-.022-.006-.036a.113.113,0,0,1-.042-.043.1.1,0,0,0-.039-.056.258.258,0,0,0-.1-.021,1.123,1.123,0,0,1-.084-.094v-.152c0-.019-.016-.007-.016-.027s.046-.055.072-.055" transform="translate(-789.374 -291.986)" fill="#fff"/>
        <path id="패스_260" data-name="패스 260" d="M824.148,294.624h.088c.019,0,.033.016.048.019a.5.5,0,0,1,.027.043c.021,0,.048.03.084.036a.6.6,0,0,0,.074.059.157.157,0,0,0,.04,0c.029.075.1.108.155.143.035.026.058.077.1.111v.185c-.058.039-.124.058-.143.111h-.087c-.029.04-.038.047-.07.047-.056,0-.1-.076-.127-.1v-.134c-.027-.029-.04-.028-.049-.062a.28.28,0,0,0-.105-.041.14.14,0,0,0-.033-.033.289.289,0,0,0,0-.053c0-.007-.019-.011-.026-.026-.023-.045-.066-.081-.066-.129,0-.02.016-.075.017-.117.041,0,.041-.037.05-.046a.036.036,0,0,0,.03-.019" transform="translate(-784.603 -292.08)" fill="#fff"/>
        <path id="패스_261" data-name="패스 261" d="M836.6,294.941c.032,0,.035.02.076.028a.543.543,0,0,0,.069,0,.643.643,0,0,0,.057.074c.039,0,.078.019.116.021.012.014.021.037.04.042.065.017.114.07.185.083a.418.418,0,0,0,0,.057.164.164,0,0,0,.026.025.327.327,0,0,0,.035.093c0,.009-.015.009-.015.029s0,.015.015.018c-.018.035-.009.073-.018.1a1.494,1.494,0,0,1-.2.115h-.151c-.019,0-.008.016-.028.016a.3.3,0,0,1-.1-.068.51.51,0,0,0,0-.085c-.007-.026-.033-.046-.042-.074s0-.054,0-.083a.648.648,0,0,0-.047-.077c-.028-.015-.066-.038-.108-.056,0-.058-.032-.1-.032-.14,0-.02.016-.06.018-.091a.041.041,0,0,0,.018-.017c.03,0,.078-.018.1-.018" transform="translate(-793.91 -292.318)" fill="#fff"/>
        <path id="패스_262" data-name="패스 262" d="M829.026,296.135c.02,0,.008.016.028.017h.1c0,.053.065.059.091.081a.791.791,0,0,1,.072.06h.166c.073.064.151.127.219.193a.235.235,0,0,1,.006.038c.033.032.029.036.029.061,0,.048-.007.041-.035.083a.675.675,0,0,0-.083.053.2.2,0,0,1-.027.042c-.026.021-.059.05-.093.082h-.165c-.007.008,0,0,0,.017s.164.115.2.127a.288.288,0,0,0,.016.109c0,.02-.009.014-.016.022v.15a.229.229,0,0,0-.066.155.472.472,0,0,0-.042.042c0,.046-.017.085-.022.131a.191.191,0,0,0-.057.105.513.513,0,0,0,0,.068l-.043.042a.176.176,0,0,1-.062.158c0,.063-.061.121-.068.194l-.044.042v.12c-.058.009-.037.09-.068.124s-.027.034-.058.057v.118c-.037.013-.04.063-.051.107l-.042.043a.2.2,0,0,1,0,.067c-.007.021-.036.038-.041.058a.563.563,0,0,0-.021.116c-.037.024-.038.087-.048.127a.24.24,0,0,1-.043.026c0,.007-.012.016-.014.03-.014.056,0,.092-.048.127a.442.442,0,0,1-.02.115c-.012.037-.076.1-.076.121v.1c-.052.015-.046.078-.064.127-.019,0-.033.016-.047.022v.1c-.016.017-.039.032-.06.055,0,.057,0,.091-.048.127,0,.046-.018.093-.021.146-.028.044-.061.083-.091.122v.1c-.018.017-.032.03-.032.049s0,.016.015.018c-.016.02-.024.044-.045.067a.624.624,0,0,1-.005.085c-.047.023-.06.095-.08.142-.005,0-.013.019-.026.025,0,.054-.017.109-.02.162a.636.636,0,0,1-.059.059c0,.022,0,.054,0,.084a.188.188,0,0,0-.043.083c0,.02,0,.016.015.019-.032.051-.079.1-.112.155h-.122a.317.317,0,0,0-.061-.035c-.023-.014-.053-.042-.054-.069-.018-.007-.033-.022-.059-.023,0-.011,0-.026,0-.041s-.018-.006-.025-.008a.161.161,0,0,1-.035-.063l-.006-.2c-.03.013-.025.045-.029.059a.1.1,0,0,0-.03.036c-.01,0-.012-.009-.019-.016s-.01,0-.011.016c-.026,0-.026-.015-.047-.015s-.027.016-.047.016-.076-.024-.124-.036a.119.119,0,0,0-.07-.043h-.146c-.019,0,0-.015-.016-.016h-.179c0-.011,0-.015-.018-.015s-.011.016-.032.016-.044-.016-.063-.016-.059.016-.079.016-.042-.016-.063-.016-.028.016-.048.016-.074-.031-.094-.031-.015,0-.017.015a.05.05,0,0,0-.038-.015.1.1,0,0,0-.057.031h-.121c-.018-.038-.026-.031-.049-.031s-.025,0-.035.015a.092.092,0,0,0-.052-.015c-.019,0-.036-.006-.041.014-.01,0,0-.014-.023-.014h-.145c-.019,0-.008.016-.028.016s-.009-.016-.028-.016h-.212a.082.082,0,0,0-.054.031H825.3c-.02,0-.006.006-.01.013-.023,0-.055,0-.085.005l-.01.01a.755.755,0,0,0-.079.016c-.036.009-.077.012-.116.021s-.055.032-.088.042c-.013,0-.039,0-.053,0a.472.472,0,0,0-.072.045h-.146c-.02,0,0-.016-.016-.016h-.115a.186.186,0,0,1-.1-.151c-.052-.039-.106-.077-.172-.12a.575.575,0,0,0,.067-.088c.007,0,.024,0,.038,0a.107.107,0,0,1,.042-.043.464.464,0,0,0,.141-.1c.006,0,.022,0,.038,0s.005-.018.008-.025c.024-.015.083-.03.094-.066h.1c.02,0,.037-.026.059-.03.059-.012.115-.02.173-.032.012,0,.025-.018.045-.018h.161c.021,0,0,.016.017.016s.008-.005.011-.012a.234.234,0,0,1,.044,0c.019,0,.042.016.063.016s.045-.016.064-.016.047,0,.053.014v0a.443.443,0,0,0,.106-.047h.257c.021,0,0,.015.017.015h.173c.019,0,0,.016.016.016h.1c.02,0,.017-.016.036-.016s.044.016.063.016.059-.016.078-.016c.075,0,.09.043.169.049,0,0-.01.014.01.014h.1c.019,0,0-.006.008-.014.032,0,.079-.018.1-.018s.04.032.1.032c.02,0,.043-.016.063-.016s.047.031.067.031h.1c.017.018.03.032.049.032s.012-.016.032-.016.024.026.037.029c.107.029.213.042.321.068.039.023.02.075.063.093,0-.037.013-.077.023-.123a.171.171,0,0,0,.047-.141.375.375,0,0,0,.059-.074c0-.005,0-.022,0-.036a.368.368,0,0,1,.042-.026c0-.022,0-.045.005-.069,0,0,.013.014.013-.006v-.122c.016-.016.033-.04.048-.055v-.1c0-.019.022-.028.028-.04s0-.05.005-.07a.863.863,0,0,1,.089-.151c-.023-.121.084-.119.068-.227a.99.99,0,0,0,.09-.09c.018-.07.022-.148.036-.225,0-.016.021-.03.027-.043s0-.048,0-.068a1.228,1.228,0,0,1,.075-.169.183.183,0,0,0,.005-.037c.032-.016.021-.051.031-.078a.359.359,0,0,0,.079-.143.555.555,0,0,0,.091-.12c0-.005,0-.022,0-.037.087-.071.113-.191.186-.279.015-.02.02-.059.036-.084a.6.6,0,0,1,.092-.1v-.052c-.008-.006,0-.005-.016-.005s-.08.088-.085.091a.333.333,0,0,0-.077.109c-.032.064-.093.093-.094.157a.743.743,0,0,0-.095.159c-.048.03-.055.089-.079.126-.006.013-.035.023-.041.043s-.012.05-.021.068c-.085.148-.193.292-.28.437-.008.012,0,.038-.005.053-.072.047-.047.052-.1.052-.02,0-.083-.032-.13-.035a.167.167,0,0,1-.036-.068c-.048-.017-.084-.119-.126-.152v-.216c0-.02-.017-.026-.028-.039s0-.07-.018-.093v-.185c0-.02,0,0-.016,0v-.171c0-.019.016.01.016-.01s-.016.012-.016-.008v-.326c-.008-.007-.017,0-.017-.021s.017-.043.017-.063-.017-.059-.017-.079.017-.015.017-.034v-.1c0-.02-.017-.015-.017-.035s.017-.027.017-.046,0-.016-.016-.017v-.205h-.026a.5.5,0,0,0-.026.06.244.244,0,0,0-.043.027v.146c0,.02-.023.047-.029.073a1.742,1.742,0,0,1-.1.211.076.076,0,0,1-.026.027c0,.046-.018.085-.021.13a.694.694,0,0,1-.059.059.524.524,0,0,1,0,.053c-.018,0-.027.049-.032.063-.073.051-.05.15-.121.2,0,.038-.017.078-.021.116-.005,0-.014.02-.025.027a.292.292,0,0,1-.063.157.821.821,0,0,1-.021.146c-.005.015-.028.023-.028.043v.163c0,.019-.011,0-.016.011a.365.365,0,0,1,0,.053l-.045.068h-.186a.341.341,0,0,0-.062-.068s0-.022,0-.036c-.07-.082-.063-.238-.186-.292a.047.047,0,0,0-.062-.061.169.169,0,0,0-.03-.051.035.035,0,0,1-.018-.031v-.1c0-.019.03-.033.03-.053v-.341c0-.019-.016-.007-.016-.027s.016-.035.016-.055a.039.039,0,0,0-.012-.036c-.011-.013,0-.07-.018-.093v-.167c0-.02-.015-.035-.033-.053v-.2a.225.225,0,0,1-.019-.02.177.177,0,0,0-.059.068.593.593,0,0,0-.035.21s-.013-.01-.013.01v.148c0,.02-.031.04-.031.061s.016-.005.016.015-.009.006-.015.014a.5.5,0,0,1-.005.067c-.039.04-.017.077-.047.111a.165.165,0,0,0-.042.072v.117c0,.02-.017.017-.017.036s.017.028.017.048-.064.081-.065.1v.166c-.015.016-.046.035-.046.054v.152c-.011,0-.016,0-.016.017s.005.015.016.017v.17c-.018.017-.032.041-.052.062-.014,0-.036,0-.044.019-.012,0-.012-.015-.03-.015s-.012.015-.031.015-.015-.008-.021-.015h-.1c-.015-.027-.057-.066-.078-.1s-.031-.119-.079-.141a1.171,1.171,0,0,1-.036-.132c-.07-.06-.068-.154-.151-.2a2.5,2.5,0,0,1-.085-.4c0-.026-.03-.064-.03-.084s.016-.012.016-.031-.062-.162-.081-.247a.731.731,0,0,1-.082-.1h-.02c-.007.007-.007.005-.007.024s.049.122.049.142-.017.009-.017.028v.226c0,.02.017-.007.017.014v.143c0,.02-.017-.006-.017.014v.38c0,.02,0,.007.015.007s-.015,0-.015.022v.38c0,.02-.016-.006-.016.013v.238c0,.02.016-.005.016.014v.255a.123.123,0,0,0,.032.022v.024c0,.02-.015.011-.015.017s.019.006.091.006c.006,0,.02,0,.021-.016h.34c.02,0,0,.008.01.013a.164.164,0,0,0,.042,0c.038,0,.068-.032.095-.032s.017.016.037.016h.254c.021,0,0-.016.017-.016h.11c.02,0,0-.017.016-.015h.07a.063.063,0,0,0,0,.031.069.069,0,0,0,.029-.031h.422v.031h.107c.02,0,0,.008.01.013a.494.494,0,0,1,.1.021c.017.005.031.021.043.027a.358.358,0,0,0,.131.021c.031.017.014.053.022.07s.045.023.059.042a.182.182,0,0,1,0,.037.131.131,0,0,1,.042.043.435.435,0,0,0,.043.119.083.083,0,0,0,.025,0v.076c-.033.017-.063.048-.1.064-.018-.017-.031-.032-.051-.032s-.025,0-.025.03a.328.328,0,0,0-.093.017c-.021,0-.124-.048-.143-.048s-.059.016-.079.016c-.066,0-.138-.062-.18-.062-.019,0-.025,0-.025.015H826.2c-.02,0,0,.016-.016.016h-.238c-.02,0,0-.009-.011-.014a.266.266,0,0,0-.042,0c-.02,0-.059.016-.079.016s-.02-.016-.039-.016,0,.016-.017.016h-.145c-.02,0-.029.014-.038.032h-.136c-.02,0-.027.017-.04.028s-.038,0-.062.019c-.008,0-.008-.015-.028-.015s-.017.006-.021.012c-.112,0-.166.062-.258.068a.015.015,0,0,0-.007.014h-.23c-.019,0-.01-.015-.03-.015s-.019.015-.039.015a.863.863,0,0,1-.155-.116.289.289,0,0,0-.035-.115c-.011-.016-.048-.023-.06-.042-.058-.09-.112-.178-.173-.268a.321.321,0,0,0-.03-.063.1.1,0,0,1-.018-.051c0-.019.016-.043.016-.063,0-.067-.033-.046-.033-.078a.47.47,0,0,1,.028-.076.37.37,0,0,0,.007-.086c.007,0,.014-.019.026-.025s0-.038.006-.054.012.008.012-.012a.1.1,0,0,0-.031-.057c0-.009.015.006.015-.013v-.2c0-.02.032-.049.032-.069v-.118c-.008-.006-.016,0-.016-.021s.023-.076.035-.123c0,0,.012.014.012-.006v-.153c0-.019.009,0,.017-.007v-.4c0-.02-.017-.006-.017-.027s.016-.007.016-.026v-.247c0-.019-.016-.015-.016-.035s.016-.015.016-.035v-.216c0-.02,0,0-.015,0v-.123c0-.02.007,0,.013-.008s0-.042,0-.054.029-.018.029-.038v-.12c0-.02.008,0,.013-.009,0-.031.019-.054.021-.085.015-.011.035-.023.042-.041.023-.054.033-.111.053-.165.029-.033.061-.072.093-.114h.025c.019,0,.105.048.157.065.02.015.026.048.043.059a.137.137,0,0,0,.039,0c.008.026.035.041.044.049a.731.731,0,0,1,.11.095.283.283,0,0,1,.038.117l.046.024v.1c0,.019.006,0,.012.007.01.03,0,.063.032.08a.382.382,0,0,0,.048.158.424.424,0,0,0,.032.079.433.433,0,0,1,0,.084c.041.023.038.075.063.11a.354.354,0,0,1,.043.058.3.3,0,0,1,0,.084c.03.014.045.065.068.1h.035a.086.086,0,0,0,.019-.02c0-.031.019-.062.021-.1,0,0,.014.012.014-.007v-.12a.573.573,0,0,0,.06-.119.236.236,0,0,0,.006-.055.048.048,0,0,0,.025-.025.642.642,0,0,0,.037-.134c.007,0,.015-.018.026-.024,0-.022,0-.045,0-.069,0,0,.014.013.014-.007v-.2c.016-.032.054-.054.059-.086.011-.054.011-.111.021-.163a.311.311,0,0,1,.027-.059.46.46,0,0,0,.005-.085s.013.014.013-.007v-.136a.619.619,0,0,0,.05-.065h.155v.025c.007.007,0,.006.016.006s.035-.016.056-.016c.038,0,.043,0,.062.031.006,0,.009,0,.011-.014h.028c.008.016.033.016.046.034a.051.051,0,0,1,0,.021c.021.012.076.055.079.079a.154.154,0,0,1,.074.057.279.279,0,0,1,.022.086.533.533,0,0,0,.056.1c.006.012-.014.062.019.077v.119c0,.02.014.029.033.04a.083.083,0,0,0-.016.052c0,.02.016.043.016.063s-.016.02-.016.039,0,.015.016.017v.121a.093.093,0,0,0,.031.054v.244c0,.02.016-.006.016.014v.1c0,.02,0,.006.016.009a.049.049,0,0,0-.016.037c0,.02.016.066.021.1.011-.022.044-.041.055-.069a1.044,1.044,0,0,0,.065-.192c0-.02,0-.023-.015-.026a.3.3,0,0,1,.061-.082c0-.022,0-.046,0-.069a.067.067,0,0,0,.032-.048c.063,0,.04-.071.047-.11a.274.274,0,0,0,.041-.041c.017-.155.126-.242.174-.377a.334.334,0,0,0,.006-.071.284.284,0,0,0,.109-.189c.024-.018.056-.019.08-.036h.1c.02,0,0,.009.01.014l.07.005a.325.325,0,0,0,.079.064.119.119,0,0,1,0,.038c.014.006.04,0,.058.008s.04.034.059.043a.138.138,0,0,0,.053.021l.032.1c.009.027,0,.062.031.078a.14.14,0,0,0,.015.047c.009.011-.012.063.021.078v.23c0,.019.013.029.032.038v.277c0,.019.005,0,.012.008,0,.039.02.087.02.107s-.016.06-.016.079.016.059.016.079-.016.059-.016.079.016.034.015.056c.007.007,0,.006.016.006s.122-.051.128-.122c.021-.019.081-.051.063-.094.034-.028.063-.077.09-.09,0-.022.018-.045.021-.069a.149.149,0,0,0,.062-.11c.016-.019.039-.034.059-.057,0-.016,0-.04,0-.053.012-.038.04-.043.048-.1a.133.133,0,0,1,.056-.038c.012-.006.015-.03.024-.042.021-.027.054-.051.046-.093.032-.016.05-.073.066-.1a.159.159,0,0,0,.092-.125.48.48,0,0,0,.1-.143.155.155,0,0,0,.062-.05h.021c.02,0,.006.009.013.016s.035-.015.028-.046c.073,0,.084-.054.144-.08h.165c.008-.008,0-.016.021-.016s.076.063.095.063.018-.015.032-.022v-.019c-.07-.028-.078-.091-.155-.1a.462.462,0,0,0-.034-.046v-.117a.163.163,0,0,1-.1-.127c-.033-.035-.052-.117-.123-.133v-.075c.019-.021.05-.045.048-.08.026,0,.051-.017.07-.017" transform="translate(-784.745 -293.213)" fill="#fff"/>
        <path id="패스_263" data-name="패스 263" d="M817.531,285.174a4.647,4.647,0,1,0,4.647,4.648,4.653,4.653,0,0,0-4.647-4.648m0,10.008a5.361,5.361,0,1,1,5.362-5.361,5.367,5.367,0,0,1-5.362,5.361" transform="translate(-775.695 -284.46)" fill="#fff"/>
      </g>
      <rect id="사각형_423" data-name="사각형 423" width="116.008" height="0.577" transform="translate(0 21.332)" fill="#fff"/>
      <g id="그룹_569" data-name="그룹 569" transform="translate(21.263 25.254)">
        <path id="패스_264" data-name="패스 264" d="M421.074,385.841v2.845a1.627,1.627,0,0,1,1.518-.875,1.519,1.519,0,0,1,1.451.769,2.415,2.415,0,0,1,.261,1.182v3.017h-.577v-3.114a1.346,1.346,0,0,0-.337-.975,1.368,1.368,0,0,0-1.979.158,1.878,1.878,0,0,0-.336,1.153v2.777H420.5v-6.938Z" transform="translate(-420.497 -385.725)" fill="#fff"/>
        <path id="패스_265" data-name="패스 265" d="M448.757,396.271a2.383,2.383,0,0,0-.375-1.345,1.486,1.486,0,0,0-2.5,0,2.6,2.6,0,0,0,0,2.691,1.485,1.485,0,0,0,2.5,0,2.386,2.386,0,0,0,.375-1.346m-1.624-2.557a2.029,2.029,0,0,1,1.7.8,2.825,2.825,0,0,1,.548,1.759,2.782,2.782,0,0,1-.548,1.749,2.2,2.2,0,0,1-3.4,0,2.78,2.78,0,0,1-.548-1.749,2.823,2.823,0,0,1,.548-1.759,2.028,2.028,0,0,1,1.7-.8" transform="translate(-438.781 -391.628)" fill="#fff"/>
        <path id="패스_266" data-name="패스 266" d="M472.441,393.858l.029.711.019.02a1.615,1.615,0,0,1,1.509-.875,1.693,1.693,0,0,1,.985.289,1.494,1.494,0,0,1,.581.769,1.937,1.937,0,0,1,1.663-1.057,1.511,1.511,0,0,1,1.442.769,2.426,2.426,0,0,1,.259,1.182v3.017h-.576v-3.114a1.354,1.354,0,0,0-.337-.976,1.368,1.368,0,0,0-1.98.159,1.879,1.879,0,0,0-.336,1.153v2.777h-.577v-3.114a1.353,1.353,0,0,0-.336-.976,1.368,1.368,0,0,0-1.98.159,1.879,1.879,0,0,0-.336,1.153v2.777h-.577v-3.738c0-.179-.017-.541-.048-1.086Z" transform="translate(-458.996 -391.628)" fill="#fff"/>
        <path id="패스_267" data-name="패스 267" d="M510.105,395.874h3.1a1.93,1.93,0,0,0-.435-1.163,1.448,1.448,0,0,0-1.141-.471,1.373,1.373,0,0,0-1.093.5,2.041,2.041,0,0,0-.435,1.134m3.729.528h-3.729a2.219,2.219,0,0,0,.4,1.336,1.506,1.506,0,0,0,1.268.558,1.353,1.353,0,0,0,.9-.327,1.438,1.438,0,0,0,.5-.826h.605a2.043,2.043,0,0,1-2.182,1.681,1.866,1.866,0,0,1-1.595-.787,2.894,2.894,0,0,1-.519-1.769,2.846,2.846,0,0,1,.538-1.768,1.919,1.919,0,0,1,1.615-.789,1.978,1.978,0,0,1,1.711.779,3.262,3.262,0,0,1,.49,1.912" transform="translate(-487.213 -391.626)" fill="#fff"/>
        <path id="패스_268" data-name="패스 268" d="M553.948,396.271a2.385,2.385,0,0,0-.375-1.345,1.485,1.485,0,0,0-2.5,0,2.6,2.6,0,0,0,0,2.691,1.485,1.485,0,0,0,2.5,0,2.388,2.388,0,0,0,.375-1.346m-1.624-2.557a2.028,2.028,0,0,1,1.7.8,2.824,2.824,0,0,1,.547,1.759,2.781,2.781,0,0,1-.547,1.749,2.2,2.2,0,0,1-3.4,0,2.781,2.781,0,0,1-.548-1.749,2.824,2.824,0,0,1,.548-1.759,2.028,2.028,0,0,1,1.7-.8" transform="translate(-517.649 -391.628)" fill="#fff"/>
        <path id="패스_269" data-name="패스 269" d="M576.585,392.433h-.577v-4.3h-.97v-.529h.97V386.58a1.288,1.288,0,0,1,.274-.912,1.18,1.18,0,0,1,.889-.289,4.653,4.653,0,0,1,.548.106v.462a2.275,2.275,0,0,0-.356-.038q-.538,0-.682.278a2.092,2.092,0,0,0-.1.808v.615h1.095v.529h-1.095Z" transform="translate(-536.365 -385.379)" fill="#fff"/>
        <path id="패스_270" data-name="패스 270" d="M608.421,395.06a1.159,1.159,0,0,1,.568-1.048,2.21,2.21,0,0,1,1.2-.3q1.663,0,1.758,1.336h-.625q-.076-.807-1.191-.807a1.428,1.428,0,0,0-.74.172.671.671,0,0,0-.346.606q0,.442.625.644l1.614.461a1.106,1.106,0,0,1,.817,1.125,1.352,1.352,0,0,1-.634,1.191,2.4,2.4,0,0,1-1.393.384,2.138,2.138,0,0,1-1.211-.327,1.3,1.3,0,0,1-.606-1.134h.626q.056.933,1.335.933a1.558,1.558,0,0,0,.865-.231.825.825,0,0,0,.394-.73.734.734,0,0,0-.481-.683,6.269,6.269,0,0,0-1.048-.3,3.405,3.405,0,0,1-1.047-.385,1.028,1.028,0,0,1-.481-.913" transform="translate(-561.272 -391.628)" fill="#fff"/>
      </g>
      <rect id="사각형_424" data-name="사각형 424" width="0.577" height="6.939" transform="translate(74.486 25.371)" fill="#fff"/>
      <g id="그룹_570" data-name="그룹 570" transform="translate(77.437 27.339)">
        <path id="패스_271" data-name="패스 271" d="M645.6,395.874h3.1a1.924,1.924,0,0,0-.435-1.163,1.448,1.448,0,0,0-1.141-.471,1.374,1.374,0,0,0-1.093.5,2.032,2.032,0,0,0-.435,1.134m3.728.528H645.6a2.214,2.214,0,0,0,.4,1.336,1.51,1.51,0,0,0,1.269.558,1.354,1.354,0,0,0,.9-.327,1.437,1.437,0,0,0,.5-.826h.606a2.045,2.045,0,0,1-2.182,1.681,1.865,1.865,0,0,1-1.594-.787,2.9,2.9,0,0,1-.519-1.769,2.845,2.845,0,0,1,.538-1.768,1.917,1.917,0,0,1,1.615-.789,1.979,1.979,0,0,1,1.711.779,3.262,3.262,0,0,1,.49,1.912" transform="translate(-644.973 -393.711)" fill="#fff"/>
        <path id="패스_272" data-name="패스 272" d="M671.366,395.874h3.1a1.928,1.928,0,0,0-.435-1.163,1.447,1.447,0,0,0-1.141-.471,1.373,1.373,0,0,0-1.093.5,2.039,2.039,0,0,0-.435,1.134m3.729.528h-3.729a2.215,2.215,0,0,0,.4,1.336,1.509,1.509,0,0,0,1.269.558,1.354,1.354,0,0,0,.9-.327,1.429,1.429,0,0,0,.494-.826h.606a2.043,2.043,0,0,1-2.182,1.681,1.866,1.866,0,0,1-1.595-.787,2.9,2.9,0,0,1-.52-1.769,2.844,2.844,0,0,1,.539-1.768,1.917,1.917,0,0,1,1.615-.789,1.979,1.979,0,0,1,1.711.779,3.264,3.264,0,0,1,.49,1.912" transform="translate(-664.292 -393.711)" fill="#fff"/>
        <path id="패스_273" data-name="패스 273" d="M697.675,396.155a2.751,2.751,0,0,0,.346,1.48,1.431,1.431,0,0,0,1.3.663,1.166,1.166,0,0,0,1.106-.72,3.106,3.106,0,0,0,.279-1.394,2.434,2.434,0,0,0-.327-1.316,1.258,1.258,0,0,0-1.144-.625,1.378,1.378,0,0,0-1.2.586,2.274,2.274,0,0,0-.356,1.327m0,1.778v2.6H697.1v-5.585c0-.179-.016-.541-.047-1.085h.595l.029.711.019.019a1.694,1.694,0,0,1,.712-.654,2.081,2.081,0,0,1,.942-.22,1.722,1.722,0,0,1,1.528.8,3.573,3.573,0,0,1,0,3.479,1.678,1.678,0,0,1-1.5.837,1.938,1.938,0,0,1-1.683-.894Z" transform="translate(-684.019 -393.713)" fill="#fff"/>
      </g>
    </g>
  </g>
</svg>
