<svg xmlns="http://www.w3.org/2000/svg" width="360" height="180" viewBox="0 0 360 180">
  <g id="img_main_logo_fontana" transform="translate(-3381 -1615)">
    <g id="area" transform="translate(3381 1615)" fill="rgba(255,255,255,0)" stroke="#fff" stroke-width="1" opacity="0.1">
      <rect width="360" height="180" stroke="none"/>
      <rect x="0.5" y="0.5" width="359" height="179" fill="none"/>
    </g>
    <g id="logo" transform="translate(3496 1687)" opacity="0.5">
      <g id="그룹_394" data-name="그룹 394" transform="translate(0 0.252)">
        <path id="패스_77" data-name="패스 77" d="M164.464,341.084l-.005-.656h2.3v-17.64h-2.3l.005-.654h13.85l.228,5.019h-.516c-.88-3.433-1.361-4.366-4.91-4.366h-3.605v8.254c2.526-.027,3.664-.116,3.948-2.949h.656v6.979h-.631c-.2-2.9-1.33-3.321-3.973-3.324v8.681h2.445l0,.656Z" transform="translate(-164.459 -322.134)" fill="#fff"/>
        <path id="패스_78" data-name="패스 78" d="M251.311,379.23c0,2.385.032,5.391,2.9,5.384s2.9-3,2.9-5.384c-.005-2.353-.031-5.362-2.9-5.362s-2.9,3.009-2.9,5.362m8.375,0a5.494,5.494,0,1,1-5.477-5.928,5.665,5.665,0,0,1,5.477,5.928" transform="translate(-236.491 -365.87)" fill="#fff"/>
        <path id="패스_79" data-name="패스 79" d="M331.978,374.24l-1.561,0v-.651h.6a14.911,14.911,0,0,0,1.594-.056,9.573,9.573,0,0,0,1.586-.223v3.005h.059c.795-1.791,1.9-3.005,3.97-3.005,1.024,0,3.382.223,3.382,2.832v8.032l1.53,0v.653l-5.223,0v-.656l1.477,0v-7.66c0-2.07-.652-2.383-1.791-2.383-1.927,0-3.4,2.64-3.4,4.764v5.275h1.534l-.005.656h-5.3v-.656h1.561Z" transform="translate(-306.309 -365.874)" fill="#fff"/>
        <path id="패스_80" data-name="패스 80" d="M420.1,354.036h1.674l0-3.487a13.376,13.376,0,0,0,2.157-.115v3.6h2.494v.653h-2.494v8.683c0,.512,0,1.274,1.078,1.274.736,0,1.132-.5,1.589-1.048l.452.312a3.572,3.572,0,0,1-3.061,1.726c-2.043,0-2.273-1.1-2.273-2.463V354.69H420.1Z" transform="translate(-382.967 -346.324)" fill="#fff"/>
        <path id="패스_81" data-name="패스 81" d="M482.346,378.887c-1.844.028-4.991.341-4.991,2.949a2.07,2.07,0,0,0,2.186,2.24,2.974,2.974,0,0,0,2.183-.823,1.965,1.965,0,0,0,.622-1.731Zm4.288,3.97a2.414,2.414,0,0,1-2.417,2.328,1.833,1.833,0,0,1-1.839-1.73,4.845,4.845,0,0,1-3.831,1.73c-1.791,0-3.319-.682-3.319-2.779.083-2.638,2.776-4.116,7.117-4.116v-2.7c0-1.329-1.046-1.731-2.041-1.731-.623,0-2.638.2-2.638,1.024,0,.223.847.367.847,1.307a1.109,1.109,0,0,1-1.159,1.193,1.2,1.2,0,0,1-1.191-1.361c0-1.027,1.158-2.725,4.535-2.725,3.861,0,3.861,1.639,3.861,2.778v6.749c0,.859,0,1.3.6,1.3.566,0,.851-.79.991-1.276Z" transform="translate(-430.084 -365.868)" fill="#fff"/>
        <path id="패스_82" data-name="패스 82" d="M561.543,374.24l-1.558,0v-.651h.6a14.879,14.879,0,0,0,1.591-.056,9.5,9.5,0,0,0,1.588-.223v3.005h.056c.8-1.791,1.9-3.005,3.976-3.005,1.021,0,3.376.223,3.376,2.832v8.028H572.7v.656l-5.221,0v-.653h1.47v-7.656c0-2.07-.65-2.383-1.787-2.383-1.93,0-3.4,2.64-3.4,4.764v5.275h1.535v.656h-5.31v-.656l1.558,0Z" transform="translate(-502.528 -365.874)" fill="#fff"/>
        <path id="패스_83" data-name="패스 83" d="M661.669,378.887c-1.843.028-4.994.341-4.994,2.949a2.071,2.071,0,0,0,2.185,2.24,2.979,2.979,0,0,0,2.184-.818,1.97,1.97,0,0,0,.625-1.736Zm4.287,3.97a2.413,2.413,0,0,1-2.415,2.328,1.833,1.833,0,0,1-1.844-1.73,4.85,4.85,0,0,1-3.828,1.73c-1.792,0-3.325-.678-3.325-2.779.085-2.638,2.785-4.116,7.125-4.116v-2.7c0-1.329-1.051-1.727-2.04-1.727-.633,0-2.645.2-2.645,1.02,0,.223.856.367.856,1.307a1.116,1.116,0,0,1-1.166,1.193c-.772,0-1.19-.569-1.19-1.366,0-1.022,1.16-2.72,4.539-2.72,3.862,0,3.856,1.639,3.862,2.778l-.005,6.751c.005.857.005,1.3.6,1.3.564,0,.85-.79.992-1.276Z" transform="translate(-583.35 -365.868)" fill="#fff"/>
      </g>
      <path id="패스_84" data-name="패스 84" d="M749.389,331.908l-2.33-7.687h-.051l-2.5,7.687ZM739.142,339.6v-.656l2.241.005,6.159-18.551h1.109l5.847,18.551,1.983-.005v.654h-7.151v-.654h2.3l-1.958-6.246h-5.419l-2.013,6.246,2.437.005v.649Z" transform="translate(-655.658 -320.398)" fill="#fff"/>
      <g id="그룹_395" data-name="그룹 395" transform="translate(0 4.363)">
        <path id="패스_85" data-name="패스 85" d="M867.842,375.967h.058c.5-1.278,1.642-2.666,3.206-2.666a1.541,1.541,0,0,1,1.73,1.585c0,.708-.739,1.052-1.336,1.052a1.243,1.243,0,0,1-1.107-1.135,5.346,5.346,0,0,1,.117-.593c0-.173-.172-.173-.256-.173a3.34,3.34,0,0,0-1.621,1.677,7.253,7.253,0,0,0-.711,3.061v5.387h2.187v.656h-6.328l0-.656h1.93v-9.926l-1.928,0v-.651h.879a13.392,13.392,0,0,0,3.181-.28Z" transform="translate(-762.191 -369.979)" fill="#fff"/>
        <path id="패스_86" data-name="패스 86" d="M932,354.036h1.671V350.55a13.407,13.407,0,0,0,2.157-.115v3.6h2.5v.653l-2.5.005v8.677c0,.51,0,1.274,1.079,1.274.738,0,1.134-.5,1.589-1.048l.454.312a3.578,3.578,0,0,1-3.062,1.73c-2.047,0-2.273-1.107-2.273-2.466V354.7L932,354.689Z" transform="translate(-820.502 -350.435)" fill="#fff"/>
        <path id="패스_87" data-name="패스 87" d="M993.8,377.53l0-.963a2.372,2.372,0,0,0-2.61-2.7,2.87,2.87,0,0,0-2.523,1.789,6.961,6.961,0,0,0-.284,1.879Zm2.554,3.771a4.7,4.7,0,0,1-4.995,3.884,5.651,5.651,0,0,1-5.68-5.478c0-3.341,2.218-6.4,5.6-6.4a4.866,4.866,0,0,1,5.107,5.047l-8.032,0,0,1.158c0,2.809.367,5.078,3.461,5.078a4.335,4.335,0,0,0,3.913-3.289Z" transform="translate(-866.385 -369.981)" fill="#fff"/>
        <path id="패스_88" data-name="패스 88" d="M219.8,510.984h-.166l-.146,1.055h-3.5c1.623-1.935,3.606-2.381,3.606-4.083a1.959,1.959,0,0,0-2.121-1.973c-1.084,0-2.042.531-2.042,1.771-.029.387.234.832.586.832a.469.469,0,0,0,.518-.494c0-.31-.225-.434-.489-.434-.215,0-.322-.039-.322-.271a1.425,1.425,0,0,1,1.5-1.248c.977,0,1.437.783,1.437,1.714,0,2.535-2.717,3.182-3.363,5h4.272Zm-9.382-1.857h1.113c1.33,0,1.564,1.074,1.564,1.809,0,1.19-.431,1.878-1.759,1.878-.538,0-1.427-.339-1.427-.794a.091.091,0,0,1,.1-.1c.079,0,.138.029.226.029a.48.48,0,0,0,.489-.475.462.462,0,0,0-.518-.512.614.614,0,0,0-.586.609c0,1.056,1.036,1.394,1.866,1.394,1.075,0,2.55-.687,2.55-2.022a1.962,1.962,0,0,0-1.994-1.9v-.019c.567-.116,1.7-.377,1.7-1.587,0-.986-.987-1.46-1.975-1.46-.762,0-1.7.367-1.7,1.238a.513.513,0,0,0,.51.532.436.436,0,1,0-.029-.871,1.308,1.308,0,0,0-.157.019c-.029,0-.029-.038-.029-.067,0-.222.547-.7,1.289-.7.87,0,1.213.5,1.213,1.306,0,1.423-.636,1.529-1.72,1.529h-.724Zm-5.816,3.937a4.5,4.5,0,0,0,3.987-4.354c0-1.461-.636-2.727-2.219-2.727a2.2,2.2,0,0,0-2.218,2.273,1.968,1.968,0,0,0,1.975,2.139,1.767,1.767,0,0,0,1.5-.88h.019c-.224,2.07-1.065,3.057-3.088,3.395Zm.488-4.78c0-.851.117-2.148,1.28-2.148,1.213,0,1.28,1.306,1.28,2.594,0,.145-.019.28-.029.407a1.509,1.509,0,0,1-1.348,1.1c-1.017,0-1.173-1.015-1.183-1.954M201.4,512.7h-.918v.155h2.755V512.7h-.9v-6.6h-.4a9.662,9.662,0,0,1-2.2,1.587v.165a9.424,9.424,0,0,1,1.554-.726c.1,0,.108.1.108.232Zm-5.993,2.061a2.25,2.25,0,0,0,.93-1.732c0-.552-.265-1.045-.9-1.045a.508.508,0,0,0-.568.5.419.419,0,0,0,.441.436c.234,0,.439-.106.439-.367a.468.468,0,0,0-.195-.4l.019-.019c.479.068.606.494.606.861a2.033,2.033,0,0,1-.88,1.655Zm-2.668-3.56c0,.841-.039,1.615-1.134,1.615s-1.134-.775-1.134-1.615v-.755c0-.842.04-1.615,1.134-1.615s1.134.773,1.134,1.615Zm-3.206-.378a2.074,2.074,0,1,0,2.073-2.148,2.083,2.083,0,0,0-2.073,2.148m-5.1,1.877h-.772v.155H186V512.7h-.743v-2.728c.176-.329.6-1.141,1.418-1.141.312,0,.576.173.576.706V512.7h-.772v.155h2.366V512.7h-.772v-2.931c0-.571-.294-1.093-1.339-1.093a1.723,1.723,0,0,0-1.457.986h-.019v-.986c-.176.213-.352.213-.822.213h-.772v.155h.772Zm-2.922-1.963V512a1,1,0,0,1-1.056.735c-.624,0-.713-.407-.713-.948,0-1.036.891-1.055,1.6-1.055Zm.822-.939c0-.745-.88-1.122-1.623-1.122-.977,0-1.5.541-1.5,1.036,0,.329.155.542.429.542a.421.421,0,0,0,.45-.406c0-.436-.322-.329-.322-.561,0-.349.665-.455.948-.455.372,0,.8.106.8.56v1.19h-.185c-1.008,0-2.464.271-2.464,1.354,0,.659.46,1.036,1.222,1.036a1.6,1.6,0,0,0,1.418-.6h.019a.821.821,0,0,0,.86.6.927.927,0,0,0,.86-.522l-.107-.078c-.146.2-.284.387-.508.387-.264,0-.293-.242-.293-.426Zm-5.845,2.9h-.782v.155h2.385V512.7h-.782V505.74a1.032,1.032,0,0,1-.82.242h-.782v.154h.782Zm-3-5.766a.5.5,0,1,0,.5-.495.5.5,0,0,0-.5.495m.088,5.766h-.782v.155h2.386V512.7H174.4v-4.024a1.144,1.144,0,0,1-.822.213h-.782v.155h.782Zm-8.259-.8c0,.638-.088.8-.606.8h-.253v.155h2.013V512.7h-.391c-.517,0-.605-.165-.605-.8v-5.214h.019l2.424,6.017h.088l2.385-6.134h.019V512.7h-.918v.155h2.776V512.7h-.86v-6.5h.86v-.156H170.41l-2.013,5.147-2.052-5.147h-1.887v.156h.86Z" transform="translate(-164.458 -483.179)" fill="#fff"/>
      </g>
    </g>
  </g>
</svg>
