<svg xmlns="http://www.w3.org/2000/svg" width="360" height="180" viewBox="0 0 360 180">
  <g id="img_main_logo_porcelanosa" transform="translate(-3381 -1705)">
    <g id="area" transform="translate(3381 1705)" fill="rgba(255,255,255,0)" stroke="#fff" stroke-width="1" opacity="0.1">
      <rect width="360" height="180" stroke="none"/>
      <rect x="0.5" y="0.5" width="359" height="179" fill="none"/>
    </g>
    <g id="logo" transform="translate(3486 1787)" opacity="0.5">
      <path id="패스_241" data-name="패스 241" d="M8.945,22.567c.9-.315.988-.737.988-1.767V9.125c0-1.031-.084-1.452-.988-1.767V7.253h6.2a4.158,4.158,0,0,1,4.313,3.933,4.474,4.474,0,0,1-4.839,4.671,6.582,6.582,0,0,1-2.671-.442V20.8c0,1.03.084,1.452,1.41,1.767v.105H8.945Zm8.371-11.339a2.978,2.978,0,0,0-3.3-3.134H11.953v6.395a3.953,3.953,0,0,0,1.914.463A3.446,3.446,0,0,0,17.316,11.228Z" transform="translate(-8.945 -6.937)" fill="#fff"/>
      <path id="패스_242" data-name="패스 242" d="M29.163,14.631c0-4.249,3.682-7.826,8.5-7.826a7.986,7.986,0,0,1,8.163,8.1c0,4.249-3.682,7.826-8.5,7.826A7.986,7.986,0,0,1,29.163,14.631Zm14.389.252c0-3.535-2.336-7.3-6.269-7.3-3.618,0-5.848,2.629-5.848,7,0,3.555,2.334,7.341,6.311,7.341C41.343,21.93,43.552,19.259,43.552,14.883Z" transform="translate(-17.743 -6.742)" fill="#fff"/>
      <path id="패스_243" data-name="패스 243" d="M73.775,22.5v.105a5.661,5.661,0,0,1-1.115.063,2.984,2.984,0,0,1-2.84-1.6L67.233,16.8c-.5-.841-.884-1.241-1.683-1.241H64.015V20.8c0,1.03.084,1.452.988,1.767v.105h-4v-.105c.9-.315.988-.737.988-1.767V9.125c0-1.031-.084-1.452-.988-1.767V7.253h5.469c2.314,0,4.543,1.43,4.543,3.534a4.481,4.481,0,0,1-3.281,4.208C70.262,16.193,71.461,21.579,73.775,22.5ZM68.811,11.06c0-2.124-1.262-2.966-3.513-2.966H64.015v6.564a4.568,4.568,0,0,0,1.115.084A3.474,3.474,0,0,0,68.811,11.06Z" transform="translate(-31.601 -6.937)" fill="#fff"/>
      <path id="패스_244" data-name="패스 244" d="M82.35,14.672c0-4.691,4.481-7.867,8.457-7.867a10.773,10.773,0,0,1,5.638,1.662v3.218h-.106a5.414,5.414,0,0,0-5.616-4.039c-2.966,0-6.1,1.936-6.1,7.026,0,4.8,3.45,7.2,6.395,7.2a5.538,5.538,0,0,0,5.469-3.83h.106v3.135a10.462,10.462,0,0,1-5.785,1.557C86.431,22.73,82.35,19.6,82.35,14.672Z" transform="translate(-40.889 -6.742)" fill="#fff"/>
      <path id="패스_245" data-name="패스 245" d="M117.2,8.01h-3.871v5.869h2.818c1.073,0,1.515-.042,1.852-.609h.105v2.062H118c-.337-.568-.779-.611-1.852-.611h-2.818v6.711a6.564,6.564,0,0,0,2.629.378c2.588,0,3.6-.337,4.27-1.326h.085l-.421,2.188h-9.571v-.105c.9-.315.988-.737.988-1.767V9.125c0-1.031-.084-1.452-.988-1.767V7.253h9.087V8.62h-.127C118.908,8.052,118.424,8.01,117.2,8.01Z" transform="translate(-53.064 -6.937)" fill="#fff"/>
      <path id="패스_246" data-name="패스 246" d="M135.189,21.81c2.376,0,3.386-.337,4.059-1.326h.085l-.421,2.188h-9.15v-.105c.9-.315.988-.737.988-1.767V9.125c0-1.031-.084-1.452-.988-1.767V7.253h4v.105c-.9.315-.988.736-.988,1.767V21.431A6.083,6.083,0,0,0,135.189,21.81Z" transform="translate(-61.522 -6.937)" fill="#fff"/>
      <path id="패스_247" data-name="패스 247" d="M161.914,22.323v.105H158.17v-.105c.61-.21.673-.526.378-1.219L157.16,17.7h-6.142L149.629,21.1c-.294.694-.231,1.009.379,1.219v.105h-2.672v-.105A1.979,1.979,0,0,0,148.62,21l6.058-14.305h.126L160.631,21A2.02,2.02,0,0,0,161.914,22.323ZM156.8,16.854l-2.714-6.627-2.714,6.627Z" transform="translate(-69.17 -6.693)" fill="#fff"/>
      <path id="패스_248" data-name="패스 248" d="M187.266,18.928v-9.8c0-1.031-.084-1.452-.988-1.767V7.253H189.2v.105c-.9.315-.988.736-.988,1.767V22.987h-.085L176.98,9.756V20.8c0,1.03.085,1.452.989,1.767v.105h-2.924v-.105c.9-.315.988-.737.988-1.767V9.125c0-1.031-.084-1.452-.988-1.767V7.253h2.334Z" transform="translate(-81.228 -6.937)" fill="#fff"/>
      <path id="패스_249" data-name="패스 249" d="M202.249,14.631c0-4.249,3.681-7.826,8.5-7.826a7.986,7.986,0,0,1,8.163,8.1c0,4.249-3.682,7.826-8.5,7.826A7.985,7.985,0,0,1,202.249,14.631Zm14.389.252c0-3.535-2.336-7.3-6.269-7.3-3.618,0-5.848,2.629-5.848,7,0,3.555,2.335,7.341,6.311,7.341C214.429,21.93,216.638,19.259,216.638,14.883Z" transform="translate(-93.066 -6.742)" fill="#fff"/>
      <path id="패스_250" data-name="패스 250" d="M233.572,21.047V17.87h.106c.609,2.1,1.872,3.808,4.144,3.85a2.616,2.616,0,0,0,2.9-2.756,2.958,2.958,0,0,0-1.956-2.945l-2.083-1.052c-1.851-.947-2.84-1.914-2.882-4.018-.042-2.693,2.125-4.145,4.8-4.145a4.6,4.6,0,0,1,3.345,1.178v2.378h-.106a3.5,3.5,0,0,0-3.45-2.735,2.51,2.51,0,0,0-2.756,2.629c0,1.41.61,2.083,2,2.777l2.167,1.095c2.02,1.01,2.777,2.167,2.777,3.87a4.918,4.918,0,0,1-5.028,4.734A6.1,6.1,0,0,1,233.572,21.047Z" transform="translate(-106.697 -6.742)" fill="#fff"/>
      <path id="패스_251" data-name="패스 251" d="M263.283,22.323v.105h-3.744v-.105c.61-.21.673-.526.378-1.219L258.529,17.7h-6.142L251,21.1c-.295.694-.232,1.009.378,1.219v.105h-2.672v-.105A1.979,1.979,0,0,0,249.989,21l6.058-14.305h.126L262,21A2.021,2.021,0,0,0,263.283,22.323Zm-5.111-5.469-2.714-6.627-2.714,6.627Z" transform="translate(-113.283 -6.693)" fill="#fff"/>
    </g>
  </g>
</svg>
