<svg xmlns="http://www.w3.org/2000/svg" width="360" height="180" viewBox="0 0 360 180">
  <g id="img_main_logo_axent" transform="translate(-3954 -1517)">
    <g id="area" transform="translate(3954 1517)" fill="rgba(255,255,255,0)" stroke="#fff" stroke-width="1" opacity="0.1">
      <rect width="360" height="180" stroke="none"/>
      <rect x="0.5" y="0.5" width="359" height="179" fill="none"/>
    </g>
    <g id="logo" transform="translate(4090 1593)" opacity="0.5">
      <g id="그룹_527" data-name="그룹 527" transform="translate(0 0)">
        <path id="패스_94" data-name="패스 94" d="M686.307,505.694l2.21,5.564h-4.424Zm-.79-7.162L677.779,518h3.634l1.336-3.375h7.107L691.2,518h3.635l-7.738-19.472Z" transform="translate(-677.779 -498.532)" fill="#fff"/>
        <path id="패스_95" data-name="패스 95" d="M1037.906,498.532V518h12.761V514.63h-9.387v-4.673h7.3v-3.376h-7.3v-4.673h9.387v-3.376Z" transform="translate(-996.659 -498.532)" fill="#fff"/>
        <path id="패스_96" data-name="패스 96" d="M1328.23,498.532v3.376h5.064V518h3.377v-16.1h5.062v-3.376Z" transform="translate(-1253.733 -498.532)" fill="#fff"/>
        <path id="패스_97" data-name="패스 97" d="M1185.812,498.532v12.441l-9.759-12.441h-1.573V518h3.377V506.679L1187.6,519.1h1.591V498.532Z" transform="translate(-1117.592 -498.532)" fill="#fff"/>
        <g id="그룹_526" data-name="그룹 526" transform="translate(18.985 0.06)">
          <path id="패스_98" data-name="패스 98" d="M862.9,518.47l-.172-.269-6.1-9.56,6.277-9.583H858.8l-4.713,7.424a4.088,4.088,0,0,0-.25.392l-.018.028h-.911l-.044-.059c-.089-.138-.164-.255-.206-.313l-4.815-7.472h-4.309l6.592,9.578-6.414,9.56-.177.274h4.351l.166-.274,4.552-7.557c.038-.066.161-.243.267-.4l.044-.066h.9l.047.071c.159.262.26.414.271.434l4.5,7.516.168.274Z" transform="translate(-843.538 -499.058)" fill="#fff"/>
          <path id="패스_99" data-name="패스 99" d="M846.007,715.881l-.574.451a.806.806,0,0,0-.61-.374.416.416,0,0,0-.246.071.215.215,0,0,0-.1.165.273.273,0,0,0,.071.174,5.221,5.221,0,0,0,.565.47c.292.222.469.362.533.42a1.5,1.5,0,0,1,.332.407.927.927,0,0,1,.095.424.942.942,0,0,1-.344.746,1.333,1.333,0,0,1-.894.291,1.441,1.441,0,0,1-.754-.192,1.572,1.572,0,0,1-.543-.6l.645-.352a.818.818,0,0,0,.673.486.524.524,0,0,0,.331-.108.3.3,0,0,0,.135-.24.409.409,0,0,0-.1-.25,3.067,3.067,0,0,0-.45-.378,4.226,4.226,0,0,1-.851-.751.9.9,0,0,1-.19-.526.828.828,0,0,1,.316-.653,1.178,1.178,0,0,1,.791-.271,1.4,1.4,0,0,1,.575.123,2.086,2.086,0,0,1,.6.466" transform="translate(-843.538 -690.526)" fill="#fff"/>
        </g>
      </g>
      <path id="패스_100" data-name="패스 100" d="M887.112,716.095l-.521,2.33-.661-2.33h-.579l-.656,2.33-.524-2.33h-.685l.829,3.652h.658l.663-2.362.671,2.362h.667l.823-3.652Z" transform="translate(-859.926 -691.177)" fill="#fff"/>
      <rect id="사각형_413" data-name="사각형 413" width="0.691" height="3.652" transform="translate(30.122 24.918)" fill="#fff"/>
      <path id="패스_101" data-name="패스 101" d="M967.779,716.095v.684h.94v2.968h.7v-2.968h.953v-.684Z" transform="translate(-934.564 -691.177)" fill="#fff"/>
      <path id="패스_102" data-name="패스 102" d="M1010.534,716.095v.686h1.487l-1.585,2.966h2.737v-.67h-1.552l1.589-2.982Z" transform="translate(-972.335 -691.177)" fill="#fff"/>
      <path id="패스_103" data-name="패스 103" d="M1055.429,716.095v3.652h2.283v-.684h-1.593v-.81h1.3v-.668h-1.3v-.812h1.593v-.679Z" transform="translate(-1012.176 -691.177)" fill="#fff"/>
      <path id="패스_104" data-name="패스 104" d="M1142.29,716.095v3.652h2.283v-.666h-1.587v-2.986Z" transform="translate(-1089.089 -691.177)" fill="#fff"/>
      <path id="패스_105" data-name="패스 105" d="M1182.639,717.062l.487,1.252h-.974Zm-.36-.966-1.4,3.652h.722l.3-.754h1.488l.286.754h.725l-1.406-3.652Z" transform="translate(-1123.254 -691.177)" fill="#fff"/>
      <path id="패스_106" data-name="패스 106" d="M1233.712,716.095v2.4l-1.559-2.4h-.668v3.652h.694v-2.4l1.555,2.4h.672v-3.652Z" transform="translate(-1168.068 -691.177)" fill="#fff"/>
      <g id="그룹_528" data-name="그룹 528" transform="translate(48.231 24.918)">
        <path id="패스_107" data-name="패스 107" d="M1278.288,716.763v2.305h.32a1.629,1.629,0,0,0,.69-.109.831.831,0,0,0,.353-.367,1.38,1.38,0,0,0,.135-.637,1.221,1.221,0,0,0-.323-.9,1.3,1.3,0,0,0-.94-.29Zm-.694-.668h.824a2.7,2.7,0,0,1,1.183.2,1.511,1.511,0,0,1,.637.643,2.057,2.057,0,0,1,.253,1.037,2.14,2.14,0,0,1-.141.777,1.617,1.617,0,0,1-.387.586,1.367,1.367,0,0,1-.533.322,3.718,3.718,0,0,1-1,.09h-.836Z" transform="translate(-1257.126 -716.095)" fill="#fff"/>
        <path id="패스_108" data-name="패스 108" d="M1100.221,717.519h-.638v-.745h.638a.373.373,0,1,1,0,.745m.4.574a.886.886,0,0,0,.484-.336.983.983,0,0,0,.177-.6,1.133,1.133,0,0,0-.156-.594.924.924,0,0,0-.417-.36,2.443,2.443,0,0,0-.86-.105h-.957v3.652h.694V718.2h.33l.823,1.547h.761Z" transform="translate(-1098.889 -716.095)" fill="#fff"/>
      </g>
    </g>
  </g>
</svg>
