<svg xmlns="http://www.w3.org/2000/svg" width="360" height="180" viewBox="0 0 360 180">
  <g id="img_main_logo_mafi" transform="translate(-3454 -1800)">
    <g id="area" transform="translate(3454 1800)" fill="rgba(255,255,255,0)" stroke="#fff" stroke-width="1" opacity="0.1">
      <rect width="360" height="180" stroke="none"/>
      <rect x="0.5" y="0.5" width="359" height="179" fill="none"/>
    </g>
    <g id="logo" transform="translate(3594 1875)" opacity="0.5">
      <path id="패스_274" data-name="패스 274" d="M30.506,30V17.78c0-1.53-.1-5.1-4.866-5.1a8.79,8.79,0,0,0-6.091,2.586c-.817-2.041-2.893-2.586-4.629-2.586a8.326,8.326,0,0,0-5.683,2.28V12.983H1.412V30H9.238V18.665c0-.918.034-2.279,1.5-2.279,1.328,0,1.328,1.259,1.328,2.041V30H19.89V18.291c0-.442.034-1.905,1.463-1.905,1.361,0,1.361,1.361,1.361,2.178V30ZM51.7,30c-.681-1.123-.681-2.008-.681-4.219V18.223c0-5.444-4.356-5.751-8.848-5.751-5.784,0-9.425,1.192-9.425,5.479v.34H40.3c0-.919.069-2.62,1.566-2.62,1.191,0,1.327.919,1.327,1.736v1.905c-6.262.477-10.855.953-10.855,6.023,0,3.437,1.667,5.173,5.172,5.173a6.992,6.992,0,0,0,5.717-2.485V28.3c0,1.667.953,1.7,1.668,1.7Zm-8.507-5.513c0,.952-.034,2.314-1.531,2.314-1.463,0-1.531-1.259-1.531-2.178,0-2.144,1.463-2.518,3.062-2.587ZM73.575,5.973h-7.86v5.411h7.86Zm0,7.01h-7.86V30h7.86ZM65.068,9.92V6.143a11.355,11.355,0,0,0-3.4-.477c-2.927,0-7.453.477-7.453,6.466v.851H52.307v2.994h1.905V30h7.827V15.978h2.348V12.983H62.039V12.3c0-1.054.034-2.552,1.77-2.552a4.317,4.317,0,0,1,1.259.17" transform="translate(-1.412 -5.666)" fill="#fff"/>
      <path id="패스_275" data-name="패스 275" d="M263.648,101.543v-.061c-.091-.015-.116-.116-.116-.31V99.787a1.006,1.006,0,0,0-.117-.549.872.872,0,0,0-.761-.289c-.492,0-1,.182-1,.786v.077h.41v-.036a.5.5,0,0,1,.564-.543c.34,0,.482.168.482.508v.269a3,3,0,0,0-1.227.254.661.661,0,0,0-.319.593.7.7,0,0,0,.8.735.987.987,0,0,0,.751-.329v.071c0,.152.041.208.209.208Zm-.543-.914a.614.614,0,0,1-.233.568.709.709,0,0,1-.391.107.419.419,0,0,1-.461-.456.452.452,0,0,1,.227-.412,2.463,2.463,0,0,1,.858-.188Zm1.7.914V99.792a.455.455,0,0,1,.5-.482.707.707,0,0,1,.421.141v-.394a.476.476,0,0,0-.3-.1.777.777,0,0,0-.62.375v-.329h-.441v2.537Zm2.09-2.279h.477v-.258h-.477v-.63l-.44.077v.552h-.381v.258h.381c-.005.184-.011,1.523-.011,1.523,0,.406.015.558.192.689a.666.666,0,0,0,.4.112,1.406,1.406,0,0,0,.477-.087v-.294a.84.84,0,0,1-.29.061c-.294,0-.329-.2-.329-.473Z" transform="translate(-187.509 -71.987)" fill="#fff"/>
      <path id="패스_276" data-name="패스 276" d="M181.076,97.96h-.862v.751h.862Zm0,1.787h-.862v.75h.862Zm5.634-1.787h-.777s-.36,1.614-.38,1.843c-.04-.259-.452-1.843-.452-1.843h-.691s-.431,1.6-.471,1.843c-.031-.238-.386-1.843-.386-1.843h-.833l.656,2.537h.908s.41-1.39.447-1.6c.03.209.41,1.6.41,1.6h.9Zm2.856,2.537v-.03c-.091-.071-.106-.218-.106-.482V98.736c0-.538-.177-.842-1.117-.842-.964,0-1.243.345-1.243.812v.05h.791v-.045a.387.387,0,0,1,.4-.438.324.324,0,0,1,.351.371v.29a4.607,4.607,0,0,0-1.1.168.666.666,0,0,0-.517.7.692.692,0,0,0,.755.761,1,1,0,0,0,.827-.355v.031c0,.213.066.258.229.258Zm-.923-.866c0,.35-.158.5-.443.5a.344.344,0,0,1-.345-.4.394.394,0,0,1,.264-.392,1.759,1.759,0,0,1,.523-.085Zm2.331-2.716h-.822V100.5h.822Zm3.3,3.582-.919-1.695.742-.842h-.832l-.787,1V96.915h-.807V100.5h.807v-.71l.33-.381.578,1.091Zm4.182-1.309c0-.615-.1-1.294-1.243-1.294-1.274,0-1.36.812-1.36,1.4,0,.751.274,1.273,1.294,1.273.862,0,1.309-.36,1.309-1.375m-.832.092c0,.563-.122.9-.472.9-.37,0-.467-.341-.467-.741v-.244c0-.685.177-.914.487-.914.335,0,.452.274.452.838Zm3.848,1.217V98.671a.677.677,0,0,0-.741-.761,1.221,1.221,0,0,0-.848.335V97.96h-.821V100.5h.821V98.742a.389.389,0,0,1,.417-.407c.279,0,.356.182.356.533V100.5Z" transform="translate(-129.319 -70.942)" fill="#fff"/>
    </g>
  </g>
</svg>
