<svg xmlns="http://www.w3.org/2000/svg" xmlns:xlink="http://www.w3.org/1999/xlink" width="360" height="180" viewBox="0 0 360 180">
  <defs>
    <clipPath id="clip-path">
      <rect id="사각형_415" data-name="사각형 415" width="60" height="64.972" fill="#fff"/>
    </clipPath>
  </defs>
  <g id="img_main_logo_fd" transform="translate(-3556 -1705)">
    <g id="area" transform="translate(3556 1705)" fill="rgba(255,255,255,0)" stroke="#fff" stroke-width="1" opacity="0.1">
      <rect width="360" height="180" stroke="none"/>
      <rect x="0.5" y="0.5" width="359" height="179" fill="none"/>
    </g>
    <g id="logo" transform="translate(3706 1753)" opacity="0.5">
      <g id="그룹_541" data-name="그룹 541" transform="translate(0 0)">
        <g id="그룹_540" data-name="그룹 540" clip-path="url(#clip-path)">
          <path id="패스_150" data-name="패스 150" d="M68.657,193.576a1.688,1.688,0,0,1,.778,1.342v.137a2.091,2.091,0,0,1-1.025,1.821l-.752.343-.823-.091-1.646,2.891L65,199.955l.356-1.07a10.4,10.4,0,0,0,1.776-2.788l.2-.077.077.221-.356.635.389.11a2.2,2.2,0,0,0,1.711-1.569,1.808,1.808,0,0,0,.026-.311,1.57,1.57,0,0,0-.68-1.3l-.48.11a10.211,10.211,0,0,0-2.308,4.434l-.136.032a11.953,11.953,0,0,1,2.055-4.447l.311-.266.292-.11Z" transform="translate(-65.001 -136.341)" fill="#fff"/>
          <path id="패스_151" data-name="패스 151" d="M78.055,202.4l-.078.713-.745.778.247.343.466.266-.045.233a1.158,1.158,0,0,1-1.031-.765l.052-.246.778-.713.059-.331-.311.22-.045.247a12.106,12.106,0,0,1-1.7,1.523l-.246-.026.078-.3,2.3-2.087Z" transform="translate(-71.675 -141.894)" fill="#fff"/>
          <path id="패스_152" data-name="패스 152" d="M84.579,203.974l-.667.421v.033l.745-.2.564-.33-.2-.059Zm.752-.422.181.233v.188a3.523,3.523,0,0,1-1.88.921l.142.278.312.123,1.322-.156v.188l-.8.234h-.636l-.343-.123-.467-.688.065-.214h.214a1.818,1.818,0,0,1,1.524-.985Z" transform="translate(-76.599 -142.719)" fill="#fff"/>
          <path id="패스_153" data-name="패스 153" d="M91.4,202.565l.168.234-.032.155-.493-.045a1.5,1.5,0,0,0-1.076,1.387l.376.324,1.3-.033v.123l-.214.129-.675.091c-.034,0-.07.008-.107.01s-.073,0-.107,0a.819.819,0,0,1-.888-.681V204.2a1.386,1.386,0,0,1,.824-1.29l.642-.344Z" transform="translate(-80.743 -142.089)" fill="#fff"/>
        </g>
      </g>
      <path id="패스_154" data-name="패스 154" d="M96.654,200.446l.285.311-.13.156-.247-.045-.156-.234.078-.221Zm-.467,1.711-.058.2-.467.532-.279.667-.22-.142.247-.7.577-.636Z" transform="translate(-84.259 -140.715)" fill="#fff"/>
      <g id="그룹_543" data-name="그룹 543" transform="translate(0 0)">
        <g id="그룹_542" data-name="그룹 542" clip-path="url(#clip-path)">
          <path id="패스_155" data-name="패스 155" d="M99.661,204.808l-.687.836.078.176a1.606,1.606,0,0,0,1.277-.779l-.045-.344-.279-.045Zm.7-.376.214.4a1.146,1.146,0,0,1-.746,1.064l-.525.214h-.389l-.22-.246v-.02a1.527,1.527,0,0,1,1.245-1.5Z" transform="translate(-86.514 -143.223)" fill="#fff"/>
          <path id="패스_156" data-name="패스 156" d="M104.706,204.137v.155l-.421.558.032.221a1.836,1.836,0,0,0,1.433-.655l.233.078v.155l-.454.623-.11.635-.279-.136.078-.61-.868.22-.311-.032-.143-.142a1.207,1.207,0,0,1,.667-1.134Z" transform="translate(-89.834 -143.051)" fill="#fff"/>
          <path id="패스_157" data-name="패스 157" d="M111.193,203.121l.188.129-.045.136-.454-.012-.576.246.285.357.434.188.233.233.046.357a2.649,2.649,0,0,1-1.413.576l-.221-.077.078-.279h.531l.668-.356-.175-.221-.57-.369-.221-.331.013-.312.752-.265Z" transform="translate(-93.52 -142.444)" fill="#fff"/>
          <path id="패스_158" data-name="패스 158" d="M123.183,198.8a6.542,6.542,0,0,1-1.258,3.2l.169.065,1.341-.363.5.142-.207.221c-.065-.008-.129-.015-.192-.02s-.124-.007-.184-.007a2.924,2.924,0,0,0-1.582.473l-.234.5-.221-.091-.013-.285-.869.175-.22-.077.11-.221a2.794,2.794,0,0,0,1.277-.37,9.509,9.509,0,0,0,1.271-3.378l.111-.11Z" transform="translate(-100.253 -139.592)" fill="#fff"/>
          <path id="패스_159" data-name="패스 159" d="M125.965,196.447l.175.175-.221.291-.278-.136a10.175,10.175,0,0,0-3.857,1.834l-.188-.142.279-.324a14.1,14.1,0,0,1,3.877-1.7Z" transform="translate(-101.135 -138.182)" fill="#fff"/>
          <path id="패스_160" data-name="패스 160" d="M133.081,203.426l1.212.221-.032.11c-.073.008-.144.015-.211.019s-.137.007-.21.007a3.24,3.24,0,0,1-.713-.078,5.2,5.2,0,0,1-1.213,1.433l-.175.343-.247-.091.032-.253,1.167-1.3-.065-.13h-.168l-.357.266-.155-.045.078-.344.434-.155Z" transform="translate(-107.455 -142.638)" fill="#fff"/>
          <path id="패스_161" data-name="패스 161" d="M138.488,203.946l-.953,1.024.033.078.687-.291.869-.642-.033-.356-.168-.091Zm.823-.434.058.291.156.175-.013.246-.532.778.331.078,1.089-.278-.123.2-1,.39-.5-.111-.11-.136v-.312h-.1l-.933.59h-.266l-.188-.233.077-.357a4.2,4.2,0,0,1,1.724-1.5Z" transform="translate(-111.085 -142.581)" fill="#fff"/>
          <path id="패스_162" data-name="패스 162" d="M147.361,202.019l-.1.311-1.452,1.693.065.155a2.519,2.519,0,0,0,.726.11,2.68,2.68,0,0,0,.629-.078l.11.2-1.186.142-.525-.123-.143-.155.078-.422,1.634-1.88Z" transform="translate(-116.385 -141.711)" fill="#fff"/>
        </g>
      </g>
      <path id="패스_163" data-name="패스 163" d="M152.173,200.446l.286.311-.13.156-.246-.045-.156-.234.078-.221Zm-.467,1.711-.058.2-.467.532-.279.667-.22-.142.246-.7.577-.636Z" transform="translate(-119.707 -140.715)" fill="#fff"/>
      <g id="그룹_545" data-name="그룹 545" transform="translate(0 0)">
        <g id="그룹_544" data-name="그룹 544" clip-path="url(#clip-path)">
          <path id="패스_164" data-name="패스 164" d="M155.523,203.946l-.953,1.024.033.078.687-.291.869-.642-.033-.356-.169-.091Zm.823-.434.059.291.155.175-.013.246-.532.778.33.078,1.089-.278-.123.2-1,.39-.5-.111-.11-.136v-.312h-.1l-.934.59H154.4l-.188-.233.078-.357a4.2,4.2,0,0,1,1.724-1.5Z" transform="translate(-121.962 -142.581)" fill="#fff"/>
          <path id="패스_165" data-name="패스 165" d="M163.295,205.17l-.168.609.979-.479h.247l.123.2v.389l-.155.291-.026.376-.253-.065a.506.506,0,0,1-.1-.285.624.624,0,0,1,.272-.461l-.065-.11-1.322.609-.311-.078.557-1.056Z" transform="translate(-127.263 -143.715)" fill="#fff"/>
        </g>
      </g>
      <path id="패스_166" data-name="패스 166" d="M135.916,201.407l-.206.846-.288-.129.2-.75Z" transform="translate(-109.963 -141.329)" fill="#fff"/>
      <g id="그룹_547" data-name="그룹 547" transform="translate(0 0)">
        <g id="그룹_546" data-name="그룹 546" clip-path="url(#clip-path)">
          <path id="패스_167" data-name="패스 167" d="M184.076,199.3l-.755.267-.013.312.221.332.573.371.176.221-.67.358h-.534l-.078.28.222.078a2.663,2.663,0,0,0,1.418-.579l-.046-.358-.234-.234-.436-.189-.286-.358.579-.247.455.013.046-.137-.188-.13Zm-1.49-.313-2.31,2.1-.078.3.247.026a12.149,12.149,0,0,0,1.7-1.529l.045-.247.313-.221-.059.332-.781.716-.052.248a1.163,1.163,0,0,0,1.034.768l.046-.235-.469-.267-.247-.345.748-.781.078-.716Zm-2.96,1.068.279.046.046.345a1.612,1.612,0,0,1-1.282.781l-.078-.176.69-.839Zm-.065-.312a1.533,1.533,0,0,0-1.25,1.51v.02l.222.248h.39l.527-.215a1.151,1.151,0,0,0,.748-1.067l-.215-.4Zm-1.822.312.28.046.046.345a1.611,1.611,0,0,1-1.282.781l-.078-.176.69-.839Zm-.065-.312a1.533,1.533,0,0,0-1.249,1.51v.02l.221.248h.39l.527-.215a1.15,1.15,0,0,0,.748-1.067l-.214-.4Zm-1.419-.859-1.64,1.887-.078.423.143.156.527.124,1.191-.144-.111-.2a2.7,2.7,0,0,1-.631.078,2.537,2.537,0,0,1-.729-.111l-.065-.156,1.457-1.7.1-.312Zm-1.516-.28.97-.937.527-.332.078.078-.605.722-.97.527Zm1.607-1.64a7.031,7.031,0,0,0-2.356,2.089l-1.783.781.019.189h.17l.924-.4h.137v.078l-.67.859a2.625,2.625,0,0,0-.593.495,3.068,3.068,0,0,0-.436.644l-.638,1.21-.1.5.137.078q.234-.475.41-.794t.362-.592q.185-.273.413-.563t.56-.7l.449-.046.689.267.2-.078-.059-.176-.924-.28-.046-.111,1.074-1.249,1.171-.56a2.009,2.009,0,0,0,1.171-1.471l-.091-.137Z" transform="translate(-132.69 -138.513)" fill="#fff"/>
          <path id="패스_168" data-name="패스 168" d="M72.673,116.548l-.966-.01q-.842-.009-2.066-.009h-1.8q0,.836-.02,1.814t-.019,1.72h1.314c.806,0,1.569,0,2.284-.01l1.193-.01v1.021q-.14,0-1.362-.009c-.816-.007-1.543-.012-2.19-.012H67.8q0,1.3.014,2.459t.024,1.863H66.623c.012-.295.02-.82.028-1.572s.012-1.838.012-3.252q0-.831-.008-2.194t-.031-2.821c.36,0,.8,0,1.317.009s1.066.012,1.642.012q1.291,0,2.131-.012l.96-.009Z" transform="translate(-66.036 -86.516)" fill="#fff"/>
          <path id="패스_169" data-name="패스 169" d="M97.714,119.921a5.737,5.737,0,0,1-.408,2.191,4.868,4.868,0,0,1-1.064,1.647,4.721,4.721,0,0,1-1.547,1.051,4.663,4.663,0,0,1-1.753.328,4.744,4.744,0,0,1-1.724-.313,4.349,4.349,0,0,1-1.458-.933,4.953,4.953,0,0,1-1.153-1.69,5.758,5.758,0,0,1-.439-2.3,5.885,5.885,0,0,1,.347-2.068,4.974,4.974,0,0,1,1.039-1.675,4.418,4.418,0,0,1,1.523-1.073,4.841,4.841,0,0,1,3.705-.023,4.445,4.445,0,0,1,1.466.992,4.884,4.884,0,0,1,1.094,1.735,6.043,6.043,0,0,1,.371,2.126m-1.257.117a5.688,5.688,0,0,0-.321-1.88,3.834,3.834,0,0,0-.976-1.548,3.292,3.292,0,0,0-.99-.662,3.1,3.1,0,0,0-1.228-.235,3.173,3.173,0,0,0-1.235.24,3.245,3.245,0,0,0-1.035.7,4.064,4.064,0,0,0-.918,1.458,5.358,5.358,0,0,0,.009,3.71,3.946,3.946,0,0,0,.946,1.42,3.311,3.311,0,0,0,.994.65,3.088,3.088,0,0,0,1.232.247,3.132,3.132,0,0,0,1.226-.24,3.321,3.321,0,0,0,1.035-.688,4.121,4.121,0,0,0,.908-1.349,4.586,4.586,0,0,0,.353-1.823" transform="translate(-79.793 -85.995)" fill="#fff"/>
          <path id="패스_170" data-name="패스 170" d="M128.058,120.09q-.013.532-.026,1.244t-.013,1.177q0,.745.01,1.664c.008.613.012.953.012,1.022l-.443.033c-.25.016-.494.025-.729.025a11.526,11.526,0,0,1-3.1-.375,5.485,5.485,0,0,1-2.331-1.312,4.3,4.3,0,0,1-.984-1.426,4.826,4.826,0,0,1-.372-1.944,4.206,4.206,0,0,1,.711-2.4,5.19,5.19,0,0,1,1.957-1.7,7.324,7.324,0,0,1,1.925-.668,10.951,10.951,0,0,1,2.252-.225h.626l.09,1.06h-.568a10.331,10.331,0,0,0-2.065.192,6.224,6.224,0,0,0-1.636.56,3.847,3.847,0,0,0-1.494,1.363,3.4,3.4,0,0,0-.541,1.837,3.477,3.477,0,0,0,.564,2.04,3.936,3.936,0,0,0,1.455,1.264,6.171,6.171,0,0,0,1.686.572,9.958,9.958,0,0,0,1.833.165q0-.117-.008-1.147t-.031-3.017Z" transform="translate(-100.171 -86.308)" fill="#fff"/>
          <path id="패스_171" data-name="패스 171" d="M156.706,125.329l-.932-.01q-.845-.009-2.159-.009c-.575,0-1.123,0-1.64.009s-.959.01-1.317.01q.015-1.27.027-2.57t.013-2.554q0-2.095-.017-3.193t-.023-1.542h1.236q-.02.951-.029,2.195t-.01,2.04q0,1.937.01,3.233t.009,1.369h1.5q1.317,0,2.29-.008l1.041-.01Z" transform="translate(-119.691 -86.48)" fill="#fff"/>
          <path id="패스_172" data-name="패스 172" d="M174.419,125.329H173.2c0-.3.013-.82.024-1.577s.016-1.839.016-3.253q0-.839-.008-2.2t-.031-2.827h1.218c-.011.7-.019,1.518-.028,2.449s-.011,1.69-.011,2.279q0,2.238.017,3.464c.009.817.017,1.372.022,1.668" transform="translate(-134.085 -86.48)" fill="#fff"/>
          <path id="패스_173" data-name="패스 173" d="M192.365,125.365l-.982-.01q-.917-.009-2.268-.009-.938,0-1.717.009t-1.318.01c.012-.286.021-.9.028-1.851s.012-1.93.012-2.943q0-.833-.009-2.2t-.031-2.84c.35,0,.787,0,1.311.01s1.064.009,1.62.009q1.411,0,2.295-.009l.961-.01v1.022l-.926-.01q-.85-.009-2.119-.01H187.3q0,.841-.009,1.679c-.007.557-.01,1.086-.01,1.58h1.59q1.3,0,2.313-.009l1.086-.01v1.022l-1.214-.009q-1.155-.01-2.111-.011h-1.664q0,1.4.007,2.22c.006.547.009,1.005.013,1.376.289.005.642.01,1.053.014s.857,0,1.333,0q1.1,0,1.846-.008l.835-.009Z" transform="translate(-142.308 -86.516)" fill="#fff"/>
        </g>
      </g>
      <path id="패스_174" data-name="패스 174" d="M101.857,153.67l-1.882,3.817-.953-.419,1.714-3.9Z" transform="translate(-86.723 -110.548)" fill="#fff"/>
      <g id="그룹_549" data-name="그룹 549" transform="translate(0 0)">
        <g id="그룹_548" data-name="그룹 548" clip-path="url(#clip-path)">
          <path id="패스_175" data-name="패스 175" d="M75.967,161.009a4.737,4.737,0,0,1-.742,2.648,5.71,5.71,0,0,1-1.923,1.835,8.534,8.534,0,0,1-2.291.925,11.67,11.67,0,0,1-2.84.318c-.4,0-.791-.009-1.173-.023s-.594-.023-.634-.023c0-.029.007-.688.024-1.974s.022-2.5.022-3.657q0-.915,0-2.355t-.043-3.493c.058,0,.32,0,.784-.011l.75-.011a14.133,14.133,0,0,1,3.149.317,7.792,7.792,0,0,1,2.454,1,5,5,0,0,1,2.468,4.5M74.5,161a4.261,4.261,0,0,0-.479-2.023,4.159,4.159,0,0,0-1.515-1.559,6.421,6.421,0,0,0-2.145-.847,10.819,10.819,0,0,0-2.137-.24h-.445q-.015,1.354-.02,2.245t0,1.421q0,.378.006,1.761t.017,3.833h.435a9.864,9.864,0,0,0,2.233-.261,6.59,6.59,0,0,0,1.89-.724,4.832,4.832,0,0,0,1.568-1.478A3.752,3.752,0,0,0,74.5,161" transform="translate(-65.87 -111.84)" fill="#fff"/>
          <path id="패스_176" data-name="패스 176" d="M120.584,160.434a6.676,6.676,0,0,1-.475,2.55,5.647,5.647,0,0,1-1.24,1.918,5.192,5.192,0,0,1-3.84,1.606,5.543,5.543,0,0,1-2.007-.364,5.074,5.074,0,0,1-1.7-1.087,5.761,5.761,0,0,1-1.34-1.968,6.706,6.706,0,0,1-.511-2.674,6.866,6.866,0,0,1,.4-2.407,5.808,5.808,0,0,1,1.209-1.95,5.162,5.162,0,0,1,1.775-1.249,5.639,5.639,0,0,1,4.313-.026,5.155,5.155,0,0,1,1.706,1.155,5.675,5.675,0,0,1,1.274,2.02,7.039,7.039,0,0,1,.432,2.476m-1.464.136a6.64,6.64,0,0,0-.372-2.189,4.472,4.472,0,0,0-1.138-1.8,3.818,3.818,0,0,0-1.152-.771,3.6,3.6,0,0,0-1.428-.273,3.71,3.71,0,0,0-1.439.278,3.775,3.775,0,0,0-1.2.817,4.709,4.709,0,0,0-1.069,1.7,6.227,6.227,0,0,0,.009,4.319,4.6,4.6,0,0,0,1.1,1.652,3.847,3.847,0,0,0,1.157.757,3.584,3.584,0,0,0,1.434.289,3.652,3.652,0,0,0,1.427-.279,3.865,3.865,0,0,0,1.205-.8,4.775,4.775,0,0,0,1.056-1.57,5.32,5.32,0,0,0,.411-2.122" transform="translate(-93.395 -111.315)" fill="#fff"/>
          <path id="패스_177" data-name="패스 177" d="M157.669,165.971l-1.082.882q-.19-.2-1.342-1.487t-3.551-4.029l.008-.076a4.552,4.552,0,0,0,.866-.373,4.464,4.464,0,0,0,.911-.624,2.792,2.792,0,0,0,.553-.72,2.4,2.4,0,0,0,.236-1.149,1.883,1.883,0,0,0-.347-1.138,2,2,0,0,0-.954-.7,3.628,3.628,0,0,0-1.047-.227c-.366-.027-.7-.039-1.01-.039H150.2q-.03,1.631-.039,2.874c0,.83-.007,1.418-.007,1.759q0,1.176.017,3.192t.029,2.532h-1.417q.008-.515.027-1.994t.018-3.681v-1.586q0-1.157-.045-4.216c.056,0,.343-.009.857-.023s.99-.023,1.424-.023a11.9,11.9,0,0,1,1.45.085,5.207,5.207,0,0,1,1.373.369,3.125,3.125,0,0,1,1.349,1.062,2.777,2.777,0,0,1,.5,1.645,2.884,2.884,0,0,1-.75,2.032,6.634,6.634,0,0,1-1.418,1.207v.043q1.18,1.372,2.591,2.832l1.516,1.57" transform="translate(-118.492 -111.8)" fill="#fff"/>
          <path id="패스_178" data-name="패스 178" d="M188.08,160.434a6.655,6.655,0,0,1-.476,2.55,5.623,5.623,0,0,1-1.239,1.918,5.2,5.2,0,0,1-3.841,1.606,5.546,5.546,0,0,1-2.006-.364,5.073,5.073,0,0,1-1.7-1.087,5.769,5.769,0,0,1-1.342-1.968,6.724,6.724,0,0,1-.51-2.674,6.907,6.907,0,0,1,.4-2.407,5.788,5.788,0,0,1,1.21-1.95,5.155,5.155,0,0,1,1.774-1.249,5.639,5.639,0,0,1,4.312-.026,5.157,5.157,0,0,1,1.706,1.155,5.679,5.679,0,0,1,1.273,2.02,7,7,0,0,1,.433,2.476m-1.463.136a6.631,6.631,0,0,0-.373-2.189,4.479,4.479,0,0,0-1.136-1.8,3.831,3.831,0,0,0-1.153-.771,3.6,3.6,0,0,0-1.43-.273,3.7,3.7,0,0,0-1.437.278,3.783,3.783,0,0,0-1.2.817,4.692,4.692,0,0,0-1.068,1.7,6.226,6.226,0,0,0,.008,4.319,4.6,4.6,0,0,0,1.1,1.652,3.827,3.827,0,0,0,1.158.757,3.577,3.577,0,0,0,1.433.289,3.655,3.655,0,0,0,1.428-.279,3.881,3.881,0,0,0,1.205-.8,4.771,4.771,0,0,0,1.056-1.57,5.307,5.307,0,0,0,.411-2.122" transform="translate(-136.49 -111.315)" fill="#fff"/>
          <path id="패스_179" data-name="패스 179" d="M173.2,99.756a2.364,2.364,0,1,1-2.363-2.364,2.363,2.363,0,0,1,2.363,2.364" transform="translate(-131.068 -74.937)" fill="#fff"/>
          <path id="패스_180" data-name="패스 180" d="M193.487,89.113s2.931-2.6,5.422-2.6a8.328,8.328,0,0,1,4.125.961,36.062,36.062,0,0,0,3.982,1.3,13.269,13.269,0,0,1-7.485,2.541c-4.8-.028-6.27-2.175-6.043-2.2" transform="translate(-147.023 -67.993)" fill="#fff"/>
          <path id="패스_181" data-name="패스 181" d="M168.286,54.451s-1.677-5.839-.013-9.325a12.925,12.925,0,0,1,4.1-5.13,55.841,55.841,0,0,0,4.48-4.705c-.005-.294,1.409,5.283-1.444,12.174-3.248,6.7-7.234,7.322-7.122,6.987" transform="translate(-130.468 -35.28)" fill="#fff"/>
        </g>
      </g>
      <rect id="사각형_420" data-name="사각형 420" width="14.334" height="3.279" transform="translate(38.992 47.344)" fill="#fff"/>
      <g id="그룹_550" data-name="그룹 550" transform="translate(39.344 47.831)">
        <path id="패스_182" data-name="패스 182" d="M175.51,169.418a.574.574,0,0,1-.091.318.676.676,0,0,1-.265.232,1.247,1.247,0,0,1-.338.116,2.152,2.152,0,0,1-.421.037q-.175,0-.36-.007l-.206-.008q.005-.34.007-.642c0-.2,0-.393,0-.576q0-.52,0-.824t0-.316l.2-.009q.17-.007.331-.007a2.2,2.2,0,0,1,.336.024,1.186,1.186,0,0,1,.26.066.585.585,0,0,1,.253.183.468.468,0,0,1,.092.293.494.494,0,0,1-.116.323.593.593,0,0,1-.263.192v.017a.808.808,0,0,1,.236.058.6.6,0,0,1,.2.133.531.531,0,0,1,.115.168A.588.588,0,0,1,175.51,169.418Zm-.3.009a.4.4,0,0,0-.032-.162.48.48,0,0,0-.1-.137.434.434,0,0,0-.165-.1.69.69,0,0,0-.23-.037l-.16,0h-.081l-.029-.212a.982.982,0,0,0,.231-.031.567.567,0,0,0,.178-.082.428.428,0,0,0,.122-.136.361.361,0,0,0,.048-.185.324.324,0,0,0-.053-.186.371.371,0,0,0-.145-.125.723.723,0,0,0-.191-.056,1.5,1.5,0,0,0-.242-.018c-.055,0-.106,0-.153,0l-.089,0q-.005.258-.006.548c0,.193,0,.334,0,.421q0,.3,0,.611t0,.328l.094,0c.04,0,.077,0,.114,0a3.127,3.127,0,0,0,.377-.021.794.794,0,0,0,.294-.088.406.406,0,0,0,.153-.144A.389.389,0,0,0,175.209,169.427Z" transform="translate(-173.83 -167.68)" fill="#fff"/>
        <path id="패스_183" data-name="패스 183" d="M182.061,169.983l-.222.182c-.026-.027-.118-.13-.276-.307s-.4-.455-.73-.832v-.016a.878.878,0,0,0,.179-.077.9.9,0,0,0,.187-.128.582.582,0,0,0,.115-.149.5.5,0,0,0,.048-.238.389.389,0,0,0-.072-.235.409.409,0,0,0-.2-.144.746.746,0,0,0-.216-.047c-.076-.005-.145-.008-.209-.008h-.147q0,.336,0,.593t0,.363q0,.242,0,.659t0,.522h-.292q0-.106.005-.411t0-.76v-.328q0-.239-.009-.871l.177,0q.159,0,.293,0a2.5,2.5,0,0,1,.3.018,1.036,1.036,0,0,1,.283.076.64.64,0,0,1,.277.218.568.568,0,0,1,.1.339.592.592,0,0,1-.154.418,1.361,1.361,0,0,1-.292.249v.009q.242.284.533.585Z" transform="translate(-177.918 -167.69)" fill="#fff"/>
        <path id="패스_184" data-name="패스 184" d="M188.341,168.838a1.385,1.385,0,0,1-.1.526,1.183,1.183,0,0,1-.256.4,1.074,1.074,0,0,1-.792.331,1.144,1.144,0,0,1-.414-.075,1.055,1.055,0,0,1-.35-.224,1.185,1.185,0,0,1-.277-.406,1.385,1.385,0,0,1-.105-.551,1.412,1.412,0,0,1,.083-.5,1.2,1.2,0,0,1,.249-.4,1.063,1.063,0,0,1,.365-.257,1.163,1.163,0,0,1,.89-.005,1.062,1.062,0,0,1,.352.238,1.171,1.171,0,0,1,.263.417A1.45,1.45,0,0,1,188.341,168.838Zm-.3.028a1.379,1.379,0,0,0-.077-.452.922.922,0,0,0-.235-.372.785.785,0,0,0-.238-.159.742.742,0,0,0-.295-.057.765.765,0,0,0-.3.058.775.775,0,0,0-.249.169.962.962,0,0,0-.22.35,1.211,1.211,0,0,0-.079.436,1.223,1.223,0,0,0,.08.456.951.951,0,0,0,.228.342.8.8,0,0,0,.239.157.775.775,0,0,0,.591,0,.8.8,0,0,0,.249-.166.976.976,0,0,0,.217-.325A1.094,1.094,0,0,0,188.04,168.866Z" transform="translate(-181.632 -167.587)" fill="#fff"/>
        <path id="패스_185" data-name="패스 185" d="M195.109,168.026l-.237,0-.631,0c0,.242,0,.426-.006.551s0,.3,0,.512,0,.419,0,.633,0,.357,0,.428h-.292c0-.071,0-.215.006-.434s0-.432,0-.641v-.49q0-.182-.006-.559-.377,0-.611,0l-.257,0v-.244l.444,0,.557,0,.715,0,.31,0Z" transform="translate(-186.123 -167.712)" fill="#fff"/>
        <path id="패스_186" data-name="패스 186" d="M200.822,168.026l-.237,0-.632,0c0,.242,0,.426-.006.551s0,.3,0,.512,0,.419,0,.633,0,.357,0,.428h-.292c0-.071,0-.215.007-.434s0-.432,0-.641v-.49q0-.182-.006-.559-.377,0-.611,0l-.257,0v-.244l.443,0,.557,0,.716,0,.31,0Z" transform="translate(-189.77 -167.712)" fill="#fff"/>
        <path id="패스_187" data-name="패스 187" d="M207.344,168.838a1.372,1.372,0,0,1-.1.526,1.167,1.167,0,0,1-.256.4,1.073,1.073,0,0,1-.792.331,1.144,1.144,0,0,1-.414-.075,1.057,1.057,0,0,1-.35-.224,1.19,1.19,0,0,1-.277-.406,1.379,1.379,0,0,1-.105-.551,1.429,1.429,0,0,1,.083-.5,1.212,1.212,0,0,1,.249-.4,1.067,1.067,0,0,1,.366-.257,1.162,1.162,0,0,1,.889-.005,1.068,1.068,0,0,1,.352.238,1.19,1.19,0,0,1,.262.417A1.448,1.448,0,0,1,207.344,168.838Zm-.3.028a1.368,1.368,0,0,0-.077-.452.933.933,0,0,0-.235-.372.792.792,0,0,0-.239-.159.745.745,0,0,0-.295-.057.77.77,0,0,0-.3.058.779.779,0,0,0-.249.169.977.977,0,0,0-.221.35,1.287,1.287,0,0,0,0,.892.95.95,0,0,0,.227.342.8.8,0,0,0,.239.157.775.775,0,0,0,.591,0,.8.8,0,0,0,.249-.166.978.978,0,0,0,.218-.325A1.1,1.1,0,0,0,207.043,168.866Z" transform="translate(-193.765 -167.587)" fill="#fff"/>
      </g>
    </g>
  </g>
</svg>
