<svg xmlns="http://www.w3.org/2000/svg" width="360" height="180" viewBox="0 0 360 180">
  <g id="img_main_logo_molteni" transform="translate(-3283 -1359)">
    <g id="area" transform="translate(3283 1359)" fill="rgba(255,255,255,0)" stroke="#fff" stroke-width="1" opacity="0.1">
      <rect width="360" height="180" stroke="none"/>
      <rect x="0.5" y="0.5" width="359" height="179" fill="none"/>
    </g>
    <path id="logo" d="M477.143,109.992h2.846V109.2h-7.277l-4.176,14.612L464.508,109.2h-7.422v.793h2.844v19.764h-2.844v.8h6.564v-.8H460.86V110.54h.052l5.721,20.016h.988l5.75-20.016h.1v19.215H470.62v.8h9.369v-.8h-2.846Zm11.48,14.457c0,4.158-.053,5.949-2.615,5.949s-2.625-1.79-2.625-5.949c0-3.612-.2-6.107,2.625-6.107s2.615,2.5,2.615,6.107m3.418,0c0-3.582-2.782-6.746-6.033-6.746s-6.044,3.163-6.044,6.746,2.78,6.587,6.044,6.587,6.033-3.006,6.033-6.587m7.4,5.307h-2.092V108.719a21.961,21.961,0,0,1-5.188.479v.793h2.082v19.764h-2.159v.8h7.358Zm8.319-1.338-.573-.317c-.283.886-.826,1.69-1.752,1.69-1.09,0-1.13-.733-1.13-1.761v-8.795h2.739v-.962H504.3V114.38c-1.028.06-2.071.19-3.109.19v3.7H499.36v.962h1.834v9.051c0,1.759.435,2.749,3.055,2.749a3.471,3.471,0,0,0,3.51-2.618m3.615-5.723c0-2.021-.248-4.353,2.135-4.353,2.556,0,2.073,2.209,2.073,4.353Zm0,3.36v-2.563h6.749c.454,0,.714.093.714-.576a5.111,5.111,0,0,0-5.145-5.212c-3.148,0-5.737,3.2-5.737,6.716,0,3.261,2.273,6.616,5.407,6.616,2.8,0,4.785-1.373,5.521-4.474h-.714c-.569,2.177-2.154,3.836-4.217,3.836-2.461,0-2.579-2.111-2.579-4.343m16.1,4.5h6.664v-.8h-1.806v-5.911c0-3.172.312-6.142-3.51-6.142-2.08,0-3.368,1.088-4.289,3.07h-.048v-3.008c-1.8.066-3.546.193-5.024.129v.8h1.966v11.064h-1.966v.8h6.83v-.8h-1.806v-4.219a13.785,13.785,0,0,1,.357-4.029c.448-1.18,1.568-2.658,2.8-2.658,1.921,0,1.635,2.177,1.635,5.152v5.754h-1.806Zm12.665-18.674a1.788,1.788,0,0,0-1.706-1.726,1.761,1.761,0,0,0-1.547,1.726,1.829,1.829,0,0,0,1.547,1.918,1.785,1.785,0,0,0,1.706-1.918m-5.126,18.674h7.328v-.8h-2.123v-11.99c-1.763.066-3.513.193-5.205.129v.8H537.1v11.064h-2.092Zm23.27-2.618a6.251,6.251,0,0,1-4.06,1.883c-1.464,0-2.3-.926-3.1-2.171a10.016,10.016,0,0,1-1.614-4.574c0-2.463,1.378-3.2,3.2-4.093Zm-2.7-11.133-1.428-2.268a4.92,4.92,0,0,1-.871-2.525,2.227,2.227,0,0,1,2.339-2.4c1.856,0,2.466,1.371,2.466,3.3,0,1.975-.712,3.353-2.506,3.894m4.353,13.751h6.67v-.8h-2.848l-2.468-4.027a12.914,12.914,0,0,0,2.585-7.58h2.73v-.8H560.19v.8h2.818a11.267,11.267,0,0,1-2.225,6.811l-4.741-7.449c1.83-.768,4.691-2.235,4.691-4.826,0-2.911-2.861-3.812-4.981-3.812-2.623,0-5.065,1.573-5.065,4.771a11.152,11.152,0,0,0,1.607,4.7c-2.794,1.314-6.135,2.939-6.135,6.973,0,3.9,2.939,5.88,6.162,5.88a9.659,9.659,0,0,0,6.423-2.525Zm14.493-10.264c0-2.589-.31-6.3,1.185-8.6,1.114-1.733,2.184-2.182,4.226-2.182,3.134,0,5.562,2.209,6.045,5.693h.925v-6.173h-.7l-1.276,1.344a7.769,7.769,0,0,0-4.969-1.659,8.87,8.87,0,0,0-4.336,1.054A11.954,11.954,0,0,0,569.732,120c0,5.311,4.253,11.032,9.878,11.032a8.536,8.536,0,0,0,5.461-1.825l1.311,1.542h.705v-6.559h-.9c-.921,3.456-2.734,6.238-6.68,6.05a4.7,4.7,0,0,1-4.538-3.551,23.817,23.817,0,0,1-.547-6.4" transform="translate(2940.914 1329.281)" fill="#fff" opacity="0.5"/>
  </g>
</svg>
