<svg xmlns="http://www.w3.org/2000/svg" width="360" height="180" viewBox="0 0 360 180">
  <g id="img_main_logo_kvadrat" transform="translate(-3781 -1615)">
    <g id="area" transform="translate(3781 1615)" fill="rgba(255,255,255,0)" stroke="#fff" stroke-width="1" opacity="0.1">
      <rect width="360" height="180" stroke="none"/>
      <rect x="0.5" y="0.5" width="359" height="179" fill="none"/>
    </g>
    <g id="logo" transform="translate(13 2)">
      <g id="logo-2" data-name="logo" transform="translate(3848 1694)" opacity="0.5">
        <path id="패스_189" data-name="패스 189" d="M43.1,24.547a2.437,2.437,0,0,1-1.832.777A2.408,2.408,0,0,1,39,23.709a5.581,5.581,0,0,1-.435-2.36,4.743,4.743,0,0,1,.838-3.011,2.535,2.535,0,0,1,2.05-1.056A2.335,2.335,0,0,1,43.1,18a4.346,4.346,0,0,1,1.025,3.229A4.624,4.624,0,0,1,43.1,24.547m15.5,0a2.369,2.369,0,0,1-1.77.777,2.428,2.428,0,0,1-2.3-1.616,5.593,5.593,0,0,1-.434-2.36,4.713,4.713,0,0,1,.839-3.042,2.554,2.554,0,0,1,2.049-1.025A2.41,2.41,0,0,1,58.628,18a4.284,4.284,0,0,1,1.025,3.229A4.611,4.611,0,0,1,58.6,24.547m24.782,0a2.428,2.428,0,0,1-4.069-.838,5.518,5.518,0,0,1-.465-2.36A4.676,4.676,0,0,1,79.7,18.32a2.588,2.588,0,0,1,2.064-1.04A2.332,2.332,0,0,1,83.41,18a4.343,4.343,0,0,1,1.026,3.229,4.6,4.6,0,0,1-1.056,3.323M30.429,14.486l-2.267,8.508-2.547-8.508H17.261L12.79,19.858V9.486H8.5V28.244H12.79V20.51l4.441,7.734h5.063L17.2,20.262l4.348-4.875,4.441,12.857H30.15l4.6-13.758Zm18.013-.031H44.187V15.48a5.131,5.131,0,0,0-3.354-1.335,6.011,6.011,0,0,0-4.286,1.673,7.426,7.426,0,0,0-2.174,5.732,7.223,7.223,0,0,0,1.739,5.067,5.746,5.746,0,0,0,4.441,1.906,4.232,4.232,0,0,0,3.633-1.8v1.522h4.255Zm15.5-4.969H59.777V15.48a5.455,5.455,0,0,0-3.417-1.335,6.121,6.121,0,0,0-4.316,1.673A7.426,7.426,0,0,0,49.87,21.55a7.237,7.237,0,0,0,1.8,5.113,5.712,5.712,0,0,0,4.41,1.86,4.2,4.2,0,0,0,3.6-1.8v1.522h4.255Zm10.156,4.783c-.372-.041-.59-.062-.652-.062a3.655,3.655,0,0,0-3.571,2.547V14.486H65.8V28.244h4.255V24.02q0-2.733.108-3.587a2.844,2.844,0,0,1,.544-1.413A2.931,2.931,0,0,1,73.162,18a4.176,4.176,0,0,1,.932.093Zm14.627.186H84.5V15.48a5.388,5.388,0,0,0-3.354-1.335,6.123,6.123,0,0,0-4.317,1.673,7.492,7.492,0,0,0-2.173,5.732,7.225,7.225,0,0,0,1.738,5.067,5.745,5.745,0,0,0,4.441,1.906,4.265,4.265,0,0,0,3.666-1.8v1.522h4.223Zm9.783.031H96.392V10.418H92.417v4.068H90.3v2.982h1.987V28.244h4.257V17.468H98.5Z" transform="translate(-8.504 -9.486)" fill="#fff"/>
      </g>
      <g id="logo-3" data-name="logo" transform="translate(3962 1693)" opacity="0.5">
        <path id="패스_190" data-name="패스 190" d="M14.537,74.234v-4.71h.338L16.1,72.755a5.817,5.817,0,0,0,4.214,2.163,3.443,3.443,0,0,0,3.59-3.4c0-1.7-.91-2.82-3.018-4.162l-3.147-2C16.02,64.294,14.8,63.226,14.8,61.008c0-2.656,1.925-4.573,5.827-5.257a11.966,11.966,0,0,1,4.995,1.068v4.628H25.28L23.85,57.8a4.4,4.4,0,0,0-3.356-1.424A3.082,3.082,0,0,0,17.086,59.5c0,1.643,1.067,2.519,2.731,3.56l3.121,1.972c2.159,1.342,3.173,2.738,3.173,4.847,0,2.41-1.4,4.765-6.269,5.914A9.248,9.248,0,0,1,14.537,74.234Z" transform="translate(-14.537 -55.751)" fill="#fff"/>
        <path id="패스_191" data-name="패스 191" d="M79.429,68.539H72.822l-2.133,6.243L72.848,75v.356H68.3V75l1.847-.219,6.269-18.264,1.925-.767L84.58,74.782,86.427,75v.356h-7.18V75l2.159-.219ZM73,68.018h6.243l-3.017-9.5Z" transform="translate(-56.642 -55.751)" fill="#fff"/>
        <path id="패스_192" data-name="패스 192" d="M154.934,58.128v-.356h6.971v.356l-2.029.219v8.324h8.3V58.347l-2.055-.219v-.356h6.972v.356l-2.029.219V76.365l2.029.219v.356H166.12v-.356l2.055-.219V67.219h-8.3v9.146l2.029.219v.356h-6.971v-.356l2.055-.219V58.347Z" transform="translate(-124.499 -57.334)" fill="#fff"/>
        <path id="패스_193" data-name="패스 193" d="M246.735,66.129c0-6.161,3.538-9.83,9.182-10.378a12.1,12.1,0,0,1,5.957,1.4v4.71h-.338L259.819,57.8a4.455,4.455,0,0,0-3.8-1.533c-3.225,0-6.035,3.039-6.035,9.419,0,5.121,2.159,9.5,6.555,9.5a5.21,5.21,0,0,0,3.616-1.451l1.691-4.381h.338V74.1a16.892,16.892,0,0,1-6.243,1.7C251.105,75.795,246.735,72.536,246.735,66.129Z" transform="translate(-196.399 -55.751)" fill="#fff"/>
        <path id="패스_194" data-name="패스 194" d="M327.373,66.156c0-5.805,3.2-9.5,9.339-10.405,5.125,0,8.844,4.162,8.844,9.639,0,5.805-3.2,9.474-9.391,10.405C330.781,75.795,327.373,71.5,327.373,66.156Zm14.905.082c0-5.7-2.731-9.748-6.347-9.748-2.94,0-5.307,3.423-5.307,8.817,0,5.723,2.731,9.748,6.347,9.748C339.859,75.055,342.278,71.551,342.278,66.238Z" transform="translate(-259.556 -55.751)" fill="#fff"/>
      </g>
      <circle id="타원_1" data-name="타원 1" cx="2" cy="2" r="2" transform="translate(3948 1701)" fill="#fff" opacity="0.5"/>
    </g>
  </g>
</svg>
