<svg xmlns="http://www.w3.org/2000/svg" xmlns:xlink="http://www.w3.org/1999/xlink" width="360" height="180" viewBox="0 0 360 180">
  <defs>
    <clipPath id="clip-path">
      <path id="패스_142" data-name="패스 142" d="M106.3,253.351a19.7,19.7,0,1,0,19.7-19.7,19.7,19.7,0,0,0-19.7,19.7" transform="translate(-106.299 -233.655)" fill="#fff"/>
    </clipPath>
  </defs>
  <g id="img_main_logo_casalgrande" transform="translate(-3752 -1727)">
    <g id="area" transform="translate(3752 1727)" fill="rgba(255,255,255,0)" stroke="#fff" stroke-width="1" opacity="0.1">
      <rect width="360" height="180" stroke="none"/>
      <rect x="0.5" y="0.5" width="359" height="179" fill="none"/>
    </g>
    <g id="logo" transform="translate(3867 1792)" opacity="0.5">
      <g id="그룹_530" data-name="그룹 530" transform="translate(44.982 9.697)">
        <path id="패스_109" data-name="패스 109" d="M332.55,284.339a3.939,3.939,0,0,0-2.808-1.221,3.81,3.81,0,0,0,.024,7.618,4.029,4.029,0,0,0,2.783-1.221v1.27a4.739,4.739,0,0,1-2.747.9,4.761,4.761,0,1,1,0-9.522,4.443,4.443,0,0,1,2.747.9Z" transform="translate(-325.006 -281.885)" fill="#fff"/>
        <path id="패스_110" data-name="패스 110" d="M367.6,287.833l-1.111,2.612H365.37l4.248-9.644,4.138,9.644h-1.135l-1.087-2.612Zm1.99-4.639-1.575,3.687h3.113Z" transform="translate(-357.068 -280.801)" fill="#fff"/>
        <path id="패스_111" data-name="패스 111" d="M412.96,284.12a1.689,1.689,0,0,0-1.587-1,1.461,1.461,0,0,0-1.526,1.428c0,.793.818,1.16,1.441,1.441l.61.269c1.2.525,2.209,1.123,2.209,2.588a2.905,2.905,0,0,1-5.762.464l1-.281a1.9,1.9,0,0,0,1.843,1.709,1.85,1.85,0,0,0,1.892-1.795c0-1.074-.842-1.44-1.7-1.831l-.561-.244c-1.074-.488-2-1.038-2-2.356a2.416,2.416,0,0,1,2.576-2.344,2.641,2.641,0,0,1,2.38,1.428Z" transform="translate(-391.205 -281.885)" fill="#fff"/>
        <path id="패스_112" data-name="패스 112" d="M441.209,287.833l-1.111,2.612h-1.123l4.248-9.644,4.138,9.644h-1.135l-1.087-2.612Zm1.99-4.639-1.575,3.687h3.113Z" transform="translate(-415.535 -280.801)" fill="#fff"/>
        <path id="패스_113" data-name="패스 113" d="M485.111,291.191h2.539v.952h-3.565v-9.2h1.025Z" transform="translate(-451.368 -282.499)" fill="#fff"/>
        <path id="패스_114" data-name="패스 114" d="M512.236,286.9a4.377,4.377,0,0,1-.952,3.247,4.548,4.548,0,0,1-3.406,1.538,4.761,4.761,0,1,1,3.955-7.532l-.744.7a3.743,3.743,0,0,0-3.162-1.734,3.819,3.819,0,0,0-3.76,3.846,3.708,3.708,0,0,0,1.074,2.6,3.868,3.868,0,0,0,2.613,1.172,3.157,3.157,0,0,0,3.284-2.881H508.4V286.9Z" transform="translate(-466.504 -281.885)" fill="#fff"/>
        <path id="패스_115" data-name="패스 115" d="M554.919,292.143h-1.026v-9.2h1.331c1.746,0,3.369.464,3.369,2.539a2.4,2.4,0,0,1-2.307,2.539l2.93,4.126h-1.257l-2.784-4.041h-.256Zm0-4.944h.317c1.16,0,2.332-.22,2.332-1.648,0-1.514-1.111-1.66-2.344-1.66h-.305Z" transform="translate(-506.818 -282.499)" fill="#fff"/>
        <path id="패스_116" data-name="패스 116" d="M583.61,287.833l-1.111,2.612h-1.123l4.248-9.644,4.138,9.644h-1.135l-1.086-2.612Zm1.99-4.639-1.574,3.687h3.113Z" transform="translate(-528.648 -280.801)" fill="#fff"/>
        <path id="패스_117" data-name="패스 117" d="M626.784,281.039l7.178,7.52V281.43h1.026v9.62l-7.178-7.508v7.093h-1.025Z" transform="translate(-564.717 -280.99)" fill="#fff"/>
        <path id="패스_118" data-name="패스 118" d="M675.459,282.938h1.734a5.019,5.019,0,0,1,3.589,1.111,4.727,4.727,0,0,1,.024,6.934,4.894,4.894,0,0,1-3.638,1.16h-1.709Zm1.77,8.253a3.861,3.861,0,0,0,2.906-.952,3.763,3.763,0,0,0-.049-5.457,3.956,3.956,0,0,0-2.857-.891h-.745v7.3Z" transform="translate(-603.381 -282.499)" fill="#fff"/>
        <path id="패스_119" data-name="패스 119" d="M715.17,282.938h4.773v.952H716.2v2.735h3.638v.952H716.2v3.613h3.748v.952H715.17Z" transform="translate(-634.925 -282.499)" fill="#fff"/>
      </g>
      <g id="그룹_531" data-name="그룹 531" transform="translate(45.507 21.685)">
        <path id="패스_120" data-name="패스 120" d="M328.584,348.3h-1.025v-9.2h1.514a3.883,3.883,0,0,1,2.283.488,2.537,2.537,0,0,1,1.037,2.1,2.583,2.583,0,0,1-.879,1.978,3.317,3.317,0,0,1-2.185.61h-.745Zm0-4.981h.684c1.136,0,2.1-.342,2.1-1.66,0-1.5-1.209-1.611-2.405-1.611h-.378Z" transform="translate(-327.559 -339.092)" fill="#fff"/>
      </g>
      <g id="그룹_532" data-name="그룹 532" transform="translate(49.816 21.246)">
        <path id="패스_121" data-name="패스 121" d="M350.746,343.988l-1.111,2.612h-1.123l4.248-9.644L356.9,346.6h-1.135l-1.087-2.612Zm1.99-4.639-1.575,3.687h3.113Z" transform="translate(-348.512 -336.956)" fill="#fff"/>
        <path id="패스_122" data-name="패스 122" d="M393.031,339.092h1.734a5.019,5.019,0,0,1,3.589,1.111,4.727,4.727,0,0,1,.024,6.934,4.892,4.892,0,0,1-3.638,1.16h-1.709Zm1.77,8.253a3.86,3.86,0,0,0,2.906-.952,3.762,3.762,0,0,0-.049-5.457,3.956,3.956,0,0,0-2.857-.891h-.745v7.3Z" transform="translate(-383.875 -338.653)" fill="#fff"/>
        <path id="패스_123" data-name="패스 123" d="M430.169,343.988l-1.111,2.612h-1.123l4.248-9.644,4.138,9.644h-1.135l-1.086-2.612Zm1.99-4.639-1.575,3.687H433.7Z" transform="translate(-411.6 -336.956)" fill="#fff"/>
        <path id="패스_124" data-name="패스 124" d="M472.749,337.193l7.178,7.52v-7.129h1.025v9.62l-7.178-7.508v7.093h-1.026Z" transform="translate(-447.197 -337.144)" fill="#fff"/>
        <path id="패스_125" data-name="패스 125" d="M518.85,343.988l-1.111,2.612h-1.123l4.248-9.644L525,346.6h-1.135l-1.087-2.612Zm1.99-4.639-1.575,3.687h3.113Z" transform="translate(-482.042 -336.956)" fill="#fff"/>
      </g>
      <g id="그룹_533" data-name="그룹 533" transform="translate(45.212 34.047)">
        <path id="패스_126" data-name="패스 126" d="M326.5,405.089h-.375V399.2h1.039a1.838,1.838,0,0,1,1.274.344,1.634,1.634,0,0,1,.039,2.375,1.953,1.953,0,0,1-1.313.375H326.5Zm.68-3.149a1.421,1.421,0,0,0,1.031-.32,1.155,1.155,0,0,0,.383-.883,1.174,1.174,0,0,0-.446-.953,1.632,1.632,0,0,0-1.031-.234H326.5v2.391Z" transform="translate(-326.125 -399.197)" fill="#fff"/>
        <path id="패스_127" data-name="패스 127" d="M345.723,413.6h-.352v-.648h-.016a1.616,1.616,0,0,1-1.375.727,1.779,1.779,0,0,1-1.781-1.906,1.732,1.732,0,0,1,1.766-1.86,1.661,1.661,0,0,1,1.391.7h.016v-.625h.352Zm-3.172-1.828a1.475,1.475,0,0,0,1.422,1.578,1.459,1.459,0,0,0,1.422-1.618,1.416,1.416,0,0,0-1.446-1.493A1.473,1.473,0,0,0,342.551,411.771Z" transform="translate(-338.893 -407.707)" fill="#fff"/>
        <path id="패스_128" data-name="패스 128" d="M364.117,413.268l1.282-2.978h.359L364.11,414.1l-1.656-3.806h.359Z" transform="translate(-354.982 -408.009)" fill="#fff"/>
        <path id="패스_129" data-name="패스 129" d="M380.285,411.825a1.408,1.408,0,0,0,1.445,1.524,1.444,1.444,0,0,0,1.274-.82l.3.172a2.111,2.111,0,1,1,.117-.875Zm2.782-.328a1.4,1.4,0,0,0-2.782,0Z" transform="translate(-368.866 -407.707)" fill="#fff"/>
        <path id="패스_130" data-name="패스 130" d="M410.75,410.29h.367l1.539,3.266,1.383-3.266h.359l-2.422,5.72h-.359l.867-2.047Z" transform="translate(-393.345 -408.009)" fill="#fff"/>
        <path id="패스_131" data-name="패스 131" d="M433.486,411.794a1.887,1.887,0,1,1-1.9-1.883A1.863,1.863,0,0,1,433.486,411.794Zm-3.423.008a1.536,1.536,0,1,0,1.5-1.563A1.531,1.531,0,0,0,430.064,411.8Z" transform="translate(-408.407 -407.707)" fill="#fff"/>
        <path id="패스_132" data-name="패스 132" d="M454.535,410.29v2.165a1.646,1.646,0,0,1-.219,1.039,1.442,1.442,0,0,1-2.157,0,1.647,1.647,0,0,1-.219-1.039V410.29h.352v2.04c0,.7.078,1.321.946,1.321s.946-.625.946-1.321v-2.04Z" transform="translate(-426.064 -408.009)" fill="#fff"/>
        <path id="패스_133" data-name="패스 133" d="M470.5,410.458h.016a.82.82,0,0,1,.781-.547.912.912,0,0,1,.383.086l-.187.312a.486.486,0,0,0-.25-.07c-.789,0-.742.985-.742,1.516V413.6h-.352v-3.61h.352Z" transform="translate(-440.524 -407.707)" fill="#fff"/>
        <path id="패스_134" data-name="패스 134" d="M492.563,412.5l1.274-3.157,1.282,3.157,1.25-2.962h.359l-1.633,3.806-1.274-3.118-1.266,3.118-1.625-3.806h.359Z" transform="translate(-457.034 -407.255)" fill="#fff"/>
        <path id="패스_135" data-name="패스 135" d="M524.055,413.6H523.7v-.648h-.016a1.617,1.617,0,0,1-1.375.727,1.779,1.779,0,0,1-1.782-1.906,1.732,1.732,0,0,1,1.766-1.86,1.662,1.662,0,0,1,1.391.7h.016v-.625h.352Zm-3.173-1.828a1.475,1.475,0,0,0,1.422,1.578,1.459,1.459,0,0,0,1.422-1.618,1.416,1.416,0,0,0-1.446-1.493A1.473,1.473,0,0,0,520.883,411.771Z" transform="translate(-480.548 -407.707)" fill="#fff"/>
        <path id="패스_136" data-name="패스 136" d="M540.329,410.29h.367l1.54,3.266,1.383-3.266h.36l-2.422,5.72h-.36l.868-2.047Z" transform="translate(-496.274 -408.009)" fill="#fff"/>
      </g>
      <g id="그룹_537" data-name="그룹 537" transform="translate(0 0)">
        <g id="그룹_536" data-name="그룹 536" clip-path="url(#clip-path)">
          <path id="패스_138" data-name="패스 138" d="M126,233.654a19.7,19.7,0,1,0,19.7,19.7,19.7,19.7,0,0,0-19.7-19.7m-7.007,23.34-2.628-4.377,0-.006a1.1,1.1,0,1,1,1.888-1.135l0,.006,2.33,3.91Zm2.028-2.039-2.667-4.45,0-.007a1.1,1.1,0,1,1,1.888-1.134l0,.007,2.381,4Zm2.089-2.024-2.721-4.531,0-.007a1.1,1.1,0,1,1,1.888-1.134l0,.007,2.4,4.047Zm14.374-1.723-4.231,7.081v6.235l-7.326,7.39V235l11.556,11.565Z" transform="translate(-106.299 -233.654)" fill="#fff"/>
          <path id="패스_139" data-name="패스 139" d="M230.878,319.385l-2.629,4.377-1.588-1.6,2.329-3.91,0-.006a1.1,1.1,0,0,1,1.889,1.135l-.005.006" transform="translate(-201.906 -300.422)" fill="#fff"/>
          <path id="패스_140" data-name="패스 140" d="M221.01,309.112l-2.667,4.45-1.6-1.589,2.381-4,0-.007a1.1,1.1,0,1,1,1.888,1.135l0,.007" transform="translate(-194.026 -292.261)" fill="#fff"/>
          <path id="패스_141" data-name="패스 141" d="M211.047,298.877l-2.722,4.531-1.566-1.618,2.4-4.047,0-.007a1.1,1.1,0,1,1,1.888,1.134l0,.007" transform="translate(-186.097 -284.132)" fill="#fff"/>
        </g>
      </g>
    </g>
  </g>
</svg>
