<svg xmlns="http://www.w3.org/2000/svg" width="360" height="180" viewBox="0 0 360 180">
  <g id="img_main_logo_dada" transform="translate(-3594 -1419)">
    <g id="area" transform="translate(3594 1419)" fill="rgba(255,255,255,0)" stroke="#fff" stroke-width="1" opacity="0.1">
      <rect width="360" height="180" stroke="none"/>
      <rect x="0.5" y="0.5" width="359" height="179" fill="none"/>
    </g>
    <g id="logo" transform="translate(3739 1498)" opacity="0.5">
      <path id="패스_89" data-name="패스 89" d="M464.115,94.471h2.677c4.3-.094,6-1.767,6-6.125,0-3.956-2.128-5.872-6-5.872h-2.677Zm-5.663-16.877H467.8c6.672,0,10.658,4.054,10.658,10.784,0,7.119-4.044,10.957-10.658,10.957h-9.347Z" transform="translate(-458.452 -77.594)" fill="#fff"/>
      <path id="패스_90" data-name="패스 90" d="M478.291,94.5c2.473,0,3.294-1.4,3.171-4.659a14.753,14.753,0,0,1-3.2.858c-1.158.267-2.131.758-2.131,2,0,1.279,1.009,1.8,2.164,1.8m-6.7-8.193a4.847,4.847,0,0,1,2.465-4.232,10.429,10.429,0,0,1,5.027-1.1c3.742,0,7.37.824,7.37,5.3V93.2a9.216,9.216,0,0,0,.6,4.041h-5.207a6.372,6.372,0,0,1-.3-1.487,7.127,7.127,0,0,1-5.207,1.945c-3.015,0-5.389-1.517-5.389-4.779,0-5.142,5.6-4.753,9.2-5.475.886-.186,1.377-.5,1.377-1.467,0-1.19-1.438-1.644-2.5-1.644a2.322,2.322,0,0,0-2.591,1.977Z" transform="translate(-450.707 -75.498)" fill="#fff"/>
      <path id="패스_91" data-name="패스 91" d="M486.229,91.265c0,2.17.789,4.57,3.164,4.57,2.53,0,3.077-2.4,3.077-4.41,0-2.287-.826-4.387-3.077-4.387-2.376,0-3.164,2.222-3.164,4.227m11.236,8.071h-4.934V97.513h-.06a5.047,5.047,0,0,1-4.356,2.283c-4.967,0-7.062-4.261-7.062-8.708,0-4.117,2.191-8.015,6.664-8.015a5.3,5.3,0,0,1,4.512,2.17h.057V77.6h5.181Z" transform="translate(-444.452 -77.593)" fill="#fff"/>
      <path id="패스_92" data-name="패스 92" d="M499.068,94.5c2.47,0,3.291-1.4,3.166-4.659a14.663,14.663,0,0,1-3.2.858c-1.155.267-2.131.758-2.131,2,0,1.279,1,1.8,2.162,1.8m-6.7-8.193a4.875,4.875,0,0,1,2.463-4.232,10.449,10.449,0,0,1,5.032-1.1c3.741,0,7.367.824,7.367,5.3V93.2a9.17,9.17,0,0,0,.607,4.041h-5.207a5.56,5.56,0,0,1-.3-1.487,7.149,7.149,0,0,1-5.215,1.945c-3.015,0-5.388-1.517-5.388-4.779,0-5.142,5.6-4.753,9.189-5.475.891-.186,1.378-.5,1.378-1.467,0-1.19-1.433-1.644-2.5-1.644a2.319,2.319,0,0,0-2.59,1.977Z" transform="translate(-437.837 -75.498)" fill="#fff"/>
    </g>
  </g>
</svg>
