<svg xmlns="http://www.w3.org/2000/svg" width="360" height="180" viewBox="0 0 360 180">
  <g id="img_main_logo_louispoulsen" transform="translate(-3564 -1615)">
    <g id="area" transform="translate(3564 1615)" fill="rgba(255,255,255,0)" stroke="#fff" stroke-width="1" opacity="0.1">
      <rect width="360" height="180" stroke="none"/>
      <rect x="0.5" y="0.5" width="359" height="179" fill="none"/>
    </g>
    <path id="logo" d="M501.135,157.683h-3.328v17.364h3.328Zm-26.226,11.055c0-2.039.693-4.07,3.008-4.07,2.345,0,3.04,2.031,3.04,4.07,0,2-.695,4.044-3.04,4.044-2.315,0-3.008-2.039-3.008-4.044m-3.547-.04c0,4.191,2.569,6.962,6.532,6.962,4,0,6.569-2.771,6.569-6.962,0-4.239-2.57-7.005-6.569-7.005-3.964,0-6.532,2.766-6.532,7.005m-12.853-12.346h3.311V138.94h-3.311Zm6.03,8.432c2.133,0,2.788,2,2.788,3.933,0,1.976-.729,3.849-2.76,3.849-2.063,0-2.9-1.874-2.9-3.849s.707-3.933,2.877-3.933m.786-3.017a4.069,4.069,0,0,0-3.663,2h-.042v-1.65h-3.167v17.966h3.332v-6.4h.045a4.124,4.124,0,0,0,3.624,1.854c3.539,0,5.316-3.364,5.316-6.822,0-3.746-1.544-6.953-5.446-6.953m7.008-11.839c0,2.008-.691,4.044-3.01,4.044-2.291,0-2.986-2.036-2.986-4.044,0-2.036.7-4.061,2.986-4.061,2.319,0,3.01,2.025,3.01,4.061m3.5,0c0-4.207-2.576-6.965-6.562-6.965-3.965,0-6.538,2.758-6.538,6.965,0,4.176,2.573,6.937,6.538,6.937,3.985,0,6.562-2.761,6.562-6.937m9.064,6.427h3.2V143.426h-3.358V150.2c0,2.627-.78,3.7-2.6,3.7-1.558,0-2.15-1.054-2.15-3.17v-7.309h-3.355v8.707c0,3.416,2.278,4.567,4.467,4.567a3.971,3.971,0,0,0,3.731-2.14h.071Zm5.891,16.307c-1.5,0-2.253-1.137-2.253-2.972V162.12h-3.358v8.425c0,2.62.938,4.888,4.469,4.888a3.759,3.759,0,0,0,3.735-2.119h.068v1.747h3.194V162.12h-3.358v7.169c0,2.353-1,3.37-2.5,3.37m-1.6-16.305h3.4V143.431h-3.4Zm-.062-14.528h3.493V138.9h-3.493Zm7.853,4.866c0-.68,1.1-1.188,1.88-1.188a2.08,2.08,0,0,1,2.35,1.838h3.267c-.262-3.312-2.783-4.432-5.527-4.432-2.45,0-5.286,1.179-5.286,4.322,0,2.278,1.45,3.265,3.877,3.8,2.472.55,3.837.576,3.837,1.649,0,1.25-1.264,1.445-2.254,1.445-1.293,0-2.284-.387-2.5-1.968H493.2c.15,3.424,2.982,4.543,5.89,4.543,2.858,0,5.723-.889,5.723-4.5,0-2.4-1.966-3.3-3.979-3.775-1.963-.475-3.863-.519-3.863-1.74m8.592,18.852c0-.806,1.1-1.234,1.88-1.234,1.261,0,2.228.436,2.325,1.815h3.307c-.264-3.177-2.575-4.438-5.359-4.438-2.546,0-5.46,1.142-5.46,4.258,0,2.395,1.438,3.29,3.785,3.859,2.5.609,3.936.609,3.936,1.681,0,1.142-1.233,1.435-2.2,1.435-1.453,0-2.569-.64-2.569-2.043h-3.44c0,3.41,2.8,4.638,5.928,4.638,3.008,0,5.731-1.026,5.731-4.455,0-2.4-1.929-3.35-3.963-3.825-1.994-.472-3.9-.64-3.9-1.69m16.971,1.768h-5.112a2.727,2.727,0,0,1,2.674-2.735,2.539,2.539,0,0,1,2.438,2.735m3.487,2.313c.3-4.383-1.405-7.913-5.908-7.913-3.9,0-6.208,2.883-6.208,6.89,0,4.2,1.884,6.945,6.446,6.945a5.362,5.362,0,0,0,5.487-4.287H522.43a2.045,2.045,0,0,1-2.2,1.482c-1.339,0-2.745-.871-2.851-3.117Zm12.428,5.423V167.1c0-3.2-.9-5.4-4.506-5.4a4.039,4.039,0,0,0-3.788,2.221h-.065v-1.8h-3.224v12.927h3.395v-6.774c0-2.623,1-3.7,2.616-3.7,1.691,0,2.177,1.046,2.177,3.167v7.306Z" transform="translate(3245.547 1545.103)" fill="#fff" opacity="0.5"/>
  </g>
</svg>
