<svg xmlns="http://www.w3.org/2000/svg" width="360" height="180" viewBox="0 0 360 180">
  <g id="img_main_logo_giant" transform="translate(-3935 -1737)">
    <g id="area" transform="translate(3935 1737)" fill="rgba(255,255,255,0)" stroke="#fff" stroke-width="1" opacity="0.1">
      <rect width="360" height="180" stroke="none"/>
      <rect x="0.5" y="0.5" width="359" height="179" fill="none"/>
    </g>
    <g id="logo" transform="translate(4075 1809)" opacity="0.5">
      <path id="패스_195" data-name="패스 195" d="M117.607,19.507h-5.4l-9.631,27.761h5.4Z" transform="translate(-77.125 -19.507)" fill="#fff"/>
      <g id="그룹_558" data-name="그룹 558" transform="translate(0 6.877)">
        <path id="패스_196" data-name="패스 196" d="M43.786,55.426q0-.41-.034-.812l-9.633-.029V58.7H37.7a4.789,4.789,0,1,1,.083-6.452l3.572-3.195a9.582,9.582,0,1,0,2.428,6.375" transform="translate(-24.623 -44.124)" fill="#fff"/>
        <rect id="사각형_421" data-name="사각형 421" width="4.81" height="19.163" transform="translate(20.085 1.721)" fill="#fff"/>
        <path id="패스_197" data-name="패스 197" d="M135.95,65.776h5.008l-6.886-18.79-2.435,7.02Z" transform="translate(-96.702 -44.892)" fill="#fff"/>
        <path id="패스_198" data-name="패스 198" d="M166.124,55.66l11.414,9.347V45.845h-4.81V54.9l-11.414-9.058V65.008h4.81Z" transform="translate(-116.692 -44.124)" fill="#fff"/>
        <path id="패스_199" data-name="패스 199" d="M223.368,50.655h4.756v-4.81H213.8v4.81h4.756V65.008h4.81Z" transform="translate(-152.045 -44.124)" fill="#fff"/>
        <path id="패스_200" data-name="패스 200" d="M261.98,41.984h-.319V41.5h.3a.828.828,0,0,1,.264.028.24.24,0,0,1,.111.085.231.231,0,0,1-.043.308.515.515,0,0,1-.312.068m.458.9h.315l-.2-.315a1.858,1.858,0,0,0-.238-.319.445.445,0,0,0-.137-.085.5.5,0,0,0,.334-.146.427.427,0,0,0,.126-.307.411.411,0,0,0-.075-.235.4.4,0,0,0-.2-.155,1.352,1.352,0,0,0-.41-.044H261.4v1.606h.257V42.2h.153a.331.331,0,0,1,.209.055,1.364,1.364,0,0,1,.272.374Zm.86-.826a1.252,1.252,0,0,1-.164.616,1.159,1.159,0,0,1-.46.46,1.241,1.241,0,0,1-1.235,0,1.168,1.168,0,0,1-.461-.46,1.237,1.237,0,0,1,0-1.239,1.149,1.149,0,0,1,.464-.459,1.236,1.236,0,0,1,1.22,0,1.144,1.144,0,0,1,.465.459,1.261,1.261,0,0,1,.167.622m.247,0a1.515,1.515,0,0,0-.2-.747,1.368,1.368,0,0,0-.556-.55,1.489,1.489,0,0,0-1.464,0,1.374,1.374,0,0,0-.557.55,1.489,1.489,0,0,0,0,1.486,1.386,1.386,0,0,0,.551.551,1.494,1.494,0,0,0,1.481,0,1.382,1.382,0,0,0,.55-.551,1.508,1.508,0,0,0,.2-.74" transform="translate(-183.546 -40.572)" fill="#fff"/>
      </g>
      <rect id="사각형_422" data-name="사각형 422" width="31.456" height="0.925" transform="translate(44.622 29.611)" fill="#fff"/>
      <g id="그룹_559" data-name="그룹 559" transform="translate(44.622 31.524)">
        <path id="패스_201" data-name="패스 201" d="M162.368,119.232h-.328v-2.287l-.725.431v-.347l.557-.347a.512.512,0,0,1,.286-.084h.21Z" transform="translate(-161.315 -116.427)" fill="#fff"/>
        <path id="패스_202" data-name="패스 202" d="M168.956,117.805c0,.764-.226,1.37-.951,1.37s-.951-.607-.951-1.37.225-1.37.951-1.37S168.956,117.038,168.956,117.805Zm-.366,0c0-.691-.165-1.111-.584-1.111s-.584.42-.584,1.111.164,1.111.584,1.111S168.59,118.493,168.59,117.805Z" transform="translate(-165.181 -116.317)" fill="#fff"/>
        <path id="패스_203" data-name="패스 203" d="M175.738,117.805c0,.764-.225,1.37-.95,1.37s-.951-.607-.951-1.37.225-1.37.951-1.37S175.738,117.038,175.738,117.805Zm-.366,0c0-.691-.164-1.111-.584-1.111s-.584.42-.584,1.111.164,1.111.584,1.111S175.372,118.493,175.372,117.805Z" transform="translate(-169.749 -116.317)" fill="#fff"/>
        <path id="패스_204" data-name="패스 204" d="M181.749,117.089a.567.567,0,1,1-.565-.607A.55.55,0,0,1,181.749,117.089Zm-.894,2.065,1.71-2.634h.332l-1.711,2.634Zm.084-2.065c0,.244.1.378.244.378s.245-.134.245-.378-.1-.378-.245-.378S180.94,116.841,180.94,117.089Zm2.191,1.512a.567.567,0,1,1-.565-.607A.549.549,0,0,1,183.131,118.6Zm-.81,0c0,.245.1.378.244.378s.244-.134.244-.378-.1-.378-.244-.378S182.321,118.353,182.321,118.6Z" transform="translate(-174.317 -116.349)" fill="#fff"/>
        <path id="패스_205" data-name="패스 205" d="M194.893,119.146v1.237h-.328V119.3a3.533,3.533,0,0,0-.015-.393.364.364,0,0,0-.4-.34c-.256,0-.443.2-.443.817v1h-.328V119.3a3.515,3.515,0,0,0-.016-.393.364.364,0,0,0-.4-.34c-.255,0-.442.2-.442.817v1h-.328V118.36h.328v.294l.13-.229a.662.662,0,0,1,.427-.118.573.573,0,0,1,.584.378l.179-.26a.664.664,0,0,1,.428-.118.574.574,0,0,1,.615.493A2.124,2.124,0,0,1,194.893,119.146Z" transform="translate(-182.106 -117.577)" fill="#fff"/>
        <path id="패스_206" data-name="패스 206" d="M203.007,120.093l-.111.218a.876.876,0,0,1-.508.126.581.581,0,0,1-.653-.576c0-.458.343-.695,1.138-.695H203v-.054a2.429,2.429,0,0,0-.008-.244c-.015-.187-.122-.309-.393-.309s-.413.149-.435.428h-.344a.707.707,0,0,1,.779-.68c.481,0,.683.2.717.534.008.08.012.18.012.267v.76a3.48,3.48,0,0,0,.038.515h-.328Zm0-.477v-.206c-.558-.042-.909.076-.909.424,0,.245.156.351.4.351C202.8,120.184,203,119.982,203,119.615Z" transform="translate(-188.541 -117.577)" fill="#fff"/>
        <path id="패스_207" data-name="패스 207" d="M209.81,118.879h-.328v-.324l-.153.217a.9.9,0,0,1-.534.16.921.921,0,0,1-.92-1.035.977.977,0,0,1,.989-1.1.874.874,0,0,1,.485.134l.134.2v-1.061h.328Zm-.328-.993v-.111a.632.632,0,0,0-.619-.721c-.355,0-.63.275-.63.805,0,.458.206.821.611.821C209.18,118.68,209.481,118.467,209.481,117.886Z" transform="translate(-192.675 -116.073)" fill="#fff"/>
        <path id="패스_208" data-name="패스 208" d="M216.886,119.47H215.42c.03.534.282.714.58.714a.51.51,0,0,0,.523-.454h.344a.83.83,0,0,1-.882.706c-.527,0-.92-.343-.92-1.057a.971.971,0,0,1,.962-1.073c.558,0,.867.416.867,1.008A1.438,1.438,0,0,1,216.886,119.47Zm-1.462-.252h1.138c-.03-.42-.21-.66-.542-.66S215.462,118.787,215.424,119.218Z" transform="translate(-197.519 -117.577)" fill="#fff"/>
        <path id="패스_209" data-name="패스 209" d="M224.8,116.645a.21.21,0,1,1-.21-.21A.207.207,0,0,1,224.8,116.645Zm-.374,2.478V117.1h.328v2.023Z" transform="translate(-203.795 -116.317)" fill="#fff"/>
        <path id="패스_210" data-name="패스 210" d="M229.018,119.245v1.138h-.328v-1.115c0-.1,0-.187-.008-.29a.412.412,0,0,0-.462-.412c-.317,0-.584.237-.584.928v.89h-.328V118.36h.328v.347l.126-.233a.767.767,0,0,1,.527-.168.64.64,0,0,1,.722.592C229.018,119,229.018,119.081,229.018,119.245Z" transform="translate(-205.765 -117.577)" fill="#fff"/>
        <path id="패스_211" data-name="패스 211" d="M237.071,119.232V116.6h.328v2.634Z" transform="translate(-212.341 -116.427)" fill="#fff"/>
        <path id="패스_212" data-name="패스 212" d="M239.822,118.964c0,.069,0,.1,0,.157.015.195.1.237.352.206v.241a1.738,1.738,0,0,1-.279.019c-.252,0-.382-.1-.4-.355,0-.054,0-.137,0-.252V117.8h-.271v-.252h.271v-.47h.328v.47h.378v.252h-.378Z" transform="translate(-213.79 -116.75)" fill="#fff"/>
        <path id="패스_213" data-name="패스 213" d="M244.341,120.093l-.111.218a.875.875,0,0,1-.508.126.581.581,0,0,1-.653-.576c0-.458.343-.695,1.138-.695h.13v-.054a2.415,2.415,0,0,0-.008-.244c-.015-.187-.122-.309-.393-.309s-.413.149-.435.428h-.344a.707.707,0,0,1,.779-.68c.481,0,.683.2.717.534.008.08.012.18.012.267v.76a3.53,3.53,0,0,0,.038.515h-.328Zm0-.477v-.206c-.558-.042-.909.076-.909.424,0,.245.156.351.4.351C244.139,120.184,244.338,119.982,244.338,119.615Z" transform="translate(-216.382 -117.577)" fill="#fff"/>
        <path id="패스_214" data-name="패스 214" d="M250.005,118.3c0,.061,0,.126,0,.191.008.13.069.172.248.153v.237a1.558,1.558,0,0,1-.233.015c-.191,0-.332-.061-.344-.317,0-.069,0-.157,0-.267v-2.237h.328Z" transform="translate(-220.832 -116.073)" fill="#fff"/>
        <path id="패스_215" data-name="패스 215" d="M252.857,120.665c-.165.428-.382.63-.71.63a1.046,1.046,0,0,1-.168-.008v-.267c.049,0,.084,0,.118,0,.2,0,.336-.088.439-.355l.027-.072-.806-2.126h.371l.6,1.779.6-1.779h.359Z" transform="translate(-222.233 -117.688)" fill="#fff"/>
      </g>
    </g>
  </g>
</svg>
