<?xml version="1.0" encoding="utf-8"?>
<!-- Generator: Adobe Illustrator 23.1.1, SVG Export Plug-In . SVG Version: 6.00 Build 0)  -->
<svg version="1.1" id="Layer_1" xmlns="http://www.w3.org/2000/svg" xmlns:xlink="http://www.w3.org/1999/xlink" x="0px" y="0px"
	 viewBox="0 0 536 160" style="enable-background:new 0 0 536 160;" xml:space="preserve">
<style type="text/css">
	.st0{fill:#20283B;fill-opacity:0;}
	.st1{fill:#20283B;}
</style>
<g id="img_nexus_logo" transform="translate(-201.394 -264.662)">
	<path id="area" class="st0" d="M201.4,264.7h536v160h-536V264.7z"/>
	<path id="패스_15" class="st1" d="M324.7,302.5h64.2v-18.2h-64.2v16.1V302.5z M324.7,354.6h64.2v-18.2h-64.2v16.1V354.6z
		 M388.9,406.7v-18.2h-64.2v18.2L388.9,406.7z"/>
	<path id="패스_16" class="st1" d="M269,284.2v73.7l-67.6-75.8v124.8h17.8v-74.7l67.6,76v-124H269z"/>
	<path id="패스_17" class="st1" d="M614.9,284.3v79.4c0,13.8-10.2,25-22.7,25h-6.9c-12.5,0-22.7-11.2-22.7-25v-79.4h-19.6v79.4
		c0,24.6,19,44.6,42.3,44.6h6.9c23.3,0,42.3-20,42.3-44.6v-79.4H614.9z"/>
	<path id="패스_18" class="st1" d="M735.2,361.7c-3.6-9.3-11.3-15.7-18.3-20.6c-2.1-1.5-4.8-3-7.9-4.8c-8-4.6-20.1-11.5-22.6-19
		c-1.9-4.9,0.3-10.4,4.9-12.8c4.7-2.6,11.2-3.6,19.8-3l2.1,0.1l1.3-19.6l-2.1-0.1c-12.5-0.8-22.5,0.9-30.6,5.4
		c-12.9,7-18.9,22.3-14.1,36.1c4.9,14.7,20.9,23.8,31.5,29.9c2.4,1.4,4.9,2.8,6.3,3.8c5.2,3.7,8.2,7.4,9.5,11.7
		c1.4,4.7,0.2,9.8-3.1,13.4c-8.1,9.3-23,6.8-37.5,4.5l-3.9-0.6l-3.1,19.4l2.5,0.4c6.9,1.1,15.5,2.5,24.1,2.5
		c15.4,0,26.7-4.4,34.5-13.3C736.8,385.5,739.4,372.5,735.2,361.7"/>
	<path id="패스_19" class="st1" d="M466.9,350.8l-48.5,55.5h24.1l24.5-27.8l25.1,27.8h23.8L466.9,350.8z M466.9,339.2l49-55.5H492
		L467,311.5l-24.5-27.8h-24.1L466.9,339.2z"/>
</g>
</svg>
